<svg width="24" height="24" viewBox="0 0 24 24" fill="none" xmlns="http://www.w3.org/2000/svg">
<path d="M11.8583 6.52353C12.2843 6.53003 12.7074 6.45175 13.1028 6.29322C13.4983 6.13469 13.8583 5.89909 14.1619 5.60012C14.4654 5.30116 14.7065 4.9448 14.8711 4.55179C15.0356 4.15878 15.1204 3.73697 15.1204 3.3109C15.1204 2.88483 15.0356 2.46302 14.8711 2.07001C14.7065 1.677 14.4654 1.32064 14.1619 1.02168C13.8583 0.722712 13.4983 0.487109 13.1028 0.328581C12.7074 0.170053 12.2843 0.091766 11.8583 0.0982754C10.0838 0.0982754 8.64453 1.53678 8.64453 3.31053C8.64473 4.16274 8.98341 4.97997 9.58608 5.5825C10.1888 6.18504 11.0061 6.52353 11.8583 6.52353V6.52353Z" fill="#C487C4"/>
<path d="M16.0985 7.50113H12.3159V10.5011L13.0115 10.6714V9.97575C13.0115 9.52387 13.4232 9.11362 14.1747 9.61875C15.2334 10.3324 16.373 14.3858 15.137 14.226C14.5404 14.1499 14.2032 13.8604 13.5462 13.8236C13.0126 13.7962 13.0126 13.5668 13.0119 13.2649C13.0111 12.963 13.0119 11.994 13.0119 11.994V11.454C12.7798 11.3982 12.5479 11.3415 12.3162 11.2841V14.994C12.3162 14.994 13.3591 14.2849 14.105 14.8627C14.5752 15.2284 14.8696 16.2806 13.415 17.1382C13.0794 17.3426 11.252 17.826 10.6786 16.7498H10.0317C9.89132 16.7498 9.75664 16.8055 9.65734 16.9048C9.55804 17.0041 9.50225 17.1388 9.50225 17.2792C9.50225 17.4197 9.55804 17.5544 9.65734 17.6537C9.75664 17.753 9.89132 17.8088 10.0317 17.8088H13.8624C14.1536 17.8091 14.4328 17.9251 14.6386 18.1311C14.8445 18.337 14.9602 18.6163 14.9604 18.9075C14.9602 19.1986 14.8444 19.4778 14.6386 19.6837C14.4327 19.8896 14.1535 20.0053 13.8624 20.0055H9.89862C9.8365 20.0103 9.7785 20.0384 9.73619 20.0842C9.69388 20.1299 9.67038 20.1899 9.67038 20.2523C9.67038 20.3146 9.69388 20.3746 9.73619 20.4203C9.7785 20.4661 9.8365 20.4942 9.89862 20.499H13.8624C14.4676 20.499 14.9604 20.9918 14.9604 21.5978C14.9604 22.2038 14.4676 22.6957 13.8624 22.6957H9.22662C9.11364 22.6957 9.00529 22.6509 8.9254 22.571C8.84551 22.4911 8.80062 22.3827 8.80062 22.2698C8.80062 22.1568 8.84551 22.0484 8.9254 21.9685C9.00529 21.8886 9.11364 21.8437 9.22662 21.8438H13.8624C13.9261 21.8413 13.9864 21.8142 14.0306 21.7682C14.0748 21.7223 14.0995 21.661 14.0995 21.5972C14.0995 21.5334 14.0748 21.4721 14.0306 21.4261C13.9864 21.3802 13.9261 21.3531 13.8624 21.3506H9.89862C9.60757 21.3501 9.32858 21.2343 9.12277 21.0285C8.91696 20.8227 8.80112 20.5437 8.80062 20.2526C8.80082 19.9613 8.91652 19.682 9.12235 19.4759C9.32818 19.2698 9.60734 19.1537 9.89862 19.1531H13.8624C13.9254 19.1496 13.9846 19.1222 14.028 19.0764C14.0714 19.0305 14.0955 18.9698 14.0955 18.9067C14.0955 18.8437 14.0714 18.783 14.028 18.7371C13.9846 18.6913 13.9254 18.6639 13.8624 18.6604H10.0317C9.66574 18.6598 9.31491 18.514 9.0562 18.2551C8.7975 17.9962 8.65205 17.6453 8.65175 17.2792C8.65205 16.9132 8.79749 16.5622 9.05618 16.3032C9.31487 16.0443 9.6657 15.8984 10.0317 15.8978H10.8867C10.8924 15.8978 10.8969 15.9008 10.9025 15.9008H11.1935C11.4762 15.9008 11.4654 15.6015 11.4646 15.6015V11.3287L10.7697 11.5215V11.9936C10.7697 11.9936 10.7705 12.9626 10.7697 13.2645C10.7697 13.5664 10.7675 13.7959 10.2354 13.8236C9.57912 13.8604 9.242 14.1499 8.64387 14.226C7.40825 14.3854 8.54862 10.3324 9.605 9.61838C10.3561 9.11288 10.7697 9.52312 10.7697 9.97537V10.7314L11.4646 10.5394V7.5H7.8485C5.57488 7.5 3.54688 9.34238 3.54688 11.6156V21.5782C3.54688 22.3556 4.1585 22.986 4.934 22.986C5.1188 22.986 5.30178 22.9496 5.47249 22.8788C5.64321 22.808 5.7983 22.7043 5.9289 22.5736C6.0595 22.4428 6.16305 22.2876 6.23364 22.1169C6.30422 21.9461 6.34045 21.763 6.34025 21.5782V12.5955H7.505V23.4709H16.2627V12.5955H17.4399V21.5782C17.4399 22.3556 18.0695 22.986 18.8465 22.986C19.6235 22.986 20.2347 22.3556 20.2347 21.5782V11.6156C20.2344 9.3435 18.3714 7.50113 16.0985 7.50113Z" fill="#C487C4"/>
</svg>
