<svg width="24" height="24" viewBox="0 0 24 24" fill="none" xmlns="http://www.w3.org/2000/svg">
<path d="M7.31961 3.19995C5.80257 3.19995 4.34767 3.81156 3.27496 4.90023C2.20225 5.98889 1.59961 7.46544 1.59961 9.00505C1.59961 9.53279 1.69321 10.0605 1.82841 10.5883H6.07161L7.39241 7.03132C7.70441 6.18694 8.93161 6.1025 9.32681 7.03132L11.4796 12.6992L12.0932 11.2004C12.2284 10.8521 12.5924 10.5883 13.0396 10.5883H22.1708C22.306 10.0605 22.3996 9.53279 22.3996 9.00505C22.3996 7.46544 21.797 5.98889 20.7243 4.90023C19.6516 3.81156 18.1966 3.19995 16.6796 3.19995C14.7452 3.19995 13.0396 4.18154 11.9996 5.66976C10.9596 4.18154 9.25401 3.19995 7.31961 3.19995ZM2.63961 12.1715C2.36378 12.1715 2.09926 12.2827 1.90422 12.4806C1.70918 12.6785 1.59961 12.947 1.59961 13.2269C1.59961 13.5069 1.70918 13.7753 1.90422 13.9733C2.09926 14.1712 2.36378 14.2824 2.63961 14.2824H5.17721L10.9596 20.0875C11.9996 21.0374 11.9996 21.0374 13.0396 20.0875L18.822 14.2824H21.3596C21.6354 14.2824 21.9 14.1712 22.095 13.9733C22.29 13.7753 22.3996 13.5069 22.3996 13.2269C22.3996 12.947 22.29 12.6785 22.095 12.4806C21.9 12.2827 21.6354 12.1715 21.3596 12.1715H13.4556L12.4884 14.5991C12.0724 15.6651 10.8764 15.5173 10.4916 14.6307L8.35961 9.00505L7.36121 11.4643C7.20521 11.8654 6.85161 12.1715 6.38361 12.1715H2.63961Z" fill="#FF6161"/>
</svg>
