<svg width="24" height="24" viewBox="0 0 24 24" fill="none" xmlns="http://www.w3.org/2000/svg">
<path d="M7.45946 5C8.71027 5 9.33568 6.512 8.4573 7.394C7.57189 8.269 6.05405 7.646 6.05405 6.4C6.05405 6.0287 6.20212 5.6726 6.46569 5.41005C6.72925 5.1475 7.08672 5 7.45946 5V5ZM6.40541 8.5H8.51351C8.88625 8.5 9.24372 8.6475 9.50728 8.91005C9.77085 9.1726 9.91892 9.5287 9.91892 9.9V13.75H8.86486V19H6.05405V13.75H5V9.9C5 9.5287 5.14807 9.1726 5.41163 8.91005C5.6752 8.6475 6.03267 8.5 6.40541 8.5V8.5ZM15.8919 9.2H17.2973L15.1892 6.4L13.0811 9.2H14.4865V14.8H13.0811L15.1892 17.6L17.2973 14.8H15.8919V9.2ZM18 5H12.3784V6.4H18V5ZM18 17.6H12.3784V19H18" fill="#74C0FF"/>
</svg>
