<svg width="50" height="50" viewBox="0 0 50 50" fill="none" xmlns="http://www.w3.org/2000/svg">
<path d="M16.597 14.4797C16.0445 14.4797 15.5146 14.6992 15.1239 15.0899C14.7332 15.4806 14.5137 16.0105 14.5137 16.5631C14.5137 17.1156 14.7332 17.6455 15.1239 18.0362C15.5146 18.4269 16.0445 18.6464 16.597 18.6464H33.2637C33.8162 18.6464 34.3461 18.4269 34.7368 18.0362C35.1275 17.6455 35.347 17.1156 35.347 16.5631C35.347 16.0105 35.1275 15.4806 34.7368 15.0899C34.3461 14.6992 33.8162 14.4797 33.2637 14.4797H16.597V14.4797Z" fill="#535353"/>
<path d="M14.5137 24.9317C14.5137 24.3792 14.7332 23.8493 15.1239 23.4586C15.5146 23.0679 16.0445 22.8484 16.597 22.8484H33.2637C33.8162 22.8484 34.3461 23.0679 34.7368 23.4586C35.1275 23.8493 35.347 24.3792 35.347 24.9317C35.347 25.4843 35.1275 26.0142 34.7368 26.4049C34.3461 26.7956 33.8162 27.0151 33.2637 27.0151H16.597C16.0445 27.0151 15.5146 26.7956 15.1239 26.4049C14.7332 26.0142 14.5137 25.4843 14.5137 24.9317Z" fill="#535353"/>
<path d="M16.597 31.217C16.0445 31.217 15.5146 31.4365 15.1239 31.8272C14.7332 32.2179 14.5137 32.7478 14.5137 33.3004C14.5137 33.8529 14.7332 34.3828 15.1239 34.7735C15.5146 35.1642 16.0445 35.3837 16.597 35.3837H33.2637C33.8162 35.3837 34.3461 35.1642 34.7368 34.7735C35.1275 34.3828 35.347 33.8529 35.347 33.3004C35.347 32.7478 35.1275 32.2179 34.7368 31.8272C34.3461 31.4365 33.8162 31.217 33.2637 31.217H16.597Z" fill="#535353"/>
<path fill-rule="evenodd" clip-rule="evenodd" d="M45.7643 24.9317C45.7643 36.438 36.4372 45.7651 24.931 45.7651C13.4247 45.7651 4.09766 36.438 4.09766 24.9317C4.09766 13.4255 13.4247 4.09839 24.931 4.09839C36.4372 4.09839 45.7643 13.4255 45.7643 24.9317ZM41.5977 24.9317C41.5977 29.352 39.8417 33.5912 36.7161 36.7168C33.5905 39.8424 29.3513 41.5984 24.931 41.5984C20.5107 41.5984 16.2715 39.8424 13.1459 36.7168C10.0203 33.5912 8.26432 29.352 8.26432 24.9317C8.26432 20.5115 10.0203 16.2722 13.1459 13.1466C16.2715 10.021 20.5107 8.26506 24.931 8.26506C29.3513 8.26506 33.5905 10.021 36.7161 13.1466C39.8417 16.2722 41.5977 20.5115 41.5977 24.9317V24.9317Z" fill="#535353"/>
</svg>
