<?xml version="1.0" encoding="UTF-8"?><svg xmlns="http://www.w3.org/2000/svg" xmlns:xlink="http://www.w3.org/1999/xlink" height="256.6" preserveAspectRatio="xMidYMid" version="1.1" viewBox="0.0 -0.6 256.0 256.6" width="256.0" zoomAndPan="magnify">
 <g>
  <path d="m255.81 87.087c-0.06-0.311-0.11-0.621-0.2-0.924-0.05-0.183-0.11-0.355-0.17-0.535-0.08-0.269-0.17-0.537-0.28-0.799-0.08-0.183-0.16-0.359-0.25-0.535-0.11-0.248-0.23-0.493-0.37-0.731-0.1-0.175-0.21-0.341-0.32-0.51-0.14-0.227-0.3-0.451-0.46-0.669-0.12-0.162-0.25-0.317-0.38-0.472-0.17-0.207-0.36-0.403-0.54-0.596-0.15-0.145-0.29-0.29-0.44-0.431-0.2-0.183-0.41-0.355-0.63-0.521-0.16-0.127-0.32-0.258-0.5-0.376-0.06-0.044-0.11-0.096-0.18-0.138l-116.99-78.001c-3.69-2.4652-8.51-2.4652-12.2-0.0003l-117 77.998c-0.0667 0.041-0.1184 0.093-0.1839 0.138-0.1724 0.121-0.3344 0.248-0.4999 0.376-0.2137 0.169-0.424 0.341-0.624 0.517-0.1517 0.138-0.2964 0.282-0.4378 0.431-0.193 0.193-0.3723 0.389-0.5481 0.596-0.131 0.155-0.2551 0.31-0.3758 0.483-0.1655 0.217-0.3172 0.438-0.4654 0.669-0.1069 0.169-0.2138 0.334-0.3137 0.51-0.1379 0.238-0.2586 0.482-0.3724 0.724-0.08269 0.176-0.17232 0.355-0.24472 0.534-0.10687 0.262-0.19995 0.531-0.28614 0.8-0.0586 0.179-0.12066 0.355-0.16892 0.517-0.07929 0.303-0.1379 0.61-0.19306 0.924-0.03103 0.159-0.06895 0.314-0.089632 0.476-0.062054 0.475-0.096528 0.951-0.096528 1.437l2.8422e-14 78.011c0 0.49 0.034474 0.97 0.10342 1.44 0.02414 0.17 0.06895 0.31 0.10343 0.48 0.05516 0.31 0.10342 0.62 0.20684 0.93 0.04827 0.17 0.10343 0.34 0.17237 0.53 0.08619 0.28 0.17238 0.55 0.2758 0.81 0.0724 0.17 0.17234 0.34 0.24134 0.51 0.1137 0.25 0.2413 0.49 0.3792 0.74 0.0965 0.17 0.2068 0.34 0.3103 0.5 0.1482 0.24 0.3102 0.45 0.4826 0.66 0.1207 0.17 0.2413 0.31 0.3792 0.47 0.1758 0.21 0.3448 0.42 0.5516 0.6 0.1414 0.14 0.2758 0.31 0.4482 0.41 0.1999 0.17 0.4137 0.35 0.6205 0.53 0.1655 0.13 0.3448 0.24 0.4827 0.37 0.0655 0.04 0.1034 0.11 0.1723 0.14l116.97 78.04c1.85 1.24 3.96 1.86 6.1 1.85s4.25-0.62 6.1-1.85l117-78c0.07-0.04 0.12-0.09 0.18-0.14 0.18-0.12 0.34-0.24 0.5-0.37 0.22-0.17 0.43-0.35 0.63-0.53 0.15-0.13 0.29-0.28 0.44-0.42 0.19-0.2 0.37-0.39 0.54-0.6 0.13-0.16 0.26-0.31 0.38-0.48 0.16-0.21 0.32-0.44 0.46-0.66 0.11-0.17 0.22-0.34 0.32-0.51 0.14-0.24 0.26-0.48 0.37-0.73 0.09-0.18 0.17-0.35 0.25-0.53 0.11-0.27 0.2-0.54 0.28-0.81 0.06-0.18 0.12-0.35 0.17-0.53 0.08-0.3 0.14-0.61 0.2-0.92 0.02-0.16 0.07-0.32 0.08-0.48 0.07-0.48 0.1-0.95 0.1-1.44v-78c0-0.486-0.04-0.962-0.1-1.438-0.02-0.169-0.08-0.306-0.11-0.475h0.02zm-127.81 66.933l-38.908-26.02 38.908-26.02 38.9 26.02-38.9 26.02zm-11-71.153l-47.693 31.903-38.497-25.756 86.19-57.459v51.312zm-67.478 45.133l-27.517 18.4v-36.81l27.517 18.41zm19.785 13.24l47.693 31.9v51.31l-86.19-57.47 38.497-25.74zm69.693 31.89l47.69-31.89 38.5 25.74-86.19 57.46v-51.31zm67.47-45.13l27.52-18.41v36.82l-27.52-18.41zm-19.78-13.23l-47.69-31.9v-51.315l86.19 57.459-38.5 25.756z" fill="#ccc"/>
 </g>
</svg>