<svg width="705" height="720" viewBox="0 0 705 720" fill="none" xmlns="http://www.w3.org/2000/svg">
<g id="Group 102">
<g id="Frame" clip-path="url(#clip0)">
<path id="Vector" opacity="0.1" d="M8.82994 420.419H73.5791V506.484H13.5702C13.4107 507.368 13.2576 508.257 13.0917 509.147H73.5791V578.557C73.4707 578.526 73.375 578.488 73.2729 578.451C71.5631 577.792 69.8661 577.095 68.169 576.348L67.0844 575.869C65.3831 575.085 63.6819 574.256 61.9806 573.38C61.3872 573.075 60.7939 572.758 60.207 572.435C50.7621 567.275 42.1819 560.737 34.7641 553.048C34.5472 552.842 34.343 552.625 34.1261 552.426C33.0926 551.331 32.0782 550.223 31.0957 549.091L30.0111 547.846C28.8499 546.459 27.7271 545.034 26.6361 543.591C26.4766 543.379 26.3235 543.168 26.1576 542.968C21.7207 536.969 18.0367 530.473 15.1843 523.619C15.095 523.414 15.0184 523.19 14.9355 522.997C14.0593 520.798 13.2831 518.579 12.6068 516.339C12.3133 515.4 12.0326 514.473 11.7902 513.496C11.7009 513.21 11.6243 512.93 11.5541 512.65C7.93038 498.856 7.50293 484.528 7.50293 470.299C7.50293 468.637 7.50293 466.97 7.50293 465.321C7.50293 459.566 7.57311 453.774 7.67519 447.988C7.67519 446.488 7.73898 444.995 7.77088 443.489C7.8602 439.669 7.9878 435.849 8.15368 432.029C8.19195 430.965 8.24299 429.907 8.30041 428.849C8.30041 428.24 8.33231 427.63 8.39611 427.02C8.54923 424.805 8.67683 422.609 8.82994 420.419Z" fill="#00A459"/>
<path id="Vector_2" opacity="0.1" d="M73.5787 324.592H38.062C43.8354 315.779 50.1436 307.311 56.9528 299.232C62.2289 292.911 67.7986 286.751 73.5787 280.816V324.592Z" fill="#00A459"/>
<path id="Vector_3" opacity="0.1" d="M73.5792 327.255V417.756H9.03418C9.03418 417.495 9.07884 417.227 9.09798 416.966C9.1554 416.251 9.21281 415.535 9.27661 414.826C9.34679 413.992 9.42335 413.152 9.50629 412.337C9.58923 411.522 9.67855 410.527 9.77424 409.624C9.86994 408.722 9.95926 407.808 10.0677 406.905C10.1762 406.003 10.2719 405.101 10.3867 404.205C10.5015 403.309 10.6036 402.401 10.7248 401.505C10.8205 400.758 10.9226 400.018 11.0247 399.271C11.1714 398.22 11.3245 397.162 11.4904 396.117C11.4904 395.961 11.5351 395.8 11.5606 395.65C12.725 387.999 14.3117 380.414 16.3136 372.929C18.4091 365.077 21.085 357.383 24.3203 349.908C27.7588 342.089 31.7848 334.527 36.3655 327.286L73.5792 327.255Z" fill="#00A459"/>
<path id="Vector_4" opacity="0.1" d="M89.0371 420.413V506.484H227.333V420.413H89.0371ZM89.0371 509.141V583.055C89.8282 583.217 90.6129 583.372 91.3913 583.503C92.4503 583.702 93.503 583.883 94.5812 584.038C94.7854 584.069 94.9959 584.1 95.2192 584.119C95.6403 584.188 96.0741 584.244 96.4952 584.3C97.5606 584.443 98.6197 584.561 99.6851 584.654C100.189 584.704 100.699 584.747 101.21 584.785L102.441 584.878C103.111 584.928 103.775 584.965 104.432 584.984C104.84 584.984 105.248 585.021 105.669 585.034C105.988 585.034 106.307 585.034 106.639 585.034C106.971 585.034 107.443 585.034 107.845 585.034C108.394 585.034 108.942 585.034 109.485 585.034H110.218C110.767 585.034 111.316 585.034 111.858 584.984H111.896C112.273 584.984 112.655 584.984 113.038 584.934C113.144 584.94 113.251 584.94 113.357 584.934C113.676 584.934 113.995 584.934 114.301 584.891H114.525L116.662 584.729C117.364 584.667 118.072 584.586 118.786 584.511L120.241 584.343C126.159 583.534 132.011 582.32 137.754 580.71C150.654 577.201 163.273 572.292 176.167 568.695C192.837 564.06 211.256 561.783 227.365 567.451V509.141H89.0371ZM227.333 324.592V210.006C212.192 209.846 197.092 211.573 182.4 215.145C147.381 223.725 115.96 242.334 89.0371 266.101V324.586H95.9784V327.242H89.0371V417.756H227.333V327.249H124.477V324.592H227.333ZM404.968 285.886C396.304 285.588 387.691 282.912 379.901 278.781C365.004 270.88 353.106 258.679 339.81 248.382C312.185 226.936 277.926 213.994 242.779 210.784V324.592H440.204L440.695 324.088L404.968 285.886ZM422.953 282.776L442.022 303.183V277.425C435.636 278.196 430.041 280.032 422.978 282.751L422.953 282.776ZM442.022 601.409V509.141H401.389C401.28 508.749 401.172 508.351 401.044 507.953C401.165 508.351 401.267 508.749 401.382 509.141H242.804V575.869C244.31 576.958 245.797 578.103 247.27 579.266C248.859 580.51 250.428 581.823 252.004 583.111L253.593 584.393C254.352 585.015 255.118 585.637 255.89 586.222C257.421 587.433 258.967 588.628 260.528 589.806C261.3 590.428 262.091 590.988 262.875 591.573C275.334 600.862 288.475 609.244 302.195 616.653C305.27 618.312 308.372 619.931 311.503 621.512C313.589 622.551 315.688 623.584 317.793 624.585C320.958 626.091 324.148 627.543 327.363 628.94C357.008 641.918 388.355 650.823 420.509 655.401C427.65 656.43 434.819 657.239 442.016 657.828V601.403H442.654L442.022 601.409ZM242.804 327.249V417.756H442.047V327.249H242.804ZM242.804 420.413V506.484H442.047V420.413H242.804ZM457.512 277.313V306.045L481.851 280.001C473.787 278.731 465.674 277.825 457.512 277.282V277.313ZM457.512 420.444V506.484H651.3V420.413L457.512 420.444ZM650.592 608.241L651.275 509.141H457.512V658.817C469.994 659.329 482.496 659.183 494.962 658.382V658.382H495.179C501.133 658.017 507.06 657.486 512.96 656.789H513.094C544.566 653.217 575.34 645.209 604.453 633.016L650.592 608.241ZM688.667 434.586C687.94 432.912 687.181 431.251 686.409 429.609C684.967 426.498 683.442 423.474 681.873 420.45H666.752V506.484H704.981C704.961 482.12 698.639 457.233 688.686 434.555L688.667 434.586ZM666.752 509.172V594.41C677.522 584.343 686.619 572.827 693.171 559.661C701.051 543.808 704.655 526.643 704.949 509.16L666.752 509.172ZM666.752 395.364V417.762H680.456C676.311 410.052 671.743 402.565 666.772 395.333L666.752 395.364ZM535.327 294.199C534.319 293.825 533.311 293.446 532.297 293.079C521.598 289.226 510.666 286.022 499.562 283.485L462.316 323.348L461.602 324.088L462.08 324.598H594.641C576.179 312.205 556.275 301.99 535.347 294.168L535.327 294.199ZM598.526 327.28H460.23L457.512 329.706V417.756H481.335H481.373H651.326V375.106C635.952 356.973 618.207 340.884 598.545 327.249L598.526 327.28Z" fill="#00A459"/>
<path id="Vector_5" opacity="0.1" d="M73.5792 372.904V417.756H9.03418C9.03418 417.495 9.07884 417.227 9.09798 416.966C9.1554 416.25 9.21281 415.535 9.27661 414.826C9.34679 413.992 9.42335 413.152 9.50629 412.337C9.58923 411.522 9.67855 410.526 9.77424 409.624C9.86994 408.722 9.95926 407.808 10.0677 406.905C10.1762 406.003 10.2719 405.101 10.3867 404.205C10.5015 403.309 10.6036 402.401 10.7248 401.505C10.8205 400.758 10.9226 400.018 11.0247 399.271C11.1714 398.22 11.3245 397.162 11.4904 396.117C11.4904 395.961 11.5351 395.8 11.5606 395.65C12.725 387.999 14.3117 380.414 16.3136 372.929L73.5792 372.904Z" fill="#00A459"/>
<path id="Vector_6" opacity="0.1" d="M8.82994 420.419H73.5791V506.484H13.5702C13.4107 507.368 13.2576 508.257 13.0917 509.147H73.5791V578.557C73.4707 578.526 73.375 578.488 73.2729 578.451C71.5631 577.792 69.8661 577.095 68.169 576.348L67.0844 575.869C65.3831 575.085 63.6819 574.256 61.9806 573.38C61.3872 573.075 60.7939 572.758 60.207 572.435C50.7621 567.275 42.1819 560.737 34.7641 553.048C34.5472 552.842 34.343 552.625 34.1261 552.426C33.0926 551.331 32.0782 550.223 31.0957 549.091L30.0111 547.846C28.8499 546.459 27.7271 545.034 26.6361 543.591C26.4766 543.379 26.3235 543.168 26.1576 542.968C21.7207 536.969 18.0367 530.473 15.1843 523.619C15.095 523.414 15.0184 523.19 14.9355 522.997C14.0593 520.798 13.2831 518.579 12.6068 516.339C12.3133 515.4 12.0326 514.473 11.7902 513.496C11.7009 513.21 11.6243 512.93 11.5541 512.65C7.93038 498.856 7.50293 484.528 7.50293 470.299C7.50293 468.637 7.50293 466.97 7.50293 465.321C7.50293 459.566 7.57311 453.774 7.67519 447.988C7.67519 446.488 7.73898 444.995 7.77088 443.489C7.8602 439.669 7.9878 435.849 8.15368 432.029C8.19195 430.965 8.24299 429.907 8.30041 428.849C8.30041 428.24 8.33231 427.63 8.39611 427.02C8.54923 424.805 8.67683 422.609 8.82994 420.419Z" fill="#00A459"/>
<path id="Vector_7" opacity="0.1" d="M137.722 340.208V417.756H89.0371V340.208H95.9784V313.953H124.471V340.208H137.722Z" fill="#00A459"/>
<path id="Vector_8" opacity="0.1" d="M137.722 420.413H89.0439V506.478H137.722V420.413Z" fill="#00A459"/>
<path id="Vector_9" opacity="0.1" d="M89.0371 509.147H137.722V580.697C131.979 582.306 126.127 583.518 120.209 584.324L118.754 584.499C118.04 584.579 117.332 584.648 116.63 584.716C115.928 584.785 115.201 584.834 114.493 584.878H114.269C113.963 584.878 113.631 584.915 113.332 584.922H113.006C112.623 584.922 112.241 584.959 111.858 584.971C111.316 585.002 110.773 585.009 110.218 585.015C109.982 585.015 109.759 585.015 109.523 585.015C108.974 585.015 108.432 585.015 107.883 585.015H106.677C106.352 585.015 106.039 585.015 105.701 585.015L104.47 584.971C103.832 584.971 103.143 584.903 102.479 584.859L101.255 584.772L99.7297 584.635C98.6579 584.542 97.5925 584.424 96.5398 584.281L95.2638 584.107L94.6259 584.019C93.5604 583.858 92.5077 583.683 91.4359 583.484C90.6512 583.354 89.8729 583.192 89.0818 583.036L89.0371 509.147Z" fill="#00A459"/>
<path id="Vector_10" opacity="0.1" d="M442.048 331.05H401.906V417.75H442.048V331.05Z" fill="#00A459"/>
<path id="Vector_11" opacity="0.1" d="M442.054 420.413V506.484H242.804V469.359H348.933V491.26H401.905V420.413H442.054Z" fill="#00A459"/>
<path id="Vector_12" opacity="0.1" d="M442.685 601.428H442.047V657.89C434.859 657.297 427.693 656.49 420.547 655.47C388.377 650.877 357.017 641.953 327.363 628.953C318.801 625.195 310.414 621.093 302.201 616.646C288.482 609.234 275.338 600.852 262.875 591.567C259.745 589.227 256.655 586.834 253.605 584.387C251.494 582.688 249.395 580.946 247.27 579.254C245.796 578.09 244.31 576.946 242.804 575.851V509.147H401.376C401.267 508.749 401.159 508.351 401.044 507.959C401.165 508.351 401.28 508.749 401.388 509.147H442.047V601.391C442.264 601.397 442.475 601.416 442.685 601.428Z" fill="#00A459"/>
<path id="Vector_13" opacity="0.1" d="M546.741 324.592H520.584V316.665H532.31V293.054C533.327 293.415 534.339 293.786 535.347 294.168V316.665H546.741V324.592Z" fill="#00A459"/>
<path id="Vector_14" opacity="0.1" d="M609.761 417.756H481.347C481.347 417.756 481.347 417.756 481.392 417.787L481.335 417.756H457.512V331.056H464.262V395.14H495.109V357.188H520.59V327.255H546.747V357.212H572.228V395.165H609.761V417.756Z" fill="#00A459"/>
<path id="Vector_15" opacity="0.1" d="M457.512 420.413V506.484H609.761V420.413H457.512ZM651.09 607.799L651.3 539.671H609.761V509.185H457.512V658.817C469.994 659.329 482.496 659.183 494.962 658.382V658.382H495.179C501.133 658.017 507.06 657.486 512.96 656.789H513.094C544.566 653.217 575.34 645.209 604.453 633.016" fill="#00A459"/>
<path id="Vector_16" opacity="0.1" d="M669.458 509.147H704.974C704.662 526.624 701.064 543.79 693.191 559.643C686.639 572.814 677.535 584.331 666.778 594.391V539.64H669.458V509.147Z" fill="#00A459"/>
<path id="Vector_17" opacity="0.1" d="M704.993 506.484H669.458V434.555H688.686C698.639 457.233 704.961 482.12 704.993 506.484Z" fill="#00A459"/>
<path id="Vector_18" opacity="0.1" d="M442.054 355.153H420.548V382.336H442.054V355.153Z" fill="#00A459"/>
<path id="Vector_19" opacity="0.1" d="M442.054 411.497H420.548V417.756H442.054V411.497Z" fill="#00A459"/>
<path id="Vector_20" opacity="0.1" d="M442.054 420.413H420.548V438.674H442.054V420.413Z" fill="#00A459"/>
<path id="Vector_21" opacity="0.1" d="M442.054 467.841H420.548V495.024H442.054V467.841Z" fill="#00A459"/>
<path id="Vector_22" opacity="0.1" d="M442.054 524.185H420.548V551.368H442.054V524.185Z" fill="#00A459"/>
<path id="Vector_23" opacity="0.1" d="M442.048 601.391C442.265 601.391 442.475 601.391 442.686 601.428H442.048V607.743H420.548V580.529H442.048V601.391Z" fill="#00A459"/>
<path id="Vector_24" opacity="0.1" d="M442.048 636.861V657.859C434.86 657.266 427.693 656.459 420.548 655.439V636.861H442.048Z" fill="#00A459"/>
<path id="Vector_25" opacity="0.1" d="M334.974 504.487H242.804V506.484H334.974V504.487Z" fill="#00A459"/>
<path id="Vector_26" opacity="0.1" d="M334.974 509.141H242.804V516.794H334.974V509.141Z" fill="#00A459"/>
<path id="Vector_27" opacity="0.1" d="M334.974 541.88H242.804V554.186H334.974V541.88Z" fill="#00A459"/>
<path id="Vector_28" opacity="0.1" d="M334.968 579.272V591.579H262.876C259.745 589.248 256.653 586.855 253.599 584.399C251.488 582.701 249.395 580.958 247.264 579.272H334.968Z" fill="#00A459"/>
<path id="Vector_29" opacity="0.1" d="M334.968 616.659V628.953H327.357C318.804 625.191 310.418 621.087 302.201 616.64L334.968 616.659Z" fill="#00A459"/>
<path id="Vector_30" opacity="0.1" d="M513.113 428.756H494.969V446.451H513.113V428.756Z" fill="#00A459"/>
<path id="Vector_31" opacity="0.1" d="M120.254 346.312H102.109V364.007H120.254V346.312Z" fill="#00A459"/>
<path id="Vector_32" opacity="0.1" d="M120.254 387.413H102.109V405.107H120.254V387.413Z" fill="#00A459"/>
<path id="Vector_33" opacity="0.1" d="M120.254 428.514H102.109V446.208H120.254V428.514Z" fill="#00A459"/>
<path id="Vector_34" opacity="0.1" d="M120.254 469.608H102.109V487.303H120.254V469.608Z" fill="#00A459"/>
<path id="Vector_35" opacity="0.1" d="M120.254 510.709H102.109V528.403H120.254V510.709Z" fill="#00A459"/>
<path id="Vector_36" opacity="0.1" d="M120.254 551.81H102.109V569.504H120.254V551.81Z" fill="#00A459"/>
<path id="Vector_37" opacity="0.1" d="M582.379 428.756H564.234V446.451H582.379V428.756Z" fill="#00A459"/>
<path id="Vector_38" opacity="0.1" d="M513.113 472.402H494.969V490.096H513.113V472.402Z" fill="#00A459"/>
<path id="Vector_39" opacity="0.1" d="M582.379 472.402H564.234V490.096H582.379V472.402Z" fill="#00A459"/>
<path id="Vector_40" opacity="0.1" d="M513.113 516.041H494.969V533.735H513.113V516.041Z" fill="#00A459"/>
<path id="Vector_41" opacity="0.1" d="M582.379 516.041H564.234V533.735H582.379V516.041Z" fill="#00A459"/>
<path id="Vector_42" opacity="0.1" d="M513.113 559.686H494.969V577.381H513.113V559.686Z" fill="#00A459"/>
<path id="Vector_43" opacity="0.1" d="M582.379 559.686H564.234V577.381H582.379V559.686Z" fill="#00A459"/>
<path id="Vector_44" opacity="0.1" d="M513.113 603.332H494.969V621.026H513.113V603.332Z" fill="#00A459"/>
<path id="Vector_45" opacity="0.1" d="M582.379 603.332H564.234V621.026H582.379V603.332Z" fill="#00A459"/>
<path id="Vector_46" opacity="0.1" d="M494.969 658.382V646.971H513.107V656.758L494.969 658.382Z" fill="#00A459"/>
<path id="Vector_47" opacity="0.1" d="M11.4834 395.638V405.761H73.5786V395.638H11.4834ZM17.6719 405.126H12.6063V396.26H17.7101L17.6719 405.126ZM23.8539 405.126H18.7501V396.26H23.8539V405.126ZM30.0233 405.126H24.9194V396.26H30.0233V405.126ZM36.2054 405.126H31.1078V396.26H36.2117L36.2054 405.126ZM42.3811 405.126H37.2772V396.26H42.3811V405.126ZM48.5631 405.126H43.4593V396.26H48.5631V405.126ZM54.7452 405.126H49.6413V396.26H54.7452V405.126ZM60.9209 405.126H55.817V396.26H60.9209V405.126ZM67.0966 405.126H61.9927V396.26H67.0966V405.126ZM73.2723 405.126H68.1684V396.26H73.2723V405.126Z" fill="#00A459"/>
<path id="Vector_48" opacity="0.1" d="M91.8354 458.023V544.094H230.132V458.023H91.8354ZM91.8354 546.751V620.665C92.6266 620.827 93.4113 620.983 94.1896 621.113C95.2487 621.312 96.3014 621.493 97.3795 621.648C97.5837 621.679 97.7942 621.711 98.0175 621.729C98.4386 621.798 98.8724 621.854 99.2935 621.91C100.359 622.053 101.418 622.171 102.483 622.264C102.987 622.314 103.498 622.358 104.008 622.395L105.24 622.488C105.909 622.538 106.573 622.575 107.23 622.594C107.638 622.594 108.047 622.631 108.468 622.644C108.787 622.644 109.106 622.644 109.437 622.644C109.769 622.644 110.241 622.644 110.643 622.644C111.192 622.644 111.741 622.644 112.283 622.644H113.017C113.565 622.644 114.114 622.644 114.656 622.594H114.694C115.071 622.594 115.454 622.594 115.836 622.544C115.943 622.55 116.049 622.55 116.155 622.544C116.474 622.544 116.793 622.544 117.1 622.501H117.323L119.46 622.339C120.162 622.277 120.87 622.196 121.585 622.121L123.039 621.953C128.957 621.145 134.809 619.93 140.552 618.32C153.452 614.811 166.071 609.902 178.965 606.306C195.636 601.67 214.054 599.393 230.164 605.061V546.751H91.8354ZM230.132 362.202V247.616C214.991 247.456 199.891 249.183 185.198 252.755C150.179 261.335 118.758 279.944 91.8354 303.712V362.196H98.7767V364.852H91.8354V455.366H230.132V364.859H127.276V362.202H230.132ZM407.766 323.497C399.102 323.198 390.489 320.523 382.7 316.391C367.803 308.49 355.904 296.289 342.609 285.992C314.984 264.546 280.724 251.604 245.577 248.394V362.202H443.002L443.493 361.698L407.766 323.497ZM425.751 320.386L444.82 340.793V315.035C438.434 315.807 432.839 317.642 425.776 320.361L425.751 320.386ZM444.82 639.019V546.751H404.187C404.078 546.359 403.97 545.961 403.842 545.563C403.964 545.961 404.066 546.359 404.181 546.751H245.603V613.479C247.108 614.568 248.595 615.713 250.069 616.876C251.657 618.121 253.227 619.433 254.803 620.721L256.391 622.003C257.15 622.625 257.916 623.247 258.688 623.832C260.219 625.043 261.765 626.238 263.326 627.416C264.098 628.038 264.889 628.598 265.674 629.183C278.132 638.472 291.274 646.854 304.993 654.263C308.068 655.922 311.171 657.542 314.301 659.122C316.387 660.161 318.486 661.194 320.592 662.195C323.756 663.701 326.946 665.153 330.161 666.551C359.806 679.528 391.154 688.433 423.307 693.012C430.449 694.04 437.617 694.849 444.814 695.438V639.013H445.452L444.82 639.019ZM245.603 364.859V455.366H444.846V364.859H245.603ZM245.603 458.023V544.094H444.846V458.023H245.603ZM460.311 314.923V343.655L484.65 317.611C476.586 316.342 468.473 315.435 460.311 314.892V314.923ZM460.311 458.054V544.094H654.099V458.023L460.311 458.054ZM653.391 645.851L654.073 546.751H460.311V696.427C472.793 696.939 485.294 696.793 497.76 695.992V695.992H497.977C503.932 695.627 509.859 695.096 515.758 694.399H515.892C547.364 690.827 578.138 682.819 607.251 670.626L653.391 645.851ZM691.466 472.196C690.738 470.522 689.979 468.861 689.207 467.219C687.765 464.108 686.24 461.084 684.671 458.06H669.551V544.094H707.779C707.76 519.73 701.437 494.843 691.485 472.165L691.466 472.196ZM669.551 546.782V632.02C680.32 621.953 689.418 610.437 695.97 597.272C703.849 581.419 707.453 564.253 707.747 546.77L669.551 546.782ZM669.551 432.974V455.372H683.255C679.109 447.662 674.541 440.175 669.57 432.943L669.551 432.974ZM538.126 331.809C537.118 331.436 536.11 331.056 535.095 330.689C524.397 326.836 513.464 323.632 502.36 321.095L465.115 360.958L464.4 361.698L464.879 362.208H597.439C578.977 349.815 559.073 339.6 538.145 331.778L538.126 331.809ZM601.325 364.89H463.028L460.311 367.316V455.366H484.133H484.171H654.124V412.716C638.75 394.584 621.006 378.494 601.344 364.859L601.325 364.89Z" fill="#00A459"/>
<path id="Vector_49" opacity="0.1" d="M76.3771 410.514V455.366H11.832C11.832 455.105 11.8767 454.837 11.8958 454.576C11.9532 453.861 12.0107 453.145 12.0745 452.436C12.1446 451.602 12.2212 450.762 12.3041 449.947C12.3871 449.132 12.4764 448.137 12.5721 447.234C12.6678 446.332 12.7571 445.418 12.8656 444.516C12.974 443.613 13.0697 442.711 13.1846 441.815C13.2994 440.919 13.4015 440.011 13.5227 439.115C13.6184 438.368 13.7205 437.628 13.8225 436.882C13.9693 435.83 14.1224 434.772 14.2883 433.727C14.2883 433.572 14.3329 433.41 14.3585 433.26C15.5229 425.609 17.1095 418.024 19.1114 410.539L76.3771 410.514Z" fill="#00A459"/>
<path id="Vector_50" opacity="0.1" d="M14.2817 433.248V443.371H76.3769V433.248H14.2817ZM20.4702 442.736H15.4046V433.87H20.5085L20.4702 442.736ZM26.6523 442.736H21.5484V433.87H26.6523V442.736ZM32.8216 442.736H27.7177V433.87H32.8216V442.736ZM39.0037 442.736H33.9062V433.87H39.0101L39.0037 442.736ZM45.1794 442.736H40.0755V433.87H45.1794V442.736ZM51.3615 442.736H46.2576V433.87H51.3615V442.736ZM57.5436 442.736H52.4397V433.87H57.5436V442.736ZM63.7193 442.736H58.6154V433.87H63.7193V442.736ZM69.895 442.736H64.7911V433.87H69.895V442.736ZM76.0707 442.736H70.9668V433.87H76.0707V442.736Z" fill="#00A459"/>
<path id="Vector_51" opacity="0.1" d="M11.4834 425.092V435.214H73.5786V425.092H11.4834ZM17.6719 434.573H12.6063V425.732H17.7101L17.6719 434.573ZM23.8539 434.573H18.7501V425.732H23.8539V434.573ZM30.0233 434.573H24.9194V425.732H30.0233V434.573ZM36.2054 434.573H31.1078V425.732H36.2117L36.2054 434.573ZM42.3811 434.573H37.2772V425.732H42.3811V434.573ZM48.5631 434.573H43.4593V425.732H48.5631V434.573ZM54.7452 434.573H49.6413V425.732H54.7452V434.573ZM60.9209 434.573H55.817V425.732H60.9209V434.573ZM67.0966 434.573H61.9927V425.732H67.0966V434.573ZM73.2723 434.573H68.1684V425.732H73.2723V434.573Z" fill="#00A459"/>
<path id="Vector_52" opacity="0.1" d="M11.4834 454.558V464.699H73.5786V454.558H11.4834ZM17.6719 464.04H12.6063V455.192H17.7101L17.6719 464.04ZM23.8539 464.04H18.7501V455.192H23.8539V464.04ZM30.0233 464.04H24.9194V455.192H30.0233V464.04ZM36.2054 464.04H31.1078V455.192H36.2117L36.2054 464.04ZM42.3811 464.04H37.2772V455.192H42.3811V464.04ZM48.5631 464.04H43.4593V455.192H48.5631V464.04ZM54.7452 464.04H49.6413V455.192H54.7452V464.04ZM60.9209 464.04H55.817V455.192H60.9209V464.04ZM67.0966 464.04H61.9927V455.192H67.0966V464.04ZM73.2723 464.04H68.1684V455.192H73.2723V464.04Z" fill="#00A459"/>
<path id="Vector_53" opacity="0.1" d="M11.4834 484.024V494.134H73.5786V484.024H11.4834ZM17.6719 493.506H12.6063V484.652H17.7101L17.6719 493.506ZM23.8539 493.506H18.7501V484.652H23.8539V493.506ZM30.0233 493.506H24.9194V484.652H30.0233V493.506ZM36.2054 493.506H31.1078V484.652H36.2117L36.2054 493.506ZM42.3811 493.506H37.2772V484.652H42.3811V493.506ZM48.5631 493.506H43.4593V484.652H48.5631V493.506ZM54.7452 493.506H49.6413V484.652H54.7452V493.506ZM60.9209 493.506H55.817V484.652H60.9209V493.506ZM67.0966 493.506H61.9927V484.652H67.0966V493.506ZM73.2723 493.506H68.1684V484.652H73.2723V493.506Z" fill="#00A459"/>
<path id="Vector_54" opacity="0.1" d="M11.7515 513.484C12.0003 514.436 12.281 515.387 12.5745 516.327V514.118H17.6783V522.966H14.9478C15.0307 523.171 15.1136 523.395 15.1966 523.588H73.5787V513.484H11.7515ZM23.8732 522.966H18.7693V514.118H23.8732V522.966ZM30.0425 522.966H24.9386V514.118H30.0425V522.966ZM36.2246 522.966H31.108V514.118H36.2118L36.2246 522.966ZM42.4003 522.966H37.2964V514.118H42.4003V522.966ZM48.5824 522.966H43.4785V514.118H48.5824V522.966ZM54.7645 522.966H49.6606V514.118H54.7645V522.966ZM60.9402 522.966H55.8363V514.118H60.9402V522.966ZM67.1159 522.966H62.012V514.118H67.1159V522.966ZM73.2916 522.966H68.1877V514.118H73.2916V522.966Z" fill="#00A459"/>
<path id="Vector_55" opacity="0.1" d="M26.1699 542.95C26.3294 543.149 26.4825 543.373 26.6484 543.572H30.0234V547.821C30.387 548.244 30.7443 548.668 31.1143 549.066V543.547H36.2182V552.425H34.1511C34.3553 552.631 34.5531 552.849 34.7891 553.048H73.5978V542.95H26.1699ZM42.3811 552.425H37.2773V543.584H42.3811V552.425ZM48.5632 552.425H43.4593V543.584H48.5632V552.425ZM54.7453 552.425H49.6414V543.584H54.7453V552.425ZM60.921 552.425H55.8171V543.584H60.921V552.425ZM67.0967 552.425H61.9928V543.584H67.0967V552.425ZM73.2724 552.425H68.1685V543.584H73.2724V552.425Z" fill="#00A459"/>
<path id="Vector_56" opacity="0.1" d="M60.2319 572.41C60.8125 572.733 61.4058 573.032 62.0055 573.356V573.044H67.1094V575.844L68.194 576.336V573.044H73.2979V578.426C73.3958 578.474 73.4984 578.511 73.6041 578.538V572.41H60.2319Z" fill="#00A459"/>
<path id="Vector_57" opacity="0.1" d="M481.347 417.756H481.386H481.347ZM442.047 601.384H442.685H442.047ZM401.044 507.953C401.165 508.351 401.267 508.749 401.382 509.141C401.28 508.749 401.172 508.351 401.044 507.953ZM481.347 417.737H481.386H481.347ZM96.0039 324.573V327.23H124.503V324.573H96.0039ZM442.047 601.384H442.685H442.047ZM401.044 507.953C401.165 508.351 401.267 508.749 401.382 509.141C401.28 508.749 401.172 508.351 401.044 507.953ZM481.347 417.737H481.386H481.347ZM442.047 601.366H442.685H442.047ZM401.044 507.953C401.165 508.351 401.267 508.749 401.382 509.141C401.28 508.749 401.172 508.351 401.044 507.953Z" fill="#00A459"/>
<path id="Vector_58" opacity="0.1" d="M84.68 683.219C119.013 683.219 146.845 678.859 146.845 673.482C146.845 668.104 119.013 663.745 84.68 663.745C50.347 663.745 22.5146 668.104 22.5146 673.482C22.5146 678.859 50.347 683.219 84.68 683.219Z" fill="#00A459"/>
<path id="Vector_59" d="M86.6828 486.954H82.6826V574.786H86.6828V486.954Z" fill="#535461"/>
<path id="Vector_60" d="M111.82 574.519L111.571 578.476L111.214 584.075L111.067 586.402L110.716 592.002L110.563 594.329L110.206 599.928L106.174 663.434C105.998 666.166 104.762 668.731 102.716 670.605C100.671 672.48 97.9692 673.524 95.1619 673.525H74.1977C71.3911 673.524 68.6904 672.48 66.6457 670.605C64.6011 668.73 63.3661 666.166 63.1924 663.434L59.1795 599.885L58.8222 594.285L58.6755 591.958L58.3182 586.359L58.1715 584.032L57.8142 578.432L57.559 574.475C57.5147 573.714 57.6304 572.951 57.8991 572.235C58.1677 571.518 58.5836 570.863 59.1213 570.309C59.6589 569.755 60.307 569.314 61.0257 569.013C61.7445 568.712 62.5187 568.557 63.3009 568.558H106.18C106.959 568.565 107.729 568.727 108.441 569.035C109.154 569.343 109.794 569.79 110.322 570.348C110.851 570.907 111.256 571.565 111.514 572.282C111.771 573 111.876 573.761 111.82 574.519V574.519Z" fill="#3F3D56"/>
<path id="Vector_61" d="M111.571 578.476L111.214 584.057H58.1458L57.7886 578.476H111.571Z" fill="#9D9CB5"/>
<path id="Vector_62" d="M111.067 586.384L110.716 591.971H58.6502L58.293 586.384H111.067Z" fill="#9D9CB5"/>
<path id="Vector_63" d="M110.563 594.304L110.212 599.885H59.1541L58.7969 594.304H110.563Z" fill="#9D9CB5"/>
<path id="Vector_64" d="M51.6831 519.874C74.9759 536.311 84.6988 562.02 84.6988 562.02C84.6988 562.02 56.6275 561.08 33.3282 544.642C10.029 528.204 0.325195 502.503 0.325195 502.503C0.325195 502.503 28.3838 503.436 51.6831 519.874Z" fill="#00A459"/>
<path id="Vector_65" d="M0.306152 502.503C0.306152 502.503 29.4494 518.275 38.7958 531.334C48.1423 544.393 84.6989 562.02 84.6989 562.02" stroke="#535461" stroke-width="2" stroke-miterlimit="10"/>
<path id="Vector_66" d="M66.7202 486.762C79.397 495.702 84.6987 509.695 84.6987 509.695C84.6987 509.695 69.4189 509.185 56.7357 500.244C44.0526 491.303 38.7637 477.305 38.7637 477.305C38.7637 477.305 54.0371 477.815 66.7202 486.762Z" fill="#00A459"/>
<path id="Vector_67" d="M38.7637 477.305C38.7637 477.305 54.624 485.89 59.7088 492.996C64.7935 500.101 84.6987 509.695 84.6987 509.695" stroke="#535461" stroke-width="2" stroke-miterlimit="10"/>
<path id="Vector_68" d="M103.105 508.985C88.5395 524.596 85.458 544.997 85.458 544.997C85.458 544.997 105.995 540.082 120.547 524.465C135.1 508.848 138.194 488.454 138.194 488.454C138.194 488.454 117.67 493.375 103.105 508.985Z" fill="#00A459"/>
<path id="Vector_69" d="M138.207 488.46C138.207 488.46 119.233 504.462 114.41 515.487C109.587 526.512 85.458 544.997 85.458 544.997" stroke="#535461" stroke-width="2" stroke-miterlimit="10"/>
<path id="Vector_70" d="M531.761 454.564L531.952 454.371L531.761 454.564Z" fill="#FFB0B1"/>
</g>
<g id="Group 29">
<path id="Vector_71" opacity="0.1" d="M597.391 711C640.594 711 675.618 703.165 675.618 693.5C675.618 683.835 640.594 676 597.391 676C554.187 676 519.163 683.835 519.163 693.5C519.163 703.165 554.187 711 597.391 711Z" fill="#00A459"/>
<path id="Vector_72" opacity="0.1" d="M334.806 720C448.181 720 540.09 707.912 540.09 693C540.09 678.088 448.181 666 334.806 666C221.43 666 129.521 678.088 129.521 693C129.521 707.912 221.43 720 334.806 720Z" fill="#00A459"/>
<g id="Frame_2" clip-path="url(#clip1)">
<path id="Path 22" d="M485.308 164.172H481.842V60.1865C481.842 52.2827 480.42 44.4563 477.658 37.1541C474.895 29.8519 470.847 23.217 465.743 17.6282C460.639 12.0394 454.579 7.60607 447.91 4.58142C441.242 1.55676 434.094 0 426.876 0H225.671C211.094 0 197.113 6.34106 186.805 17.6282C176.497 28.9154 170.706 44.224 170.706 60.1865V630.67C170.706 638.574 172.127 646.4 174.89 653.702C177.652 661.004 181.701 667.639 186.805 673.228C191.909 678.817 197.968 683.25 204.637 686.275C211.306 689.3 218.453 690.856 225.671 690.856H426.876C441.454 690.856 455.434 684.515 465.742 673.228C476.05 661.941 481.841 646.632 481.841 630.67V238.191H485.307L485.308 164.172Z" fill="#E6E6E6"/>
<path id="Path 23" d="M429.094 15.6526H402.832C404.04 18.8952 404.501 22.4132 404.175 25.8969C403.848 29.3805 402.744 32.7227 400.96 35.6291C399.176 38.5356 396.767 40.9169 393.944 42.5635C391.122 44.21 387.972 45.0711 384.774 45.071H269.506C266.308 45.0708 263.16 44.2095 260.337 42.5628C257.515 40.9162 255.105 38.5348 253.322 35.6284C251.538 32.722 250.434 29.3799 250.108 25.8964C249.781 22.4129 250.242 18.895 251.45 15.6526H226.92C216.033 15.6526 205.593 20.388 197.895 28.8172C190.197 37.2463 185.872 48.6787 185.872 60.5993V630.254C185.872 642.175 190.197 653.607 197.895 662.036C205.593 670.466 216.033 675.201 226.92 675.201H429.094C439.981 675.201 450.421 670.466 458.119 662.036C465.817 653.607 470.142 642.175 470.142 630.254V630.254V60.5983C470.142 48.6779 465.817 37.2458 458.119 28.8168C450.421 20.3879 439.98 15.6526 429.094 15.6526V15.6526Z" fill="white"/>
<path id="Path 8" d="M388.348 313.412H267.628C266.479 313.411 265.377 312.91 264.565 312.021C263.752 311.131 263.295 309.924 263.293 308.666V176.481C263.295 175.222 263.752 174.016 264.565 173.126C265.377 172.236 266.479 171.736 267.628 171.734H388.348C389.497 171.736 390.599 172.236 391.411 173.126C392.224 174.016 392.681 175.222 392.682 176.481V308.666C392.681 309.924 392.224 311.131 391.411 312.021C390.599 312.91 389.497 313.411 388.348 313.412V313.412ZM267.628 173.634C266.939 173.635 266.278 173.935 265.79 174.469C265.302 175.003 265.028 175.727 265.028 176.482V308.667C265.028 309.422 265.302 310.146 265.79 310.68C266.278 311.213 266.939 311.514 267.628 311.514H388.348C389.037 311.514 389.698 311.213 390.186 310.68C390.673 310.146 390.948 309.422 390.948 308.667V176.482C390.948 175.727 390.673 175.003 390.186 174.469C389.698 173.935 389.037 173.635 388.348 173.634H267.628Z" fill="#CCCCCC"/>
<path id="Rectangle 1" d="M415.302 414.739H230.155V416.637H415.302V414.739Z" fill="#CCCCCC"/>
<path id="Ellipse 2" d="M236.002 402.884C239.232 402.884 241.849 400.017 241.849 396.481C241.849 392.945 239.232 390.079 236.002 390.079C232.773 390.079 230.155 392.945 230.155 396.481C230.155 400.017 232.773 402.884 236.002 402.884Z" fill="#00A459"/>
<path id="Rectangle 2" d="M415.302 478.759H230.155V480.658H415.302V478.759Z" fill="#CCCCCC"/>
<path id="Ellipse 3" d="M236.002 466.905C239.232 466.905 241.849 464.038 241.849 460.503C241.849 456.967 239.232 454.1 236.002 454.1C232.773 454.1 230.155 456.967 230.155 460.503C230.155 464.038 232.773 466.905 236.002 466.905Z" fill="#00A459"/>
<path id="Vector_73" d="M411.914 551.662H353.403C352.392 551.661 351.423 551.221 350.708 550.438C349.993 549.656 349.591 548.595 349.59 547.488V525.032C349.591 523.926 349.993 522.865 350.708 522.082C351.423 521.3 352.392 520.859 353.403 520.858H411.914C412.925 520.859 413.894 521.3 414.608 522.082C415.323 522.865 415.725 523.926 415.726 525.032V547.488C415.725 548.595 415.323 549.656 414.608 550.438C413.894 551.221 412.925 551.661 411.914 551.662V551.662Z" fill="#00A459"/>
<path id="Ellipse 7" d="M255.075 402.884C258.304 402.884 260.922 400.017 260.922 396.481C260.922 392.945 258.304 390.079 255.075 390.079C251.846 390.079 249.228 392.945 249.228 396.481C249.228 400.017 251.846 402.884 255.075 402.884Z" fill="#00A459"/>
<path id="Ellipse 8" d="M274.148 402.884C277.377 402.884 279.995 400.017 279.995 396.481C279.995 392.945 277.377 390.079 274.148 390.079C270.919 390.079 268.301 392.945 268.301 396.481C268.301 400.017 270.919 402.884 274.148 402.884Z" fill="#00A459"/>
<path id="Ellipse 9" d="M255.075 466.905C258.304 466.905 260.922 464.038 260.922 460.503C260.922 456.967 258.304 454.1 255.075 454.1C251.846 454.1 249.228 456.967 249.228 460.503C249.228 464.038 251.846 466.905 255.075 466.905Z" fill="#00A459"/>
<path id="Ellipse 10" d="M274.148 466.905C277.377 466.905 279.995 464.038 279.995 460.503C279.995 456.967 277.377 454.1 274.148 454.1C270.919 454.1 268.301 456.967 268.301 460.503C268.301 464.038 270.919 466.905 274.148 466.905Z" fill="#00A459"/>
<path id="Path 88" d="M673.644 693H65.3998C64.0977 693 63.043 692.493 63.043 691.87C63.043 691.247 64.0977 690.739 65.3998 690.739H673.644C674.945 690.739 676 691.246 676 691.87C676 692.494 674.945 693 673.644 693Z" fill="#3F3D56"/>
<path id="Vector_74" d="M523.367 454.032C523.783 454.24 524.183 454.484 524.563 454.762L562.559 437.005L563.916 426.045L579.098 425.943L578.201 451.08L528.05 465.602C527.944 465.984 527.818 466.358 527.671 466.723C526.945 468.417 525.779 469.839 524.319 470.81C522.858 471.781 521.168 472.257 519.461 472.18C517.754 472.103 516.106 471.475 514.723 470.375C513.341 469.275 512.286 467.753 511.692 465.999C511.097 464.245 510.989 462.337 511.381 460.516C511.773 458.695 512.647 457.042 513.895 455.763C515.142 454.485 516.707 453.638 518.392 453.33C520.078 453.022 521.808 453.266 523.367 454.032V454.032Z" fill="#FFB8B8"/>
<path id="Vector_75" d="M584.62 681.817H574.234L569.293 637.952L584.621 637.953L584.62 681.817Z" fill="#FFB8B8"/>
<path id="Vector_76" d="M566.815 678.567H586.845V692.376H554.203C554.203 688.714 555.532 685.201 557.897 682.612C560.262 680.022 563.47 678.567 566.815 678.567Z" fill="#2F2E41"/>
<path id="Vector_77" d="M625.012 678.603L614.676 679.718L605.831 636.595L621.086 634.95L625.012 678.603Z" fill="#FFB8B8"/>
<path id="Vector_78" d="M607.002 677.281L626.936 675.131L628.172 688.874L595.688 692.377C595.526 690.572 595.689 688.75 596.17 687.015C596.651 685.28 597.439 683.665 598.49 682.263C599.54 680.861 600.833 679.7 602.294 678.845C603.754 677.99 605.354 677.458 607.002 677.281Z" fill="#2F2E41"/>
<path id="Vector_79" d="M587.511 379.52C599.002 379.52 608.318 369.319 608.318 356.736C608.318 344.154 599.002 333.953 587.511 333.953C576.019 333.953 566.704 344.154 566.704 356.736C566.704 369.319 576.019 379.52 587.511 379.52Z" fill="#FFB8B8"/>
<path id="Vector_80" d="M571.912 672.946C571.02 672.948 570.155 672.606 569.471 671.978C568.787 671.351 568.327 670.479 568.172 669.516C562.796 636.84 545.225 529.998 544.804 527.038C544.795 526.97 544.791 526.902 544.791 526.833V518.867C544.79 518.576 544.873 518.293 545.028 518.058L547.349 514.498C547.459 514.326 547.604 514.185 547.772 514.085C547.94 513.984 548.127 513.927 548.318 513.918C561.552 513.238 604.894 511.247 606.988 514.112C609.091 516.991 608.348 525.713 608.178 527.433L608.186 527.612L627.658 663.967C627.811 665.054 627.566 666.164 626.977 667.055C626.388 667.946 625.502 668.548 624.511 668.73L612.349 670.924C611.443 671.083 610.515 670.881 609.734 670.355C608.953 669.828 608.37 669.012 608.092 668.055C604.33 654.893 591.717 610.619 587.346 593.487C587.318 593.379 587.256 593.285 587.17 593.223C587.084 593.161 586.98 593.136 586.879 593.152C586.777 593.167 586.684 593.223 586.617 593.309C586.55 593.394 586.514 593.503 586.515 593.616C586.733 609.947 587.261 651.613 587.443 666.004L587.463 667.554C587.471 668.603 587.119 669.618 586.477 670.397C585.835 671.176 584.95 671.663 583.996 671.762L572.268 672.929C572.149 672.94 572.03 672.946 571.912 672.946Z" fill="#2F2E41"/>
<path id="Path 99" d="M574.305 388.478C570.674 390.842 568.501 395.185 567.254 399.605C564.946 407.788 563.556 416.248 563.117 424.798L561.799 450.401L545.487 518.274C559.625 531.373 567.78 528.396 586.811 517.682C605.843 506.968 608.017 521.254 608.017 521.254L611.823 463.502L617.261 400.395C616.04 398.785 614.659 397.331 613.142 396.059C608.116 391.779 602.269 388.805 596.041 387.36C589.813 385.914 583.366 386.036 577.187 387.714L574.305 388.478Z" fill="#00A459"/>
<path id="Vector_81" d="M569.007 467.74C569.446 467.921 569.871 468.139 570.278 468.393L607.848 447.802L608.471 436.647L623.969 435.477L624.8 460.906L574.592 479.086C574.182 481.012 573.247 482.755 571.91 484.084C570.573 485.413 568.899 486.265 567.109 486.526C565.32 486.788 563.5 486.446 561.891 485.548C560.283 484.649 558.963 483.235 558.106 481.495C557.249 479.755 556.897 477.77 557.095 475.805C557.294 473.84 558.034 471.988 559.217 470.495C560.401 469.001 561.971 467.938 563.72 467.446C565.469 466.954 567.313 467.056 569.007 467.74Z" fill="#FFB8B8"/>
<path id="Path 101" d="M616.988 400.683C626.232 404.256 627.86 442.958 627.86 442.958C616.986 436.409 603.936 447.126 603.936 447.126C603.936 447.126 601.217 437.005 597.954 423.906C596.969 420.222 596.851 416.324 597.612 412.577C598.372 408.829 599.987 405.353 602.304 402.472C602.304 402.472 607.745 397.109 616.988 400.683Z" fill="#00A459"/>
<path id="Path 102" d="M606.167 362.762C603.575 360.49 600.038 364.618 600.038 364.618L597.963 344.18C597.963 344.18 585.001 345.88 576.705 343.612C568.41 341.345 567.114 351.845 567.114 351.845C566.686 347.604 566.599 343.329 566.854 339.071C567.373 333.961 574.113 328.852 586.038 325.445C597.963 322.038 604.185 336.8 604.185 336.8C612.482 341.341 608.759 365.033 606.167 362.762Z" fill="#2F2E41"/>
<path id="Vector_82" d="M351.079 193H350.839C341.296 193 332.856 198.251 328.002 206C323.147 198.251 314.707 193 305.164 193H304.924C297.763 193.071 290.917 196.078 285.876 201.368C280.834 206.658 278.004 213.804 278 221.252C278 230.5 281.895 243.624 289.491 254.422C303.962 274.998 328.002 293 328.002 293C328.002 293 352.041 275.001 366.509 254.422C374.108 243.624 378 230.5 378 221.252C377.996 213.804 375.166 206.659 370.125 201.369C365.085 196.08 358.24 193.072 351.079 193V193ZM347.647 256.005C346.56 256.001 345.5 255.655 344.606 255.013C343.712 254.37 343.025 253.462 342.636 252.407H336.931C336.555 252.404 336.189 252.28 335.885 252.051C335.58 251.822 335.352 251.5 335.232 251.13L333.48 245.639L327.934 265.789C327.826 266.177 327.6 266.518 327.29 266.761C326.98 267.004 326.602 267.136 326.214 267.136H326.102C325.697 267.116 325.311 266.951 325.008 266.671C324.705 266.39 324.504 266.009 324.439 265.593L318.724 229.849L314.547 251C314.452 251.402 314.229 251.759 313.916 252.014C313.602 252.269 313.215 252.407 312.817 252.407H304.781C304.54 252.417 304.299 252.377 304.074 252.289C303.848 252.2 303.642 252.065 303.468 251.891C303.294 251.718 303.155 251.509 303.061 251.279C302.966 251.048 302.917 250.8 302.917 250.549C302.917 250.299 302.966 250.05 303.061 249.82C303.155 249.589 303.294 249.381 303.468 249.207C303.642 249.034 303.848 248.899 304.074 248.81C304.299 248.721 304.54 248.681 304.781 248.692H311.41L317.326 220.254C317.424 219.834 317.658 219.461 317.99 219.201C318.322 218.94 318.73 218.808 319.146 218.826C319.561 218.844 319.958 219.011 320.268 219.3C320.577 219.588 320.781 219.98 320.844 220.407L326.681 256.87L331.651 238.841C331.754 238.462 331.973 238.127 332.274 237.887C332.576 237.647 332.944 237.515 333.323 237.511H333.358C333.734 237.511 334.1 237.635 334.405 237.864C334.709 238.093 334.936 238.417 335.053 238.788L338.223 248.702H342.566C342.874 247.726 343.436 246.858 344.189 246.194C344.943 245.53 345.858 245.095 346.833 244.937C347.809 244.779 348.808 244.905 349.72 245.3C350.631 245.695 351.42 246.345 351.999 247.177C352.578 248.009 352.925 248.991 353.001 250.015C353.077 251.039 352.879 252.065 352.43 252.98C351.981 253.894 351.298 254.662 350.455 255.198C349.613 255.735 348.644 256.018 347.657 256.018L347.647 256.005Z" fill="#00A459"/>
<g id="Group 33">
<ellipse id="Ellipse 12" rx="36.818" ry="35.7954" transform="matrix(0.590649 0.806929 -0.814074 0.580761 108.363 79.3626)" fill="#00A459"/>
<path id="Vector 2" d="M109.018 56.9608L92.193 60.8608L97.5736 73.7107L85.0462 78.8263L92.3581 98.8407L104.755 92.7176L110.18 103.12L127.759 94.9882L121.239 82.6653L134.905 77.0227L128.527 64.3428L114.126 69.1601L109.018 56.9608Z" fill="white" stroke="black"/>
</g>
<g id="Group 32">
<ellipse id="Ellipse 12_2" rx="36.818" ry="35.7954" transform="matrix(0.628114 0.778121 -0.785725 0.618575 599.825 251.825)" fill="#00A459"/>
<path id="Vector 2_2" d="M599.421 229.417L582.799 234.108L588.78 246.689L576.509 252.391L584.758 272.037L596.852 265.335L602.762 275.47L619.937 266.517L612.842 254.516L626.227 248.234L619.257 235.869L605.1 241.362L599.421 229.417Z" fill="white" stroke="black"/>
</g>
</g>
</g>
</g>
<defs>
<clipPath id="clip0">
<rect width="705" height="487" fill="white" transform="translate(0 210)"/>
</clipPath>
<clipPath id="clip1">
<rect width="631" height="693" fill="white" transform="translate(45)"/>
</clipPath>
</defs>
</svg>
