<svg width="271" height="266" viewBox="0 0 271 266" fill="none" xmlns="http://www.w3.org/2000/svg">
<rect width="271" height="266" rx="40" fill="#00A459"/>
<path d="M235.031 99.5172C234.984 99.2657 234.945 99.0151 234.875 98.7701C234.836 98.6221 234.789 98.4831 234.742 98.3375C234.68 98.1201 234.61 97.9034 234.524 97.6916C234.462 97.5436 234.4 97.4013 234.33 97.259C234.244 97.0585 234.151 96.8604 234.042 96.668C233.964 96.5265 233.878 96.3923 233.792 96.2556C233.683 96.0721 233.559 95.891 233.434 95.7147C233.341 95.5838 233.24 95.4584 233.138 95.3331C233.006 95.1658 232.858 95.0073 232.718 94.8512C232.601 94.734 232.492 94.6168 232.375 94.5028C232.219 94.3548 232.056 94.2158 231.885 94.0815C231.76 93.9789 231.635 93.8729 231.495 93.7775C231.448 93.742 231.41 93.6999 231.355 93.666L140.251 30.6013C137.377 28.6082 133.624 28.6082 130.75 30.6011L39.6381 93.6633C39.5861 93.6965 39.5459 93.7385 39.4949 93.7749C39.3606 93.8727 39.2345 93.9754 39.1056 94.0789C38.9392 94.2155 38.7754 94.3546 38.6196 94.4969C38.5015 94.6085 38.3888 94.7249 38.2787 94.8453C38.1284 95.0014 37.9888 95.1599 37.8519 95.3272C37.7499 95.4525 37.6532 95.5779 37.5592 95.7177C37.4304 95.8932 37.3122 96.0719 37.1968 96.2586C37.1136 96.3953 37.0303 96.5287 36.9525 96.671C36.8451 96.8634 36.7511 97.0607 36.6625 97.2563C36.5981 97.3986 36.5283 97.5433 36.4719 97.6881C36.3887 97.8999 36.3162 98.1174 36.2491 98.3349C36.2035 98.4796 36.1552 98.6219 36.1176 98.7529C36.0558 98.9979 36.0102 99.2461 35.9672 99.4999C35.9431 99.6285 35.9135 99.7538 35.8974 99.8848C35.8491 100.269 35.8223 100.654 35.8223 101.047L35.8223 164.119C35.8223 164.516 35.8491 164.904 35.9028 165.284C35.9216 165.421 35.9565 165.534 35.9833 165.672C36.0263 165.922 36.0639 166.173 36.1444 166.424C36.182 166.561 36.225 166.699 36.2787 166.852C36.3458 167.079 36.4129 167.297 36.4934 167.507C36.5498 167.644 36.6276 167.782 36.6814 167.919C36.7699 168.121 36.8693 168.316 36.9767 168.518C37.0518 168.655 37.1377 168.793 37.2183 168.922C37.3337 169.116 37.4599 169.286 37.5941 169.456C37.6881 169.593 37.782 169.706 37.8894 169.836C38.0263 170.005 38.1579 170.175 38.319 170.321C38.4291 170.434 38.5337 170.571 38.668 170.652C38.8237 170.79 38.9902 170.935 39.1512 171.081C39.2801 171.186 39.4197 171.275 39.5271 171.38C39.5781 171.412 39.6076 171.469 39.6613 171.493L130.75 234.589C132.191 235.592 133.834 236.093 135.5 236.085C137.167 236.077 138.81 235.584 140.251 234.589L231.363 171.525C231.417 171.493 231.456 171.453 231.503 171.412C231.643 171.315 231.768 171.218 231.892 171.113C232.063 170.976 232.227 170.83 232.383 170.684C232.5 170.579 232.609 170.458 232.725 170.345C232.873 170.183 233.014 170.03 233.146 169.86C233.247 169.73 233.348 169.609 233.442 169.472C233.566 169.302 233.691 169.116 233.8 168.938C233.886 168.801 233.971 168.663 234.049 168.526C234.158 168.332 234.252 168.138 234.337 167.936C234.407 167.79 234.47 167.653 234.532 167.507C234.618 167.289 234.688 167.07 234.75 166.852C234.797 166.707 234.844 166.569 234.883 166.424C234.945 166.181 234.992 165.93 235.038 165.68C235.054 165.55 235.093 165.421 235.101 165.292C235.155 164.904 235.178 164.524 235.178 164.127V101.064C235.178 100.671 235.147 100.286 235.101 99.901C235.085 99.7643 235.038 99.6536 235.015 99.5169H235.03L235.031 99.5172ZM135.5 153.633L105.201 132.596L135.5 111.558L165.793 132.596L135.5 153.633ZM126.934 96.1052L89.7941 121.899L59.8151 101.075L126.934 54.6189V96.1052ZM74.3868 132.596L52.9583 147.472V117.711L74.3868 132.596ZM89.7941 143.3L126.934 169.092V210.577L59.8151 164.111L89.7941 143.3ZM144.067 169.084L181.204 143.3L211.186 164.111L144.067 210.569V169.084ZM196.608 132.596L218.039 117.711V147.48L196.608 132.596ZM181.204 121.899L144.067 96.1077V54.6189L211.186 101.075L181.204 121.899Z" fill="white"/>
</svg>
