<svg width="739" height="518" viewBox="0 0 739 518" fill="none" xmlns="http://www.w3.org/2000/svg">
<g clip-path="url(#clip0)">
<path opacity="0.1" d="M245.959 517.709C281.928 517.709 311.086 513.072 311.086 507.352C311.086 501.632 281.928 496.995 245.959 496.995C209.99 496.995 180.831 501.632 180.831 507.352C180.831 513.072 209.99 517.709 245.959 517.709Z" fill="#00A459"/>
<path opacity="0.1" d="M599.983 518C644.867 518 681.252 513.363 681.252 507.643C681.252 501.923 644.867 497.286 599.983 497.286C555.099 497.286 518.714 501.923 518.714 507.643C518.714 513.363 555.099 518 599.983 518Z" fill="#00A459"/>
<path opacity="0.1" d="M9.65685 223.813H77.4914V315.357H14.623C14.4559 316.297 14.2955 317.243 14.1217 318.189H77.4914V392.017C77.3778 391.984 77.2775 391.944 77.1706 391.905C75.3793 391.203 73.6014 390.462 71.8235 389.668L70.6872 389.158C68.9049 388.325 67.1225 387.442 65.3401 386.511C64.7185 386.187 64.0969 385.849 63.482 385.505C53.5871 380.017 44.5981 373.063 36.8268 364.884C36.5995 364.666 36.3856 364.434 36.1584 364.223C35.0756 363.058 34.0129 361.88 32.9835 360.675L31.8473 359.352C30.6308 357.876 29.4545 356.361 28.3115 354.825C28.1444 354.6 27.984 354.375 27.8102 354.164C23.1619 347.782 19.3023 340.873 16.314 333.582C16.2204 333.364 16.1402 333.126 16.0533 332.921C15.1354 330.582 14.3222 328.222 13.6137 325.84C13.3062 324.84 13.0121 323.854 12.7582 322.815C12.6646 322.511 12.5844 322.213 12.5109 321.915C8.71442 307.244 8.2666 292.003 8.2666 276.868C8.2666 275.101 8.2666 273.327 8.2666 271.574C8.2666 265.452 8.34012 259.291 8.44707 253.137C8.44707 251.542 8.5139 249.953 8.54732 248.352C8.6409 244.289 8.77458 240.225 8.94836 236.162C8.98846 235.03 9.04193 233.905 9.10208 232.78C9.10208 232.132 9.13551 231.483 9.20234 230.835C9.36276 228.479 9.49643 226.143 9.65685 223.813Z" fill="#00A459"/>
<path opacity="0.1" d="M77.4913 121.886H40.2822C46.3308 112.513 52.9395 103.505 60.0732 94.9122C65.6007 88.1886 71.4357 81.637 77.4913 75.3236V121.886Z" fill="#00A459"/>
<path opacity="0.1" d="M77.4918 124.719V220.981H9.87109C9.87109 220.703 9.91788 220.418 9.93793 220.141C9.99809 219.379 10.0582 218.618 10.1251 217.864C10.1986 216.977 10.2788 216.084 10.3657 215.217C10.4526 214.35 10.5462 213.291 10.6464 212.332C10.7467 211.372 10.8403 210.399 10.9539 209.44C11.0675 208.48 11.1678 207.52 11.2881 206.567C11.4084 205.614 11.5153 204.648 11.6423 203.695C11.7426 202.901 11.8495 202.114 11.9565 201.32C12.1102 200.201 12.2706 199.076 12.4444 197.964C12.4444 197.799 12.4912 197.627 12.5179 197.468C13.7378 189.329 15.4001 181.261 17.4974 173.3C19.6928 164.948 22.4962 156.765 25.8856 148.814C29.488 140.497 33.7059 132.454 38.5048 124.752L77.4918 124.719Z" fill="#00A459"/>
<path opacity="0.1" d="M93.6865 223.807V315.357H238.573V223.807H93.6865ZM93.6865 318.183V396.802C94.5153 396.974 95.3374 397.14 96.1529 397.279C97.2624 397.49 98.3652 397.682 99.4948 397.848C99.7087 397.881 99.9293 397.914 100.163 397.934C100.604 398.007 101.059 398.066 101.5 398.126C102.616 398.278 103.726 398.404 104.842 398.503C105.37 398.556 105.905 398.602 106.439 398.642L107.729 398.741C108.431 398.794 109.126 398.834 109.815 398.854C110.242 398.854 110.67 398.893 111.111 398.906C111.446 398.906 111.78 398.906 112.127 398.906C112.475 398.906 112.969 398.906 113.391 398.906C113.965 398.906 114.54 398.906 115.108 398.906H115.877C116.452 398.906 117.027 398.907 117.595 398.854H117.635C118.029 398.854 118.43 398.854 118.831 398.801C118.943 398.807 119.054 398.807 119.165 398.801C119.5 398.801 119.834 398.801 120.155 398.754H120.389L122.628 398.582C123.363 398.516 124.105 398.43 124.853 398.351L126.377 398.172C132.577 397.312 138.708 396.02 144.725 394.307C158.239 390.575 171.46 385.353 184.968 381.528C202.433 376.598 221.729 374.176 238.606 380.205V318.183H93.6865ZM238.573 121.886V0.00667222C222.71 -0.163487 206.891 1.67348 191.498 5.47296C154.81 14.5989 121.892 34.3927 93.6865 59.6726V121.88H100.959V124.705H93.6865V220.981H238.573V124.712H130.815V121.886H238.573ZM424.672 80.7171C415.595 80.3995 406.572 77.5538 398.411 73.1596C382.804 64.755 370.338 51.7776 356.409 40.8251C327.468 18.0136 291.576 4.24867 254.754 0.833895V121.886H461.587L462.101 121.35L424.672 80.7171ZM443.513 77.4082L463.491 99.1145V71.7169C456.801 72.5375 450.939 74.4898 443.54 77.3817L443.513 77.4082ZM463.491 416.324V318.183H420.922C420.808 317.766 420.695 317.342 420.561 316.919C420.688 317.342 420.795 317.766 420.915 318.183H254.781V389.159C256.358 390.317 257.916 391.534 259.46 392.772C261.124 394.095 262.768 395.492 264.419 396.862L266.083 398.225C266.879 398.887 267.681 399.548 268.49 400.171C270.094 401.459 271.713 402.729 273.349 403.982C274.158 404.644 274.986 405.24 275.808 405.862C288.86 415.742 302.628 424.658 317.001 432.538C320.223 434.303 323.473 436.026 326.753 437.707C328.939 438.812 331.138 439.91 333.343 440.976C336.658 442.577 340 444.121 343.369 445.608C374.426 459.412 407.267 468.884 440.953 473.754C448.435 474.848 455.945 475.708 463.485 476.335V416.318H464.153L463.491 416.324ZM254.781 124.712V220.981H463.518V124.712H254.781ZM254.781 223.807V315.357H463.518V223.807H254.781ZM479.72 71.5978V102.159L505.219 74.4567C496.77 73.1067 488.271 72.1427 479.72 71.5647V71.5978ZM479.72 223.84V315.357H682.742V223.807L479.72 223.84ZM682 423.591L682.715 318.183H479.72V477.387C492.797 477.931 505.894 477.776 518.954 476.923H519.181C525.42 476.535 531.629 475.971 537.809 475.229H537.95C570.922 471.43 603.162 462.912 633.663 449.943L682 423.591ZM721.89 238.882C721.128 237.102 720.332 235.335 719.524 233.588C718.013 230.279 716.416 227.063 714.771 223.846H698.931V315.357H738.98C738.96 289.442 732.336 262.971 721.91 238.849L721.89 238.882ZM698.931 318.216V408.879C710.213 398.172 719.744 385.922 726.608 371.919C734.863 355.057 738.639 336.799 738.947 318.203L698.931 318.216ZM698.931 197.164V220.988H713.288C708.944 212.786 704.158 204.822 698.951 197.13L698.931 197.164ZM561.243 89.5585C560.187 89.1614 559.131 88.7577 558.068 88.3673C546.86 84.2691 535.406 80.861 523.773 78.1626L484.753 120.563L484.004 121.35L484.506 121.893H623.383C604.041 108.711 583.189 97.8456 561.263 89.5254L561.243 89.5585ZM627.453 124.745H482.567L479.72 127.326V220.981H504.677H504.717H682.769V175.616C666.662 156.329 648.072 139.215 627.473 124.712L627.453 124.745Z" fill="#00A459"/>
<path opacity="0.1" d="M77.4918 173.273V220.981H9.87109C9.87109 220.703 9.91788 220.418 9.93793 220.14C9.99809 219.379 10.0582 218.618 10.1251 217.864C10.1986 216.977 10.2788 216.084 10.3657 215.217C10.4526 214.35 10.5462 213.291 10.6464 212.331C10.7467 211.372 10.8403 210.399 10.9539 209.439C11.0675 208.48 11.1678 207.52 11.2881 206.567C11.4084 205.614 11.5153 204.648 11.6423 203.695C11.7426 202.901 11.8495 202.114 11.9565 201.319C12.1102 200.201 12.2706 199.076 12.4444 197.964C12.4444 197.799 12.4912 197.627 12.5179 197.468C13.7378 189.329 15.4001 181.261 17.4974 173.3L77.4918 173.273Z" fill="#00A459"/>
<path opacity="0.1" d="M9.65685 223.813H77.4914V315.357H14.623C14.4559 316.297 14.2955 317.243 14.1217 318.189H77.4914V392.017C77.3778 391.984 77.2775 391.944 77.1706 391.905C75.3793 391.203 73.6014 390.462 71.8235 389.668L70.6872 389.158C68.9049 388.325 67.1225 387.442 65.3401 386.511C64.7185 386.187 64.0969 385.849 63.482 385.505C53.5871 380.017 44.5981 373.063 36.8268 364.884C36.5995 364.666 36.3856 364.434 36.1584 364.223C35.0756 363.058 34.0129 361.88 32.9835 360.675L31.8473 359.352C30.6308 357.876 29.4545 356.361 28.3115 354.825C28.1444 354.6 27.984 354.375 27.8102 354.164C23.1619 347.782 19.3023 340.873 16.314 333.582C16.2204 333.364 16.1402 333.126 16.0533 332.921C15.1354 330.582 14.3222 328.222 13.6137 325.84C13.3062 324.84 13.0121 323.854 12.7582 322.815C12.6646 322.511 12.5844 322.213 12.5109 321.915C8.71442 307.244 8.2666 292.003 8.2666 276.868C8.2666 275.101 8.2666 273.327 8.2666 271.574C8.2666 265.452 8.34012 259.291 8.44707 253.137C8.44707 251.542 8.5139 249.953 8.54732 248.352C8.6409 244.289 8.77458 240.225 8.94836 236.162C8.98846 235.03 9.04193 233.905 9.10208 232.78C9.10208 232.132 9.13551 231.483 9.20234 230.835C9.36276 228.479 9.49643 226.143 9.65685 223.813Z" fill="#00A459"/>
<path opacity="0.1" d="M144.691 138.497V220.981H93.6865V138.497H100.959V110.57H130.809V138.497H144.691Z" fill="#00A459"/>
<path opacity="0.1" d="M144.691 223.807H93.6934V315.35H144.691V223.807Z" fill="#00A459"/>
<path opacity="0.1" d="M93.6865 318.189H144.691V394.294C138.675 396.005 132.544 397.295 126.344 398.152L124.82 398.337C124.071 398.423 123.329 398.496 122.594 398.569C121.859 398.642 121.097 398.695 120.355 398.741H120.121C119.8 398.741 119.453 398.781 119.139 398.787H118.798C118.397 398.787 117.996 398.827 117.595 398.84C117.027 398.873 116.458 398.88 115.877 398.887C115.63 398.887 115.396 398.887 115.148 398.887C114.574 398.887 114.005 398.887 113.431 398.887H112.167C111.827 398.887 111.499 398.887 111.145 398.887L109.855 398.84C109.186 398.84 108.465 398.767 107.769 398.721L106.486 398.628L104.889 398.483C103.766 398.384 102.65 398.258 101.547 398.106L100.21 397.92L99.5416 397.828C98.4254 397.656 97.3225 397.47 96.1997 397.259C95.3775 397.12 94.5621 396.948 93.7333 396.782L93.6865 318.189Z" fill="#00A459"/>
<path opacity="0.1" d="M463.518 128.755H421.463V220.974H463.518V128.755Z" fill="#00A459"/>
<path opacity="0.1" d="M463.524 223.807V315.357H254.78V275.869H365.966V299.163H421.463V223.807H463.524Z" fill="#00A459"/>
<path opacity="0.1" d="M464.186 416.344H463.517V476.401C455.987 475.77 448.479 474.912 440.993 473.826C407.29 468.941 374.435 459.449 343.368 445.621C334.398 441.624 325.611 437.261 317.007 432.531C302.634 424.648 288.864 415.732 275.808 405.855C272.528 403.367 269.291 400.821 266.096 398.218C263.884 396.412 261.685 394.559 259.459 392.759C257.915 391.521 256.358 390.303 254.78 389.139V318.19H420.908C420.794 317.766 420.68 317.343 420.56 316.926C420.687 317.343 420.808 317.766 420.921 318.19H463.517V416.305C463.745 416.311 463.965 416.331 464.186 416.344Z" fill="#00A459"/>
<path opacity="0.1" d="M573.201 121.886H545.797V113.455H558.082V88.3407C559.147 88.7245 560.207 89.1194 561.263 89.5253V113.455H573.201V121.886Z" fill="#00A459"/>
<path opacity="0.1" d="M639.224 220.981H504.691C504.691 220.981 504.691 220.981 504.737 221.014L504.677 220.981H479.72V128.762H486.791V196.925H519.108V156.557H545.803V124.719H573.207V156.583H599.902V196.952H639.224V220.981Z" fill="#00A459"/>
<path opacity="0.1" d="M479.72 223.807V315.357H639.224V223.807H479.72ZM682.522 423.121L682.742 350.656H639.224V318.229H479.72V477.387C492.797 477.931 505.894 477.776 518.954 476.923H519.181C525.42 476.535 531.629 475.97 537.809 475.229H537.95C570.921 471.43 603.162 462.912 633.663 449.943" fill="#00A459"/>
<path opacity="0.1" d="M701.764 318.189H738.973C738.646 336.779 734.876 355.037 726.628 371.899C719.764 385.909 710.226 398.159 698.957 408.86V350.623H701.764V318.189Z" fill="#00A459"/>
<path opacity="0.1" d="M738.994 315.357H701.765V238.849H721.91C732.337 262.971 738.96 289.442 738.994 315.357Z" fill="#00A459"/>
<path opacity="0.1" d="M463.524 154.393H440.993V183.306H463.524V154.393Z" fill="#00A459"/>
<path opacity="0.1" d="M463.524 214.323H440.993V220.981H463.524V214.323Z" fill="#00A459"/>
<path opacity="0.1" d="M463.524 223.807H440.993V243.23H463.524V223.807Z" fill="#00A459"/>
<path opacity="0.1" d="M463.524 274.254H440.993V303.167H463.524V274.254Z" fill="#00A459"/>
<path opacity="0.1" d="M463.524 334.185H440.993V363.098H463.524V334.185Z" fill="#00A459"/>
<path opacity="0.1" d="M463.518 416.305C463.745 416.305 463.966 416.305 464.186 416.344H463.518V423.061H440.993V394.115H463.518V416.305Z" fill="#00A459"/>
<path opacity="0.1" d="M463.518 454.033V476.368C455.987 475.737 448.479 474.879 440.993 473.793V454.033H463.518Z" fill="#00A459"/>
<path opacity="0.1" d="M351.342 313.233H254.78V315.357H351.342V313.233Z" fill="#00A459"/>
<path opacity="0.1" d="M351.342 318.183H254.78V326.323H351.342V318.183Z" fill="#00A459"/>
<path opacity="0.1" d="M351.342 353.006H254.78V366.096H351.342V353.006Z" fill="#00A459"/>
<path opacity="0.1" d="M351.336 392.778V405.868H275.809C272.529 403.389 269.29 400.843 266.09 398.231C263.878 396.425 261.686 394.572 259.453 392.778H351.336Z" fill="#00A459"/>
<path opacity="0.1" d="M351.336 432.545V445.621H343.362C334.401 441.62 325.617 437.254 317.008 432.525L351.336 432.545Z" fill="#00A459"/>
<path opacity="0.1" d="M537.97 232.681H518.961V251.502H537.97V232.681Z" fill="#00A459"/>
<path opacity="0.1" d="M126.39 144.989H107.381V163.81H126.39V144.989Z" fill="#00A459"/>
<path opacity="0.1" d="M126.39 188.706H107.381V207.527H126.39V188.706Z" fill="#00A459"/>
<path opacity="0.1" d="M126.39 232.423H107.381V251.244H126.39V232.423Z" fill="#00A459"/>
<path opacity="0.1" d="M126.39 276.133H107.381V294.954H126.39V276.133Z" fill="#00A459"/>
<path opacity="0.1" d="M126.39 319.85H107.381V338.671H126.39V319.85Z" fill="#00A459"/>
<path opacity="0.1" d="M126.39 363.568H107.381V382.389H126.39V363.568Z" fill="#00A459"/>
<path opacity="0.1" d="M610.536 232.681H591.527V251.502H610.536V232.681Z" fill="#00A459"/>
<path opacity="0.1" d="M537.97 279.105H518.961V297.926H537.97V279.105Z" fill="#00A459"/>
<path opacity="0.1" d="M610.536 279.105H591.527V297.926H610.536V279.105Z" fill="#00A459"/>
<path opacity="0.1" d="M537.97 325.522H518.961V344.343H537.97V325.522Z" fill="#00A459"/>
<path opacity="0.1" d="M610.536 325.522H591.527V344.343H610.536V325.522Z" fill="#00A459"/>
<path opacity="0.1" d="M537.97 371.946H518.961V390.767H537.97V371.946Z" fill="#00A459"/>
<path opacity="0.1" d="M610.536 371.946H591.527V390.767H610.536V371.946Z" fill="#00A459"/>
<path opacity="0.1" d="M537.97 418.369H518.961V437.19H537.97V418.369Z" fill="#00A459"/>
<path opacity="0.1" d="M610.536 418.369H591.527V437.19H610.536V418.369Z" fill="#00A459"/>
<path opacity="0.1" d="M518.961 476.923V464.786H537.963V475.196L518.961 476.923Z" fill="#00A459"/>
<path opacity="0.1" d="M12.4375 197.455V208.222H77.4916V197.455H12.4375ZM18.9209 207.547H13.6139V198.116H18.961L18.9209 207.547ZM25.3975 207.547H20.0504V198.116H25.3975V207.547ZM31.8608 207.547H26.5137V198.116H31.8608V207.547ZM38.3375 207.547H32.9971V198.116H38.3442L38.3375 207.547ZM44.8075 207.547H39.4604V198.116H44.8075V207.547ZM51.2841 207.547H45.937V198.116H51.2841V207.547ZM57.7608 207.547H52.4137V198.116H57.7608V207.547ZM64.2308 207.547H58.8837V198.116H64.2308V207.547ZM70.7008 207.547H65.3537V198.116H70.7008V207.547ZM77.1707 207.547H71.8236V198.116H77.1707V207.547Z" fill="#00A459"/>
<path opacity="0.1" d="M96.6182 263.811V355.361H241.504V263.811H96.6182ZM96.6182 358.187V436.806C97.447 436.978 98.2691 437.144 99.0845 437.283C100.194 437.495 101.297 437.686 102.426 437.852C102.64 437.885 102.861 437.918 103.095 437.938C103.536 438.011 103.99 438.07 104.432 438.13C105.548 438.282 106.657 438.408 107.774 438.507C108.302 438.56 108.836 438.606 109.371 438.646L110.661 438.745C111.363 438.798 112.058 438.838 112.746 438.858C113.174 438.858 113.602 438.897 114.043 438.911C114.377 438.911 114.711 438.911 115.059 438.911C115.407 438.911 115.901 438.911 116.322 438.911C116.897 438.911 117.472 438.911 118.04 438.911H118.809C119.383 438.911 119.958 438.911 120.526 438.858H120.566C120.961 438.858 121.362 438.858 121.763 438.805C121.874 438.811 121.986 438.811 122.097 438.805C122.431 438.805 122.765 438.805 123.086 438.758H123.32L125.559 438.586C126.295 438.52 127.036 438.434 127.785 438.355L129.309 438.176C135.509 437.316 141.64 436.025 147.656 434.311C161.171 430.579 174.392 425.357 187.9 421.532C205.365 416.602 224.661 414.18 241.538 420.209V358.187H96.6182ZM241.504 161.89V40.0108C225.642 39.8407 209.822 41.6776 194.43 45.4771C157.742 54.603 124.824 74.3968 96.6182 99.6767V161.884H103.89V164.71H96.6182V260.985H241.504V164.716H133.747V161.89H241.504ZM427.603 120.721C418.527 120.404 409.503 117.558 401.342 113.164C385.735 104.759 373.27 91.7817 359.341 80.8293C330.4 58.0178 294.507 44.2528 257.686 40.838V161.89H464.518L465.033 161.354L427.603 120.721ZM446.445 117.412L466.423 139.119V111.721C459.733 112.542 453.871 114.494 446.472 117.386L446.445 117.412ZM466.423 456.329V358.187H423.854C423.74 357.77 423.626 357.347 423.493 356.923C423.62 357.347 423.727 357.77 423.847 358.187H257.713V429.163C259.29 430.321 260.847 431.538 262.391 432.776C264.056 434.1 265.7 435.496 267.351 436.866L269.015 438.229C269.81 438.891 270.613 439.553 271.421 440.175C273.025 441.463 274.645 442.734 276.28 443.987C277.089 444.648 277.918 445.244 278.74 445.866C291.792 455.746 305.56 464.662 319.933 472.542C323.154 474.307 326.405 476.03 329.685 477.711C331.87 478.816 334.069 479.914 336.275 480.98C339.59 482.581 342.932 484.126 346.301 485.612C377.358 499.416 410.199 508.888 443.885 513.758C451.367 514.852 458.877 515.712 466.416 516.339V456.322H467.085L466.423 456.329ZM257.713 164.716V260.985H466.45V164.716H257.713ZM257.713 263.811V355.361H466.45V263.811H257.713ZM482.652 111.602V142.163L508.15 114.461C499.702 113.111 491.202 112.147 482.652 111.569V111.602ZM482.652 263.844V355.361H685.674V263.811L482.652 263.844ZM684.932 463.595L685.647 358.187H482.652V517.391C495.729 517.935 508.826 517.78 521.886 516.928H522.113C528.351 516.539 534.561 515.975 540.741 515.234H540.881C573.853 511.434 606.094 502.917 636.594 489.947L684.932 463.595ZM724.821 278.886C724.059 277.106 723.264 275.339 722.455 273.592C720.945 270.283 719.347 267.067 717.703 263.851H701.862V355.361H741.912C741.892 329.446 735.268 302.975 724.841 278.853L724.821 278.886ZM701.862 358.22V448.884C713.145 438.176 722.676 425.927 729.54 411.923C737.795 395.061 741.571 376.803 741.879 358.207L701.862 358.22ZM701.862 237.168V260.992H716.219C711.876 252.79 707.09 244.827 701.882 237.135L701.862 237.168ZM564.175 129.563C563.119 129.166 562.063 128.762 561 128.371C549.792 124.273 538.338 120.865 526.705 118.167L487.684 160.567L486.936 161.354L487.437 161.897H626.315C606.973 148.715 586.121 137.85 564.195 129.53L564.175 129.563ZM630.385 164.749H485.499L482.652 167.33V260.985H507.609H507.649H685.701V215.62C669.594 196.333 651.004 179.219 630.405 164.716L630.385 164.749Z" fill="#00A459"/>
<path opacity="0.1" d="M80.4224 213.278V260.985H12.8018C12.8018 260.707 12.8485 260.423 12.8686 260.145C12.9288 259.384 12.9889 258.623 13.0557 257.868C13.1293 256.981 13.2095 256.088 13.2964 255.221C13.3833 254.354 13.4768 253.295 13.5771 252.336C13.6773 251.376 13.7709 250.403 13.8845 249.444C13.9982 248.484 14.0984 247.525 14.2187 246.572C14.339 245.619 14.446 244.652 14.573 243.7C14.6732 242.905 14.7802 242.118 14.8871 241.324C15.0408 240.205 15.2013 239.08 15.375 237.969C15.375 237.803 15.4218 237.631 15.4486 237.472C16.6685 229.333 18.3307 221.266 20.428 213.304L80.4224 213.278Z" fill="#00A459"/>
<path opacity="0.1" d="M15.3682 237.459V248.226H80.4222V237.459H15.3682ZM21.8515 247.551H16.5445V238.121H21.8916L21.8515 247.551ZM28.3282 247.551H22.9811V238.121H28.3282V247.551ZM34.7915 247.551H29.4444V238.121H34.7915V247.551ZM41.2681 247.551H35.9277V238.121H41.2748L41.2681 247.551ZM47.7381 247.551H42.391V238.121H47.7381V247.551ZM54.2148 247.551H48.8677V238.121H54.2148V247.551ZM60.6915 247.551H55.3444V238.121H60.6915V247.551ZM67.1614 247.551H61.8143V238.121H67.1614V247.551ZM73.6314 247.551H68.2843V238.121H73.6314V247.551ZM80.1014 247.551H74.7543V238.121H80.1014V247.551Z" fill="#00A459"/>
<path opacity="0.1" d="M12.4375 228.783V239.55H77.4916V228.783H12.4375ZM18.9209 238.869H13.6139V229.465H18.961L18.9209 238.869ZM25.3975 238.869H20.0504V229.465H25.3975V238.869ZM31.8608 238.869H26.5137V229.465H31.8608V238.869ZM38.3375 238.869H32.9971V229.465H38.3442L38.3375 238.869ZM44.8075 238.869H39.4604V229.465H44.8075V238.869ZM51.2841 238.869H45.937V229.465H51.2841V238.869ZM57.7608 238.869H52.4137V229.465H57.7608V238.869ZM64.2308 238.869H58.8837V229.465H64.2308V238.869ZM70.7008 238.869H65.3537V229.465H70.7008V238.869ZM77.1707 238.869H71.8236V229.465H77.1707V238.869Z" fill="#00A459"/>
<path opacity="0.1" d="M12.4375 260.125V270.912H77.4916V260.125H12.4375ZM18.9209 270.21H13.6139V260.8H18.961L18.9209 270.21ZM25.3975 270.21H20.0504V260.8H25.3975V270.21ZM31.8608 270.21H26.5137V260.8H31.8608V270.21ZM38.3375 270.21H32.9971V260.8H38.3442L38.3375 270.21ZM44.8075 270.21H39.4604V260.8H44.8075V270.21ZM51.2841 270.21H45.937V260.8H51.2841V270.21ZM57.7608 270.21H52.4137V260.8H57.7608V270.21ZM64.2308 270.21H58.8837V260.8H64.2308V270.21ZM70.7008 270.21H65.3537V260.8H70.7008V270.21ZM77.1707 270.21H71.8236V260.8H77.1707V270.21Z" fill="#00A459"/>
<path opacity="0.1" d="M12.4375 291.467V302.221H77.4916V291.467H12.4375ZM18.9209 301.552H13.6139V292.135H18.961L18.9209 301.552ZM25.3975 301.552H20.0504V292.135H25.3975V301.552ZM31.8608 301.552H26.5137V292.135H31.8608V301.552ZM38.3375 301.552H32.9971V292.135H38.3442L38.3375 301.552ZM44.8075 301.552H39.4604V292.135H44.8075V301.552ZM51.2841 301.552H45.937V292.135H51.2841V301.552ZM57.7608 301.552H52.4137V292.135H57.7608V301.552ZM64.2308 301.552H58.8837V292.135H64.2308V301.552ZM70.7008 301.552H65.3537V292.135H70.7008V301.552ZM77.1707 301.552H71.8236V292.135H77.1707V301.552Z" fill="#00A459"/>
<path opacity="0.1" d="M12.7178 322.802C12.9784 323.814 13.2725 324.827 13.58 325.826V323.477H18.9271V332.887H16.0664C16.1533 333.106 16.2402 333.344 16.3271 333.549H77.4911V322.802H12.7178ZM25.4171 332.887H20.07V323.477H25.4171V332.887ZM31.8804 332.887H26.5333V323.477H31.8804V332.887ZM38.3571 332.887H32.9966V323.477H38.3437L38.3571 332.887ZM44.8271 332.887H39.48V323.477H44.8271V332.887ZM51.3037 332.887H45.9566V323.477H51.3037V332.887ZM57.7804 332.887H52.4333V323.477H57.7804V332.887ZM64.2504 332.887H58.9033V323.477H64.2504V332.887ZM70.7204 332.887H65.3733V323.477H70.7204V332.887ZM77.1903 332.887H71.8433V323.477H77.1903V332.887Z" fill="#00A459"/>
<path opacity="0.1" d="M27.8232 354.144C27.9903 354.355 28.1508 354.594 28.3245 354.805H31.8603V359.325C32.2413 359.775 32.6156 360.225 33.0032 360.649V354.779H38.3503V364.223H36.1848C36.3986 364.441 36.6058 364.673 36.8531 364.884H77.5111V354.144H27.8232ZM44.8069 364.223H39.4598V354.819H44.8069V364.223ZM51.2836 364.223H45.9365V354.819H51.2836V364.223ZM57.7603 364.223H52.4132V354.819H57.7603V364.223ZM64.2303 364.223H58.8832V354.819H64.2303V364.223ZM70.7002 364.223H65.3531V354.819H70.7002V364.223ZM77.1702 364.223H71.8231V354.819H77.1702V364.223Z" fill="#00A459"/>
<path opacity="0.1" d="M63.5088 385.479C64.117 385.823 64.7386 386.141 65.3669 386.485V386.154H70.714V389.132L71.8503 389.655V386.154H77.1974V391.878C77.2999 391.929 77.4074 391.969 77.5182 391.998V385.479H63.5088Z" fill="#00A459"/>
<path opacity="0.1" d="M504.691 220.981H504.731H504.691ZM463.518 416.298H464.187H463.518ZM420.561 316.919C420.688 317.342 420.795 317.766 420.915 318.183C420.808 317.766 420.695 317.342 420.561 316.919ZM504.691 220.961H504.731H504.691ZM100.985 121.866V124.692H130.842V121.866H100.985ZM463.518 416.298H464.187H463.518ZM420.561 316.919C420.688 317.342 420.795 317.766 420.915 318.183C420.808 317.766 420.695 317.342 420.561 316.919ZM504.691 220.961H504.731H504.691ZM463.518 416.278H464.187H463.518ZM420.561 316.919C420.688 317.342 420.795 317.766 420.915 318.183C420.808 317.766 420.695 317.342 420.561 316.919Z" fill="#00A459"/>
<path d="M308.933 251.257C308.933 251.257 306.3 250.893 306.3 247.095C306.3 243.296 304.415 236.202 304.415 236.202C304.415 236.169 302.784 223.846 300.532 221.887C298.279 219.929 295.385 208.427 295.385 208.427C295.385 208.427 294.891 202.186 293.881 200.843C292.872 199.499 291.509 196.21 289.497 191.518C287.485 186.826 279.097 183.577 279.097 183.577C279.097 183.577 263.931 174.868 259.633 172.029C259.243 171.796 258.877 171.523 258.544 171.215C257.795 170.242 254.533 170.222 254.533 170.222C254.192 168.092 253.865 165.643 253.758 163.426C253.758 163.188 253.758 162.95 253.725 162.711C258.517 159.907 262.127 155.484 263.891 150.257C263.971 150.005 264.038 149.74 264.111 149.489C264.398 149.395 264.663 149.243 264.887 149.043C265.112 148.842 265.291 148.597 265.415 148.324C265.802 147.471 265.809 146.471 266.29 145.677C266.852 144.737 267.921 144.234 268.763 143.526C270.889 141.74 271.437 138.728 271.337 135.989C271.27 133.772 270.909 131.535 271.049 129.331L271.089 128.775C271.129 128.444 271.176 128.114 271.236 127.796C271.564 126.155 272.279 124.606 272.68 122.978C273.081 121.35 273.121 119.517 272.185 118.114C270.815 116.056 267.961 115.646 265.455 115.434C262.614 115.196 260.074 115.507 258.256 113.171C257.405 111.95 256.448 110.805 255.396 109.749C255.021 109.405 251.385 107.208 251.385 107.062C247.836 105.435 243.814 105.13 240.056 106.202C238.171 106.745 236.393 107.631 234.482 108.075C230.358 109.041 225.612 107.995 222.11 110.332C220.158 111.655 218.989 113.76 217.892 115.811C217.001 117.501 216.097 119.188 215.179 120.874C213.702 123.647 212.198 126.466 211.576 129.536C211.445 130.205 211.365 130.881 211.336 131.561V131.594C211.336 131.839 211.336 132.084 211.336 132.329V132.64C211.336 132.872 211.336 133.097 211.376 133.302C211.416 133.507 211.409 133.573 211.429 133.712C211.449 133.851 211.483 134.162 211.523 134.374C211.563 134.586 211.643 134.956 211.723 135.247C211.757 135.373 211.803 135.492 211.843 135.611C211.91 135.836 211.991 136.055 212.077 136.273C212.124 136.386 212.171 136.505 212.224 136.617C212.325 136.849 212.445 137.074 212.565 137.279C212.619 137.372 212.659 137.458 212.712 137.544C212.899 137.852 213.104 138.148 213.327 138.431C214.758 140.198 216.863 141.323 218.42 142.977C218.42 143.043 218.42 143.109 218.42 143.169C218.42 143.354 218.42 143.533 218.42 143.718C218.503 147.408 219.495 151.022 221.31 154.246C223.125 157.469 225.708 160.205 228.834 162.215C228.834 162.466 228.867 162.724 228.881 162.976C229.011 164.94 228.986 166.912 228.807 168.872C228.535 168.555 228.194 168.302 227.81 168.133C227.426 167.963 227.008 167.881 226.588 167.893C226.301 167.879 226.013 167.904 225.733 167.966L225.672 167.919V167.979C224.202 168.336 222.391 169.852 220.66 174.16C220.66 174.16 215.393 180.037 211.382 179.792C207.372 179.547 197.219 185.907 197.219 185.907C197.219 185.907 187.314 192.273 185.188 198.758C184 202.436 182.576 206.034 180.924 209.532L168.679 234.514L166.42 254.334C166.42 254.334 167.67 263.149 167.423 264.493C167.175 265.836 172.562 277.953 172.562 277.953C172.562 277.953 190.362 308.918 197.634 310.506L198.155 310.142C198.466 310.303 198.796 310.425 199.137 310.506L200.635 309.46C200.725 310.626 200.686 311.797 200.521 312.955C199.518 316.012 200.895 335.965 202.646 339.876C204.398 343.787 203.776 395.068 203.776 395.068L203.529 399.595C203.529 399.595 203.529 399.74 203.589 399.992L203.529 401.064L203.709 401.156C203.897 402.592 203.836 404.049 203.529 405.465C202.9 407.45 202.646 413.062 202.646 413.062C202.646 413.062 197.64 444.748 200.013 451.114C202.386 457.48 204.404 464.456 204.404 464.456C204.404 464.456 206.911 472.397 204.525 473.753C202.139 475.11 195.354 477.387 196.751 480.696C198.021 483.753 202.84 491.946 203.555 493.144L203.495 493.772L202.513 504.314C202.672 505.706 203.053 507.064 203.642 508.338C204.718 510.634 206.811 513.017 210.787 512.759C211.456 512.712 212.231 512.633 212.98 512.534C220.258 511.567 229.222 508.351 229.222 508.351C228.756 508.059 228.33 507.71 227.952 507.312C227.594 506.969 227.31 506.557 227.118 506.102C226.927 505.647 226.83 505.158 226.835 504.665C226.942 502.746 223.313 493.6 222.411 491.35C222.27 491.026 222.197 490.841 222.197 490.841C222.197 490.841 230.471 482.277 229.095 474.687C229.095 474.687 219.938 469.392 222.952 466.487C225.967 463.582 231.354 455.237 231.354 455.237C231.354 455.237 231.601 424.034 231.354 419.375C231.096 416.142 231.251 412.889 231.815 409.693C231.915 409.21 232.035 408.74 232.162 408.277C236.331 408.893 240.54 409.21 244.755 409.224C246.292 409.224 247.856 409.224 249.434 409.131C249.434 409.572 249.454 410.049 249.494 410.56C249.841 418.29 250.49 431.843 251.018 436.879C251.766 444.099 255.904 463.555 255.904 463.555C255.904 463.555 248.01 468.572 257.28 480.934C257.28 480.934 257.28 485.414 256.666 486.063C256.009 488.183 255.48 490.339 255.081 492.522C254.694 494.851 254.533 497.207 255.162 498.431C256.666 501.356 265.689 501.118 265.689 501.118L265.909 501.078C267.613 500.904 269.334 501.066 270.974 501.556C272.613 502.046 274.139 502.853 275.461 503.931C278.889 506.657 291.903 505.459 298.948 504.592C301.708 504.248 303.553 503.931 303.553 503.931C303.642 503.621 303.674 503.298 303.646 502.978C303.573 501.264 302.216 497.505 293.019 494.15C293.019 494.15 284.37 488.392 284.49 483.376H284.31H283.307C284.036 483.336 284.504 483.376 284.504 483.376C284.504 483.376 281.115 471.133 282.499 470.14C283.882 469.147 279.738 455.581 279.738 455.581C279.738 455.581 277.365 432.816 277.238 431.221C277.244 429.852 277.453 428.492 277.86 427.184L277.238 414.703C277.238 414.703 277.118 410.554 277.238 409.204C277.218 408.032 277.122 406.863 276.951 405.703C276.891 405.24 276.831 404.757 276.764 404.28C280.006 403.466 282.111 402.712 282.111 402.712L281.737 359.266C284.49 353.972 284.998 342.357 284.985 334.118C284.985 328.824 284.744 324.906 284.744 324.906L288.507 318.825C288.507 318.825 289.376 311.545 287.999 309.95C287.391 309.229 287.665 308.481 288.167 307.866C288.427 307.661 288.702 307.475 288.989 307.31C288.989 307.31 288.949 307.25 288.902 307.164C289.165 306.947 289.444 306.75 289.737 306.575C289.737 306.575 288.401 304.524 289.597 303.657C290.72 304.411 291.722 304.98 292.484 305.443C292.431 305.927 292.377 306.205 292.377 306.205L292.698 305.543C293.433 305.953 293.881 306.205 293.881 306.205C293.881 306.205 299.776 294.577 299.649 292.863C299.522 291.149 303.66 283.929 303.66 283.929C303.66 283.929 304.161 280.137 306.42 278.549C308.679 276.961 308.171 265.452 308.171 265.452C308.171 265.452 308.8 259.457 310.304 257.008C311.807 254.559 308.933 251.257 308.933 251.257ZM196.136 246.155L196.25 248.928C195.582 247.862 195.1 247.095 195.1 247.095L196.136 246.155Z" fill="url(#paint0_linear)"/>
<path d="M294.202 301.182L292.758 307.27C292.758 307.27 281.195 301.427 279.11 294.001C277.024 286.576 282.599 283.757 282.599 283.757L293.373 288.277L294.202 301.182Z" fill="white"/>
<path opacity="0.1" d="M294.202 301.182L292.758 307.27C292.758 307.27 281.195 301.427 279.11 294.001C277.024 286.576 282.599 283.757 282.599 283.757L293.373 288.277L294.202 301.182Z" fill="black"/>
<path d="M229.309 508.391C229.309 508.391 218.615 512.282 211.263 512.772C207.359 513.03 205.307 510.661 204.251 508.378C203.674 507.108 203.302 505.757 203.148 504.374L204.104 493.885L204.612 488.299L220.232 484.282L222.445 490.98L222.652 491.489C223.541 493.726 227.103 502.825 226.996 504.725C226.992 505.211 227.087 505.693 227.275 506.142C227.464 506.592 227.742 506.998 228.093 507.339C228.451 507.739 228.86 508.093 229.309 508.391Z" fill="white"/>
<path d="M302.356 503.057C302.383 503.375 302.351 503.696 302.263 504.003C302.263 504.003 279.391 507.782 274.712 504.003C273.393 502.899 271.855 502.081 270.198 501.6C268.54 501.119 266.799 500.986 265.087 501.211C265.087 501.211 256.238 501.449 254.761 498.564C254.146 497.352 254.306 495.003 254.687 492.687C255.076 490.517 255.593 488.371 256.238 486.261L256.592 485.983L258.697 484.309L283.347 483.588H283.535C283.414 488.577 291.903 494.302 291.903 494.302C300.919 497.611 302.249 501.35 302.356 503.057Z" fill="white"/>
<path opacity="0.1" d="M302.357 503.057C302.38 503.376 302.346 503.696 302.257 504.003C302.257 504.003 279.391 507.782 274.712 504.003C273.394 502.9 271.857 502.082 270.201 501.601C268.545 501.12 266.805 500.987 265.094 501.211C265.094 501.211 256.238 501.449 254.768 498.564C254.153 497.346 254.306 495.003 254.687 492.687C258.096 493.025 263.477 493.865 265.589 495.87C268.784 498.921 274.198 501.965 277.519 502.203C280.12 502.369 295.673 502.858 302.357 503.057Z" fill="black"/>
<path opacity="0.1" d="M229.309 508.391C229.309 508.391 218.615 512.282 211.263 512.772C207.359 513.03 205.307 510.661 204.258 508.371C206.978 509.278 210.755 510.231 212.74 509.357C215.092 508.325 223.434 507.656 228.113 507.372C228.469 507.758 228.87 508.1 229.309 508.391Z" fill="black"/>
<path d="M245.177 194.807C236.354 191.413 225.005 180.195 227.839 174.954C228.468 173.632 228.842 172.204 228.941 170.745C229.124 168.765 229.151 166.774 229.022 164.789C228.823 161.539 228.428 158.304 227.839 155.101C227.839 155.101 255.383 155.716 253.779 159.733C253.311 160.911 253.237 162.956 253.364 165.246C253.491 167.536 253.825 170.123 254.173 172.314C254.654 175.318 255.135 177.608 255.135 177.608C255.135 177.608 253.451 179.944 252.462 180.07C251.473 180.195 257.836 199.645 245.177 194.807Z" fill="#CF6F80"/>
<path opacity="0.1" d="M222.632 491.489L222.425 491.714C214.19 481.854 204.231 494.143 204.231 494.143L204.084 493.885L204.592 488.299L220.212 484.282L222.425 490.98L222.632 491.489Z" fill="black"/>
<path opacity="0.1" d="M283.541 484.282C283.541 484.282 277.526 484.157 274.317 486.963C271.109 489.769 255.603 487.571 256.271 486.963C256.469 486.661 256.588 486.315 256.619 485.957L258.724 484.282L283.374 483.561C283.468 484.005 283.541 484.282 283.541 484.282Z" fill="black"/>
<path d="M232.878 406.848C232.429 407.944 232.089 409.081 231.862 410.243C231.304 413.423 231.149 416.66 231.4 419.878C231.648 424.511 231.4 455.555 231.4 455.555C231.4 455.555 226.113 463.833 223.166 466.752C220.218 469.67 229.181 474.912 229.181 474.912C230.518 482.456 222.417 490.98 222.417 490.98C214.183 481.119 204.224 493.415 204.224 493.415C204.224 493.415 198.81 484.15 197.46 480.841C196.11 477.532 202.747 475.243 205.079 473.899C207.412 472.556 204.966 464.634 204.966 464.634C204.966 464.634 202.994 457.692 200.655 451.359C198.315 445.026 203.235 413.499 203.235 413.499C203.235 413.499 203.489 407.9 204.097 405.948C204.404 404.539 204.465 403.089 204.277 401.659C204.237 401.176 204.19 400.773 204.157 400.501C204.124 400.23 204.097 400.104 204.097 400.104L204.19 399.945L207.532 393.778C207.532 393.778 234.482 402.963 232.878 406.848Z" fill="#00A459"/>
<path d="M283.542 483.554C283.542 483.554 277.526 483.429 274.318 486.202C271.11 488.974 255.603 486.81 256.272 486.202C256.94 485.593 256.887 481.086 256.887 481.086C247.79 468.79 255.55 463.8 255.55 463.8C255.55 463.8 251.486 444.443 250.751 437.263C250.236 432.247 249.601 418.766 249.26 411.07C249.113 407.761 249.026 405.485 249.026 405.485L256.459 404.002L257.415 403.81L275.341 400.25C275.341 400.25 275.835 403.559 276.17 406.265C276.336 407.421 276.43 408.586 276.45 409.753C276.33 411.077 276.45 415.219 276.45 415.219L277.058 427.641C276.661 428.944 276.456 430.297 276.45 431.658C276.571 433.239 278.903 455.886 278.903 455.886C278.903 455.886 282.96 469.399 281.577 470.372C280.193 471.345 283.542 483.554 283.542 483.554Z" fill="#00A459"/>
<path opacity="0.1" d="M253.778 159.733C253.31 160.911 253.237 162.956 253.364 165.246C249.674 167.446 245.433 168.57 241.127 168.491C236.821 168.411 232.625 167.13 229.021 164.796C228.823 161.544 228.427 158.306 227.838 155.101C227.838 155.101 255.382 155.703 253.778 159.733Z" fill="black"/>
<path d="M264.426 145.108C264.431 147.493 264.052 149.863 263.303 152.129C261.628 157.208 258.195 161.536 253.608 164.35C249.022 167.164 243.579 168.282 238.241 167.507C232.902 166.732 228.013 164.113 224.436 160.113C220.859 156.114 218.826 150.991 218.695 145.651C218.695 145.465 218.695 145.293 218.695 145.108C218.643 142.102 219.196 139.116 220.322 136.324C221.448 133.531 223.124 130.989 225.253 128.845C227.382 126.701 229.92 124.998 232.721 123.836C235.521 122.673 238.527 122.075 241.564 122.075C244.6 122.075 247.606 122.673 250.407 123.836C253.207 124.998 255.746 126.701 257.874 128.845C260.003 130.989 261.679 133.531 262.805 136.324C263.931 139.116 264.484 142.102 264.432 145.108H264.426Z" fill="#CF6F80"/>
<path opacity="0.1" d="M245.177 194.808C236.354 191.413 225.005 180.195 227.839 174.954C228.468 173.632 228.842 172.204 228.941 170.745L241.019 180.573L248.492 186.641L254.173 172.32C254.654 175.325 255.135 177.614 255.135 177.614C255.135 177.614 253.451 179.951 252.462 180.076C251.473 180.202 257.836 199.645 245.177 194.808Z" fill="black"/>
<path d="M276.41 238.24L266.324 406.001L253.17 406.854L219.109 309.58L224.697 194.093L225.873 169.693L241.019 182.009L248.498 188.077L254.347 173.339L265.221 182.723L276.41 238.24Z" fill="#00A459"/>
<path opacity="0.1" d="M232.878 406.848C232.43 407.945 232.089 409.082 231.862 410.243C222.29 408.78 212.994 405.904 204.284 401.713L204.104 401.62L204.164 400.554L204.197 399.999L207.539 393.831C207.539 393.831 234.482 402.963 232.878 406.848Z" fill="black"/>
<path opacity="0.1" d="M256.613 410.269C254.166 410.681 251.698 410.959 249.22 411.103C249.073 407.794 248.986 405.518 248.986 405.518L256.419 404.035L256.613 410.269Z" fill="black"/>
<path opacity="0.1" d="M276.129 406.299C271.377 407.523 264.038 408.899 257.468 408.039L257.374 403.843L275.3 400.283C275.3 400.283 275.795 403.559 276.129 406.299Z" fill="black"/>
<path opacity="0.1" d="M257.348 408.807C229.944 413.439 204.846 400.157 204.846 400.157L205.086 395.657C205.086 395.657 205.708 344.641 203.984 340.73C202.259 336.818 200.916 316.985 201.892 313.941C202.867 310.897 198.329 265.247 198.329 265.247L197.594 246.717L170.685 235.924L182.716 211.094C184.341 207.613 185.738 204.032 186.9 200.373C188.992 193.927 198.703 187.594 198.703 187.594C198.703 187.594 208.662 181.268 212.599 181.506C216.536 181.744 221.696 175.907 221.696 175.907C225.506 166.292 228.955 170.646 228.955 170.646C228.955 171.103 228.955 170.646 228.767 172.069C227.431 182.624 250.383 215.978 250.711 216.567L252.896 269.284L255.108 335.998L257.348 408.807Z" fill="black"/>
<path d="M256.612 408.807C229.208 413.439 204.103 400.157 204.103 400.157L204.351 395.657C204.351 395.657 204.972 344.641 203.241 340.73C201.51 336.818 200.173 316.985 201.156 313.941C202.138 310.897 197.593 265.247 197.593 265.247L196.851 246.717L169.929 235.884L181.96 211.054C183.581 207.571 184.979 203.991 186.144 200.333C188.229 193.888 197.947 187.555 197.947 187.555C197.947 187.555 207.906 181.228 211.837 181.466C215.767 181.704 220.933 175.868 220.933 175.868C224.75 166.252 228.954 170.606 228.954 170.606C228.954 171.063 228.553 171.268 228.767 172.029C231.708 182.267 249.647 215.938 249.975 216.527L252.187 269.244L254.399 335.958L256.612 408.807Z" fill="white"/>
<path opacity="0.1" d="M249.226 218.029C246.279 216.812 230.665 199.162 230.665 199.162V195.145C230.097 193.822 226.722 194.629 223.981 195.555L225.158 171.156L226.495 172.254C229.422 182.485 248.886 217.44 249.226 218.029Z" fill="black"/>
<path d="M249.968 216.567C247.014 215.349 231.401 197.7 231.401 197.7V193.683C230.833 192.359 227.457 193.166 224.717 194.093L225.9 169.693L227.237 170.792C230.171 181.023 249.641 215.984 249.968 216.567Z" fill="white"/>
<path opacity="0.1" d="M204.846 304.59C205.213 304.59 223.901 302.644 223.901 302.644C223.901 302.644 235.217 324.675 234.475 330.035C233.733 335.396 232.39 340.141 227.838 339.3C223.286 338.46 203.342 339.962 203.342 339.962L204.846 304.59Z" fill="black"/>
<path d="M204.103 303.127C204.471 303.127 223.159 301.182 223.159 301.182C223.159 301.182 234.468 323.219 233.733 328.573C232.998 333.927 231.641 338.678 227.096 337.838C222.551 336.997 202.6 338.5 202.6 338.5L204.103 303.127Z" fill="white"/>
<path d="M218.186 292.784C218.186 292.784 235.337 301.91 235.705 304.696C236.072 307.482 226.976 303.478 225.011 302.995C223.717 302.686 222.401 302.483 221.074 302.386L207.967 302.737L218.186 292.784Z" fill="#CF6F80"/>
<path opacity="0.1" d="M244.44 219.168C245.437 219.168 246.245 218.368 246.245 217.381C246.245 216.394 245.437 215.594 244.44 215.594C243.444 215.594 242.636 216.394 242.636 217.381C242.636 218.368 243.444 219.168 244.44 219.168Z" fill="black"/>
<path d="M244.44 218.44C245.437 218.44 246.245 217.64 246.245 216.653C246.245 215.666 245.437 214.866 244.44 214.866C243.444 214.866 242.636 215.666 242.636 216.653C242.636 217.64 243.444 218.44 244.44 218.44Z" fill="#3F3D56"/>
<path opacity="0.1" d="M247.763 296.516C248.759 296.516 249.567 295.716 249.567 294.729C249.567 293.743 248.759 292.943 247.763 292.943C246.766 292.943 245.958 293.743 245.958 294.729C245.958 295.716 246.766 296.516 247.763 296.516Z" fill="black"/>
<path d="M247.763 295.782C248.759 295.782 249.567 294.982 249.567 293.995C249.567 293.008 248.759 292.208 247.763 292.208C246.766 292.208 245.958 293.008 245.958 293.995C245.958 294.982 246.766 295.782 247.763 295.782Z" fill="#3F3D56"/>
<path opacity="0.1" d="M246.239 257.842C247.236 257.842 248.044 257.042 248.044 256.055C248.044 255.068 247.236 254.268 246.239 254.268C245.243 254.268 244.435 255.068 244.435 256.055C244.435 257.042 245.243 257.842 246.239 257.842Z" fill="black"/>
<path d="M246.239 257.114C247.236 257.114 248.044 256.314 248.044 255.327C248.044 254.34 247.236 253.54 246.239 253.54C245.243 253.54 244.435 254.34 244.435 255.327C244.435 256.314 245.243 257.114 246.239 257.114Z" fill="#3F3D56"/>
<path d="M287.839 302.016C287.839 302.016 289.069 303.842 287.839 304.696C286.61 305.549 287.96 307.614 287.96 307.614C287.96 307.614 284.892 309.394 286.242 310.996C287.592 312.597 286.737 319.831 286.737 319.831L283.047 325.879C283.047 325.879 283.268 329.777 283.281 335.045C283.281 343.264 282.793 354.819 280.093 360.087L280.467 403.307C280.467 403.307 267.547 407.979 256.733 406.557L255.128 337.202C255.128 337.202 257.468 297.873 258.33 290.329C258.835 286.412 259.04 282.463 258.945 278.516C258.945 278.516 258.577 266.71 257.341 261.23C257.341 261.23 256.004 237.492 255.87 230.921C255.81 227.777 255.977 218.605 256.165 209.883C256.372 200.347 256.606 191.353 256.606 191.353L254.166 172.241C254.166 172.241 256.606 171.996 257.341 172.969C257.67 173.274 258.028 173.546 258.41 173.783C262.621 176.602 277.499 185.271 277.499 185.271C277.499 185.271 285.734 188.514 287.706 193.16C289.677 197.805 291.048 201.101 292.003 202.425C292.959 203.748 293.481 209.969 293.481 209.969C293.481 209.969 296.315 221.418 298.527 223.357C300.739 225.296 302.357 237.631 302.357 237.631L282.806 252.852C282.806 252.852 281.089 278.172 280.721 279.151C280.353 280.131 287.839 302.016 287.839 302.016Z" fill="white"/>
<path d="M288.581 302.016C288.581 302.016 289.804 303.842 288.581 304.696C287.358 305.549 288.695 307.614 288.695 307.614C288.695 307.614 285.647 309.414 286.984 311.016C288.32 312.617 287.478 319.85 287.478 319.85L283.789 325.899C283.789 325.899 284.009 329.797 284.029 335.065C284.029 343.284 283.542 354.839 280.841 360.106L281.209 403.327C281.209 403.327 268.269 407.999 257.468 406.576L255.87 337.222C255.87 337.222 258.21 297.893 259.072 290.348C259.577 286.432 259.78 282.483 259.68 278.536C259.68 278.536 259.313 266.73 258.083 261.25C258.083 261.25 256.746 237.512 256.606 230.941C256.545 227.797 256.719 218.625 256.9 209.903C257.107 200.366 257.341 191.373 257.341 191.373L254.119 172.003C254.119 172.003 257.341 172.003 258.083 172.989C258.409 173.297 258.767 173.57 259.152 173.803C263.363 176.622 278.248 185.291 278.248 185.291C278.248 185.291 286.476 188.534 288.447 193.18C290.419 197.825 291.789 201.121 292.752 202.444C293.714 203.768 294.222 209.989 294.222 209.989C294.222 209.989 297.056 221.437 299.269 223.376C301.481 225.315 303.078 237.625 303.078 237.625L283.528 252.845C283.528 252.845 281.81 278.165 281.436 279.144C281.062 280.124 288.581 302.016 288.581 302.016Z" fill="white"/>
<path opacity="0.1" d="M265.168 196.991L266.932 202.087L257.642 211.352C257.849 201.822 258.083 192.822 258.083 192.822L254.861 173.452C254.861 173.452 258.083 173.452 258.825 174.438C259.15 174.745 259.509 175.016 259.894 175.245L267.795 197.812L265.168 196.991Z" fill="black"/>
<path d="M264.426 195.529L266.197 200.625L256.906 209.889C257.114 200.353 257.347 191.36 257.347 191.36L254.119 171.989C254.119 171.989 257.347 171.989 258.083 172.975C258.411 173.282 258.769 173.554 259.152 173.789L267.059 196.349L264.426 195.529Z" fill="white"/>
<path opacity="0.1" d="M264.426 145.108C264.431 147.493 264.052 149.863 263.303 152.129C263.177 152.149 263.048 152.143 262.924 152.113C262.8 152.082 262.683 152.027 262.581 151.951C262.407 145.995 259.446 140.403 255.804 135.645C254.781 134.208 253.541 132.936 252.127 131.872C250.698 130.81 248.921 130.312 247.141 130.476C245.136 130.747 243.365 132.097 241.34 132.269C238.666 132.488 236.273 130.655 233.62 130.562C232.541 130.572 231.477 130.81 230.498 131.26C229.52 131.709 228.649 132.36 227.945 133.17C226.551 134.802 225.516 136.704 224.904 138.755C223.853 141.864 223.281 145.112 223.206 148.39C223.173 150.243 222.992 152.566 221.255 153.241C221.386 151.879 221.229 150.504 220.795 149.204C220.362 147.904 219.66 146.708 218.735 145.69L218.695 145.651C218.695 145.465 218.695 145.293 218.695 145.108C218.643 142.102 219.196 139.116 220.322 136.324C221.448 133.531 223.124 130.989 225.253 128.845C227.382 126.701 229.92 124.998 232.721 123.836C235.521 122.673 238.527 122.075 241.564 122.075C244.6 122.075 247.606 122.673 250.407 123.836C253.207 124.998 255.746 126.701 257.874 128.845C260.003 130.989 261.679 133.531 262.805 136.324C263.931 139.116 264.484 142.102 264.432 145.108H264.426Z" fill="black"/>
<path d="M251.031 109.154C247.558 107.536 243.608 107.23 239.923 108.293C238.071 108.836 236.327 109.716 234.448 110.16C230.438 111.119 225.759 110.08 222.317 112.403C220.406 113.727 219.256 115.818 218.187 117.849L215.513 122.892C214.056 125.652 212.586 128.458 211.977 131.495C211.369 134.533 211.737 137.934 213.682 140.376C215.099 142.156 217.191 143.275 218.728 144.949C219.649 145.968 220.348 147.163 220.78 148.462C221.212 149.76 221.369 151.132 221.241 152.493C222.986 151.832 223.153 149.502 223.193 147.649C223.267 144.371 223.84 141.123 224.891 138.014C225.501 135.963 226.536 134.06 227.932 132.428C228.636 131.62 229.507 130.969 230.485 130.52C231.464 130.07 232.528 129.832 233.606 129.821C236.28 129.914 238.679 131.74 241.326 131.522C243.331 131.356 245.109 130 247.128 129.735C248.908 129.568 250.686 130.066 252.114 131.131C253.527 132.193 254.765 133.465 255.783 134.903C259.433 139.662 262.394 145.24 262.567 151.21C263.323 151.759 264.412 151.044 264.787 150.197C265.161 149.35 265.174 148.357 265.649 147.55C266.197 146.617 267.246 146.121 268.068 145.419C270.154 143.639 270.675 140.641 270.595 137.921C270.515 135.201 269.98 132.442 270.501 129.768C270.815 128.127 271.524 126.591 271.912 124.97C272.299 123.349 272.346 121.529 271.43 120.133C270.094 118.081 267.28 117.677 264.827 117.485C262.039 117.247 259.546 117.552 257.768 115.229C256.934 114.017 255.995 112.878 254.961 111.827C254.607 111.483 251.031 109.299 251.031 109.154Z" fill="#512E4E"/>
<path opacity="0.1" d="M178.384 248.709L171.4 235.924L169.188 255.651C169.188 255.651 170.417 264.413 170.17 265.757C169.923 267.1 175.21 279.145 175.21 279.145C175.21 279.145 192.675 309.944 199.806 311.532L223.902 294.485L217.512 286.451C217.512 286.451 215.299 285.597 214.745 286.451C214.745 286.451 202.881 266.24 201.651 264.777C200.421 263.315 200.662 260.396 200.662 260.396C200.662 260.396 198.817 258.451 199.432 256.624C200.047 254.798 195.869 248.465 195.869 248.465L199.679 244.937L178.384 248.709Z" fill="black"/>
<path d="M171.767 234.468L169.922 235.924L167.71 255.651C167.71 255.651 168.94 264.413 168.692 265.757C168.445 267.1 173.739 279.144 173.739 279.144C173.739 279.144 191.197 309.944 198.329 311.532L222.431 294.484L216.034 286.45C216.034 286.45 213.822 285.597 213.267 286.45C213.267 286.45 201.403 266.24 200.174 264.777C198.944 263.315 199.191 260.396 199.191 260.396C199.191 260.396 197.346 258.451 197.961 256.624C198.576 254.798 194.392 248.464 194.392 248.464L198.202 244.937L171.767 234.468Z" fill="white"/>
<path opacity="0.1" d="M286.242 311.75C287.579 313.358 286.737 320.578 286.737 320.578L283.047 326.627C283.047 326.627 283.268 330.532 283.281 335.793L277.079 337.712C276.518 337.885 275.924 337.923 275.345 337.823C274.767 337.723 274.221 337.487 273.753 337.135C273.286 336.783 272.91 336.326 272.657 335.801C272.404 335.277 272.281 334.7 272.3 334.118L273.369 299.964L287.84 305.444C286.61 306.291 287.96 308.369 287.96 308.369C287.96 308.369 284.892 310.142 286.242 311.75Z" fill="black"/>
<path d="M286.984 311.016C288.321 312.624 287.479 319.851 287.479 319.851L283.789 325.899C283.789 325.899 284.01 329.797 284.03 335.065L277.714 337.017C277.165 337.186 276.583 337.223 276.017 337.124C275.45 337.025 274.916 336.794 274.459 336.45C274.001 336.105 273.633 335.658 273.385 335.144C273.138 334.63 273.017 334.065 273.035 333.496L274.111 299.236L288.588 304.716C287.352 305.563 288.702 307.634 288.702 307.634C288.702 307.634 285.647 309.414 286.984 311.016Z" fill="white"/>
<path d="M291.776 294.736C291.776 294.736 290.793 300.95 288.334 301.314C285.874 301.678 284.771 311.366 282.318 311.022C279.865 310.678 281.489 302.016 281.576 300.335C281.663 298.654 278.903 291.692 280.968 290.11C283.033 288.528 289.57 290.11 289.57 290.11L291.776 294.736Z" fill="#CF6F80"/>
<path opacity="0.1" d="M297.009 246.883L301.648 237.618C301.648 237.618 303.493 244.679 303.493 248.451C303.493 252.223 306.073 252.594 306.073 252.594C306.073 252.594 308.9 255.903 307.409 258.312C305.919 260.721 305.317 266.716 305.317 266.716C305.317 266.716 305.805 278.158 303.593 279.74C301.38 281.322 300.919 285.101 300.919 285.101C300.919 285.101 296.856 292.281 296.983 293.988C297.109 295.696 291.328 307.257 291.328 307.257C291.328 307.257 294.155 292.89 277.68 286.682C277.68 286.682 277.553 281.805 278.782 280.468C280.012 279.131 281.93 278.522 280.727 271.766C279.524 265.009 280.38 256.935 280.38 255.314C280.38 253.693 284.069 243.581 284.069 243.581L297.009 246.883Z" fill="black"/>
<path d="M299.014 236.294L303.065 237.618C303.065 237.618 304.916 244.679 304.916 248.451C304.916 252.223 307.496 252.594 307.496 252.594C307.496 252.594 310.324 255.903 308.833 258.312C307.343 260.721 306.748 266.716 306.748 266.716C306.748 266.716 307.236 278.158 305.023 279.74C302.811 281.322 302.316 285.1 302.316 285.1C302.316 285.1 298.259 292.281 298.386 293.988C298.513 295.696 292.725 307.257 292.725 307.257C292.725 307.257 295.559 292.89 279.076 286.682C279.076 286.682 278.956 281.805 280.186 280.468C281.416 279.131 283.334 278.522 282.131 271.766C280.928 265.009 281.783 256.935 281.783 255.314C281.783 253.692 285.473 243.58 285.473 243.58L299.014 236.294Z" fill="white"/>
<path opacity="0.1" d="M209.551 476.434C209.551 476.434 216.007 472.417 220.245 475.335C224.483 478.253 209.551 476.434 209.551 476.434Z" fill="black"/>
<path opacity="0.1" d="M259.721 464.012C259.721 464.012 265.435 463.284 270.234 468.4C275.033 473.515 259.721 464.012 259.721 464.012Z" fill="black"/>
<g opacity="0.1">
<path opacity="0.1" d="M268.081 143.97C267.259 144.671 266.203 145.174 265.655 146.107C265.187 146.908 265.174 147.894 264.8 148.754C264.425 149.615 263.336 150.316 262.581 149.773C262.407 143.817 259.439 138.225 255.796 133.461C254.778 132.023 253.54 130.75 252.127 129.688C250.696 128.624 248.916 128.126 247.134 128.292C245.129 128.563 243.364 129.913 241.339 130.079C238.666 130.304 236.266 128.471 233.613 128.378C232.534 128.389 231.471 128.627 230.493 129.078C229.516 129.529 228.647 130.182 227.945 130.992C226.549 132.622 225.514 134.522 224.904 136.571C223.853 139.68 223.281 142.928 223.206 146.206C223.166 148.053 222.992 150.356 221.268 151.044C221.308 151.533 221.308 152.024 221.268 152.513C223.005 151.851 223.179 149.522 223.219 147.669C223.294 144.391 223.866 141.143 224.917 138.033C225.527 135.982 226.563 134.08 227.958 132.448C228.662 131.64 229.531 130.989 230.508 130.54C231.486 130.09 232.548 129.852 233.626 129.841C236.3 129.933 238.706 131.76 241.353 131.541C243.358 131.376 245.136 130.019 247.148 129.755C248.929 129.588 250.71 130.086 252.14 131.151C253.553 132.213 254.791 133.485 255.81 134.923C259.453 139.681 262.42 145.26 262.594 151.229C263.349 151.779 264.439 151.064 264.813 150.217C265.187 149.37 265.201 148.377 265.669 147.57C266.217 146.637 267.273 146.14 268.095 145.439C270.18 143.659 270.701 140.661 270.621 137.941C270.621 137.855 270.621 137.769 270.621 137.689C270.494 140.045 269.859 142.448 268.081 143.97Z" fill="black"/>
<path opacity="0.1" d="M218.741 143.5C217.204 141.826 215.105 140.707 213.695 138.934C212.507 137.364 211.829 135.474 211.75 133.514C211.54 135.963 212.23 138.405 213.695 140.39C215.105 142.17 217.204 143.288 218.741 144.962C220.217 146.6 221.103 148.676 221.261 150.866C221.363 149.533 221.193 148.194 220.76 146.928C220.327 145.663 219.64 144.496 218.741 143.5Z" fill="black"/>
<path opacity="0.1" d="M271.924 123.521C271.53 125.142 270.828 126.684 270.507 128.319C270.317 129.411 270.248 130.52 270.3 131.628C270.322 130.997 270.392 130.369 270.507 129.748C270.828 128.107 271.53 126.572 271.924 124.95C272.154 124.056 272.229 123.129 272.145 122.21C272.103 122.652 272.03 123.09 271.924 123.521Z" fill="black"/>
</g>
<path opacity="0.1" d="M89.1217 503.342C125.091 503.342 154.249 498.705 154.249 492.985C154.249 487.265 125.091 482.628 89.1217 482.628C53.1528 482.628 23.9941 487.265 23.9941 492.985C23.9941 498.705 53.1528 503.342 89.1217 503.342Z" fill="#00A459"/>
<path d="M91.2201 294.584H87.0293V388.007H91.2201V294.584Z" fill="#535461"/>
<path d="M117.554 387.722L117.293 391.931L116.919 397.887L116.765 400.362L116.398 406.318L116.237 408.793L115.863 414.749L111.639 482.297C111.455 485.203 110.16 487.931 108.017 489.925C105.874 491.919 103.044 493.03 100.103 493.031H78.1394C75.1991 493.03 72.3697 491.919 70.2276 489.925C68.0855 487.931 66.7917 485.203 66.6098 482.297L62.4056 414.703L62.0313 408.747L61.8776 406.272L61.5033 400.316L61.3496 397.841L60.9753 391.885L60.7079 387.676C60.6615 386.866 60.7827 386.055 61.0641 385.293C61.3456 384.531 61.7813 383.834 62.3446 383.245C62.9079 382.655 63.5868 382.186 64.3398 381.866C65.0928 381.546 65.9039 381.381 66.7234 381.383H111.646C112.462 381.389 113.268 381.562 114.015 381.889C114.761 382.217 115.432 382.692 115.986 383.286C116.539 383.881 116.964 384.581 117.234 385.344C117.504 386.107 117.613 386.916 117.554 387.722Z" fill="#3F3D56"/>
<path d="M117.293 391.931L116.919 397.867H61.3225L60.9482 391.931H117.293Z" fill="#9D9CB5"/>
<path d="M116.766 400.343L116.398 406.285H61.8509L61.4766 400.343H116.766Z" fill="#9D9CB5"/>
<path d="M116.238 408.767L115.87 414.703H62.3792L62.0049 408.767H116.238Z" fill="#9D9CB5"/>
<path d="M54.5522 329.599C78.955 347.083 89.1412 374.427 89.1412 374.427C89.1412 374.427 59.7322 373.428 35.3227 355.944C10.9132 338.46 0.74707 311.122 0.74707 311.122C0.74707 311.122 30.1427 312.114 54.5522 329.599Z" fill="#00A459"/>
<path d="M0.727539 311.122C0.727539 311.122 31.2594 327.898 41.0513 341.789C50.8432 355.679 89.1417 374.427 89.1417 374.427" stroke="#535461" stroke-width="2" stroke-miterlimit="10"/>
<path d="M70.3063 294.379C83.5871 303.889 89.1414 318.772 89.1414 318.772C89.1414 318.772 73.1336 318.229 59.846 308.719C46.5585 299.21 41.0176 284.32 41.0176 284.32C41.0176 284.32 57.0188 284.862 70.3063 294.379Z" fill="#00A459"/>
<path d="M41.0176 284.32C41.0176 284.32 57.6337 293.452 62.9607 301.01C68.2878 308.567 89.1414 318.772 89.1414 318.772" stroke="#535461" stroke-width="2" stroke-miterlimit="10"/>
<path d="M108.424 318.017C93.1648 334.621 89.9365 356.321 89.9365 356.321C89.9365 356.321 111.452 351.093 126.698 334.482C141.944 317.872 145.185 296.179 145.185 296.179C145.185 296.179 123.683 301.413 108.424 318.017Z" fill="#00A459"/>
<path d="M145.199 296.185C145.199 296.185 125.321 313.206 120.268 324.933C115.215 336.66 89.9365 356.321 89.9365 356.321" stroke="#535461" stroke-width="2" stroke-miterlimit="10"/>
<path d="M668.572 312.174C668.572 312.174 657.537 257.815 661.761 251.052C661.761 251.052 661.915 244.765 661.661 236.751C661.661 236.447 661.661 236.142 661.661 235.831C662.404 236.322 663.179 236.764 663.981 237.155C667.873 239.135 672.341 239.706 676.613 238.77L673.271 235.083C672.469 234.203 671.634 233.25 671.46 232.086C671.286 230.921 671.767 229.882 672.182 228.843C675.357 220.902 675.524 210.915 669.408 204.853C664.241 199.758 662.985 193.18 657.377 188.527C653.28 185.119 651.027 180.123 648.902 175.292C647.104 171.209 645.292 167.092 644.263 162.764C643.461 159.383 643.14 155.882 642.037 152.58C640.935 149.277 638.869 146.068 635.641 144.592C634.491 144.069 633.215 143.771 632.165 143.076C630.788 142.157 629.96 140.661 628.964 139.351C623.904 132.733 606.96 136.631 598.94 139.318C596.759 139.994 594.74 141.102 593.005 142.573L593.078 142.454C593.138 142.355 593.212 142.256 593.279 142.157C592.401 142.859 591.642 143.697 591.033 144.638C589.863 146.471 589.375 148.609 588.399 150.594C587.223 152.944 580.679 159.502 583.493 162.142C583.691 162.32 583.917 162.463 584.162 162.566C585.218 163.001 586.381 163.116 587.504 162.897L587.383 163.181C586.422 165.511 585.93 168.004 585.933 170.52C585.933 181.393 594.99 190.208 606.172 190.208C608.274 190.21 610.364 189.891 612.368 189.262C612.415 189.513 612.455 189.765 612.501 190.016C612.501 190.116 612.535 190.215 612.548 190.314L612.194 190.804C612.176 190.774 612.156 190.745 612.134 190.718L601.64 205.237C600.036 206.356 590.799 212.973 590.278 217.937C589.729 223.37 589.181 229.73 589.181 229.73L589.108 231.093C588.649 231.472 588.113 231.749 587.536 231.903C586.959 232.057 586.355 232.086 585.766 231.986C582.491 231.457 582.491 243.898 582.491 243.898C582.491 243.898 580.312 245.884 578.815 244.163C577.317 242.442 573.361 248.273 573.361 248.273L548.563 249.331L547.995 249.365L546.659 245.268C546.515 244.836 546.204 244.478 545.795 244.271C545.386 244.064 544.911 244.025 544.473 244.163C544.369 244.197 544.269 244.239 544.172 244.289L544.079 244.342L543.905 244.461L543.818 244.54C543.77 244.583 543.725 244.63 543.684 244.679L543.604 244.772L543.564 244.812C543.41 245.023 543.307 245.267 543.266 245.524C543.224 245.782 543.244 246.045 543.323 246.294L544.473 249.808C539.687 250.761 534.795 253.448 538.785 260.846L518.56 257.147L525.103 262.587L558.883 269.489C558.436 270.283 558.73 271.435 560.127 273.056C566.142 280.051 577.104 281.951 581.515 282.44C582.68 285.02 584.135 287.462 585.853 289.72L585.472 296.688C585.472 296.688 574.303 349.803 572.258 352.496C573.29 351.338 574.235 350.106 575.085 348.81C571.843 359.723 567.312 374.659 566.122 376.896C564.21 380.469 562.439 394.929 564.618 395.856C565.287 396.14 567.198 396.001 569.925 395.796V396.994L569.805 442.385C569.805 442.385 570.353 470.226 568.849 472.88C567.345 475.534 566.944 481.099 566.944 481.099C566.944 481.099 560.929 492.078 556.163 496.492C556.131 496.527 556.095 496.558 556.056 496.585L555.909 495.553C555.909 495.553 550.181 502.713 537.508 502.309C537.508 502.309 529.882 507.22 541.191 507.484C552.5 507.749 566.944 507.087 566.944 507.087C566.944 507.087 577.03 491.866 585.479 493.852V505.387H588.065V493.666C589.265 492.885 590.291 491.87 591.083 490.683C591.875 489.497 592.415 488.163 592.67 486.764C592.892 485.322 592.73 483.847 592.2 482.486C591.67 481.125 590.791 479.924 589.649 479.001C589.136 478.542 588.725 477.983 588.441 477.359C588.157 476.735 588.006 476.06 587.998 475.375L587.905 475.454C587.905 475.223 587.845 474.984 587.818 474.74C587.076 468.784 586.147 456.494 589.429 447.402C593.927 434.934 595.29 417.569 592.015 407.232C590.959 403.927 590.091 400.567 589.415 397.166C589.335 396.736 589.262 396.326 589.195 395.942C591.433 396.242 593.65 396.684 595.832 397.265C603.418 399.337 620.014 399.72 634.184 399.608C634.217 399.992 634.257 400.396 634.304 400.799C634.557 403.605 635.085 406.38 635.882 409.085C637.659 414.379 638.475 437.72 638.475 437.72C638.475 437.72 640.767 456.911 639.518 464.72C638.849 469.062 638.181 473.423 637.8 477.804V477.89C637.8 477.89 634.044 488.478 631.296 494.229C631.23 494.375 631.156 494.52 631.089 494.659C630.357 494.725 629.636 494.883 628.944 495.129C628.944 495.129 625.261 502.409 621.591 503.613C617.922 504.817 619.138 508.781 627.447 507.326C635.755 505.87 648.3 504.678 648.3 504.678L648.842 497.253L651.395 494.09L650.726 501.495L653.447 500.966L653.086 491.959L657.263 486.784C657.263 486.784 662.31 482.337 654.81 473.588V473.78C654.73 473.654 654.657 473.522 654.57 473.396V473.357C653.326 471.451 652.337 467.897 654.149 461.59C657.424 450.194 659.329 439.851 659.329 439.851C659.329 439.851 666.641 412.142 657.851 399.032H658.239C657.338 397.187 656.702 395.227 656.348 393.209C656.303 392.97 656.263 392.726 656.227 392.474C662.731 392.103 669.114 390.939 674.321 388.424C674.3 388.397 671.166 322.643 668.572 312.174ZM586.007 266.313V266.445L584.67 266.511L586.007 266.313ZM581.421 266.941C581.202 266.99 580.996 267.087 580.82 267.226C580.245 268.031 579.884 268.966 579.77 269.946L577.685 269.483C577.685 269.483 576.221 269.172 574.116 268.821L573.12 267.828C575.86 267.603 578.708 267.272 581.421 266.941Z" fill="url(#paint1_linear)"/>
<path d="M650.419 492.052L649.624 501.429L652.291 500.9L651.89 490.728L650.419 492.052Z" fill="#1D2366"/>
<path d="M589.576 447.527C586.361 456.594 587.27 468.83 587.991 474.773C588.259 476.97 588.506 478.307 588.506 478.307C588.506 478.307 583.7 489.147 583.299 489.557C582.898 489.967 569.156 498.272 569.156 498.272L559.552 503.825C559.552 503.825 549.807 499.596 554.479 498.14C555.433 497.761 556.293 497.18 556.998 496.439C561.677 492.038 567.552 481.099 567.552 481.099C567.552 481.099 567.953 475.547 569.424 472.906C570.894 470.266 570.359 442.518 570.359 442.518L570.473 397.285V391.389L588.753 391.521C588.869 393.523 589.132 395.513 589.542 397.477C590.198 400.866 591.048 404.216 592.089 407.51C595.31 417.827 593.974 435.106 589.576 447.527Z" fill="#FFB0B1"/>
<path opacity="0.1" d="M588.506 478.307C588.506 478.307 583.701 489.147 583.3 489.557C582.898 489.967 569.156 498.273 569.156 498.273L559.552 503.825C559.552 503.825 549.807 499.596 554.479 498.14C555.433 497.761 556.293 497.181 556.998 496.439L557.413 499.331L560.614 499.199L588.018 474.786C588.259 476.97 588.506 478.307 588.506 478.307Z" fill="black"/>
<path d="M588.173 475.401L560.615 499.98L557.413 500.112L556.745 495.48C556.745 495.48 551.144 502.614 538.699 502.216C538.699 502.216 531.226 507.107 542.301 507.372C553.376 507.636 567.519 506.975 567.519 506.975C567.519 506.975 577.398 491.754 585.666 493.739V505.234H588.206V493.633C589.387 492.846 590.395 491.831 591.169 490.648C591.943 489.465 592.468 488.139 592.711 486.751C592.931 485.32 592.775 483.858 592.259 482.504C591.743 481.15 590.883 479.951 589.763 479.021C589.263 478.557 588.864 477.996 588.591 477.374C588.317 476.751 588.175 476.08 588.173 475.401Z" fill="#1D2366"/>
<path d="M652.959 461.663C651.181 467.95 652.15 471.49 653.367 473.389V473.429C654.927 475.774 656.012 478.397 656.562 481.152L656.669 481.748L644.13 499.847L637.325 502.494C637.325 502.494 626.384 498.795 628.383 497.736C628.884 497.478 629.666 496.102 630.561 494.202C633.235 488.478 636.924 477.916 636.924 477.916V477.83C637.312 473.469 637.927 469.121 638.609 464.793C639.832 457.004 637.586 437.885 637.586 437.885C637.586 437.885 636.784 414.637 635.046 409.349C634.262 406.661 633.74 403.904 633.489 401.117C633.128 397.808 633.048 395.081 633.048 395.081C633.048 395.081 640.253 385.155 653.46 395.875C654.517 396.73 655.446 397.728 656.221 398.84C665.344 411.692 657.999 440.003 657.999 440.003C657.999 440.003 656.161 450.3 652.959 461.663Z" fill="#FFB0B1"/>
<path opacity="0.1" d="M656.688 481.748L644.149 499.848L637.345 502.495C637.345 502.495 626.404 498.795 628.402 497.737C628.903 497.478 629.685 496.102 630.581 494.203C635.213 494.163 637.612 498.531 637.612 498.531L643.481 497.604C643.481 497.604 651.221 482.542 652.959 481.622C654.696 480.702 653.226 474.746 653.226 474.746V473.231C653.273 473.284 653.313 473.343 653.366 473.396V473.436C654.926 475.781 656.011 478.404 656.561 481.159L656.688 481.748Z" fill="black"/>
<path d="M638.014 498.921C638.014 498.921 634.672 492.846 628.269 495.089C628.269 495.089 624.667 502.369 621.064 503.547C617.461 504.725 618.664 508.695 626.805 507.246C634.946 505.797 647.218 504.599 647.218 504.599L647.753 497.194L656.027 486.758C656.027 486.758 660.96 482.33 653.621 473.615V475.13C653.621 475.13 655.092 481.086 653.354 482.006C651.616 482.926 643.903 497.995 643.903 497.995L638.014 498.921Z" fill="#1D2366"/>
<path opacity="0.1" d="M588.773 391.508C588.889 393.51 589.152 395.5 589.562 397.464C582.036 396.372 575.051 396.915 570.473 397.272V391.376L588.773 391.508Z" fill="black"/>
<path opacity="0.1" d="M656.962 400.488C656.962 400.488 646.268 401.004 633.515 401.11C633.154 397.801 633.074 395.075 633.074 395.075C633.074 395.075 640.279 385.148 653.487 395.869C654.543 396.724 655.472 397.722 656.247 398.834C656.454 399.398 656.693 399.95 656.962 400.488Z" fill="black"/>
<path d="M656.962 399.297C656.962 399.297 610.122 401.54 595.845 397.576C581.568 393.612 567.418 397.047 565.286 396.127C563.154 395.207 564.885 380.8 566.757 377.233C568.628 373.666 578.895 337.593 578.895 337.593L588.773 286.596L599.18 283.757L599.915 283.552L618.049 278.602L631.336 274.969C631.336 274.969 657.757 377.101 655.492 384.632C654.669 387.516 654.536 390.55 655.104 393.493C655.45 395.503 656.076 397.456 656.962 399.297Z" fill="#1D2366"/>
<path d="M554.339 251.72C554.339 251.72 544.981 261.647 552.066 267.18C559.151 272.712 563.81 267.709 563.81 267.709L554.339 251.72Z" fill="#C7DAF5"/>
<path opacity="0.1" d="M554.339 251.72C554.339 251.72 544.981 261.647 552.066 267.18C559.151 272.712 563.81 267.709 563.81 267.709L554.339 251.72Z" fill="black"/>
<path d="M629.939 186.456C629.939 186.456 628.843 187.488 627.192 189.01C624.839 191.188 621.357 194.371 618.269 197.038C613.991 200.724 610.462 203.43 611.726 201.121C612.989 198.811 612.748 194.788 612.12 191.022C612.073 190.771 612.033 190.519 611.986 190.274C611.466 187.509 610.776 184.777 609.921 182.095C609.921 182.095 616.832 173.253 620.655 169.766C622.079 168.442 623.075 167.9 623.135 168.82C623.202 170.057 624.137 172.79 625.3 175.689C625.334 175.781 625.367 175.867 625.407 175.96C626.183 177.945 627.058 179.984 627.827 181.744C629.003 184.444 629.939 186.456 629.939 186.456Z" fill="#FFB0B1"/>
<path opacity="0.1" d="M625.407 175.96C624.758 179.419 623.182 182.641 620.845 185.291C618.507 187.94 615.494 189.92 612.12 191.022C611.588 188.001 610.854 185.019 609.921 182.095C609.921 182.095 622.934 165.451 623.135 168.819C623.182 170.097 624.198 172.929 625.407 175.96Z" fill="black"/>
<path opacity="0.1" d="M610.823 195.469L612.508 193.12C612.508 193.12 613.624 199.857 617.728 196.886C621.832 193.914 622.032 219.247 622.032 219.247L617.627 284.452L585.799 282.566L586.701 251.059L590.304 235.176L599.213 212.087L604.514 204.456L610.823 195.469Z" fill="black"/>
<path d="M622.033 219.651L618.022 278.608L617.601 284.856L599.855 283.803L599.187 283.764L585.819 282.97L586.722 251.456L590.324 235.573L599.234 212.484L604.534 204.853L610.844 195.833L612.528 193.491C612.528 193.491 613.644 200.228 617.748 197.256L617.835 197.197C621.845 194.682 622.033 219.651 622.033 219.651Z" fill="#1D2366"/>
<path d="M590.772 230.054C590.772 230.054 589.174 233.363 585.966 232.827C582.758 232.291 582.764 244.739 582.764 244.739C582.764 244.739 580.632 246.724 579.162 245.003C577.691 243.283 573.815 249.1 573.815 249.1L549.525 250.159C549.525 250.159 560.333 255.049 558.214 269.847C558.214 269.847 594.909 267.596 596.112 264.162C597.315 260.727 590.772 230.054 590.772 230.054Z" fill="white"/>
<path opacity="0.03" d="M590.772 230.054C590.772 230.054 589.174 233.363 585.966 232.827C582.758 232.291 582.764 244.739 582.764 244.739C582.764 244.739 580.632 246.724 579.162 245.003C577.691 243.283 573.815 249.1 573.815 249.1L549.525 250.159C549.525 250.159 560.333 255.049 558.214 269.847C558.214 269.847 594.909 267.596 596.112 264.162C597.315 260.727 590.772 230.054 590.772 230.054Z" fill="black"/>
<path d="M520.184 257.935L526.587 263.348L579.296 274.314L572.759 267.709L520.184 257.935Z" fill="white"/>
<path d="M610.924 197.554C610.048 198.878 607.542 205.654 605.45 211.57C603.705 216.501 602.248 220.835 602.248 220.835C602.248 220.835 598.846 242.767 597.108 246.731C595.37 250.695 596.313 266.154 596.313 266.154L589.836 304.332C589.836 304.332 586.902 324.02 582.37 335.78C577.899 347.354 572.919 352.781 572.766 352.953C574.771 350.266 585.699 297.363 585.699 297.363L589.308 230.643C589.308 230.643 589.836 224.303 590.371 218.883C590.906 213.463 601.733 206.064 601.733 206.064L612.174 191.366C613.223 192.756 612.521 195.178 610.924 197.554Z" fill="white"/>
<path d="M583.7 283.301C583.7 283.301 568.327 282.639 560.882 273.784C553.436 264.93 578.093 270.25 578.093 270.25L584.502 271.706L583.7 283.301Z" fill="#FFB0B1"/>
<path opacity="0.1" d="M655.492 384.638C654.669 387.522 654.537 390.556 655.105 393.5C638.335 394.678 620.395 390.191 620.395 390.191C617.053 393.235 608.251 397.722 608.251 397.722L603.452 338.824C600.384 330.882 599.181 289.276 599.181 289.276C599.181 289.276 599.455 287.099 599.849 283.836C599.849 283.757 599.849 283.671 599.882 283.592C601.079 274.479 603.452 257.372 604.615 255.062C606.219 251.886 599.682 243.435 599.682 243.435L602.656 218.32L603.017 215.29C609.287 212.517 614.092 203.662 614.092 203.662L617.782 197.263C621.792 194.715 621.999 219.684 621.999 219.684L617.989 278.642L631.277 275.008C631.277 275.008 657.758 377.107 655.492 384.638Z" fill="black"/>
<path d="M672.703 388.709C654.423 397.695 621.197 389.37 621.197 389.37C617.855 392.415 609.052 396.901 609.052 396.901L604.247 338.003C601.186 330.062 599.982 288.456 599.982 288.456C599.982 288.456 603.846 257.412 605.45 254.242C605.918 253.315 605.69 251.939 605.136 250.457C602.408 243.401 601.405 235.806 602.208 228.294L603.491 217.5L603.846 214.476C610.122 211.696 614.928 202.842 614.928 202.842L618.27 197.044L624.419 186.363L627.333 181.307L627.827 181.751L631.604 185.139C631.604 185.139 633.208 186.463 635.614 188.448C640.848 192.816 649.891 200.506 654.556 205.211C658.66 209.354 659.957 225.468 660.331 237.598C660.578 245.586 660.431 251.846 660.431 251.846C656.294 258.59 667.115 312.73 667.115 312.73C669.635 323.193 672.703 388.709 672.703 388.709Z" fill="white"/>
<path opacity="0.03" d="M637.613 202.709C637.613 202.709 625.067 226.355 626.524 235.341C627.981 244.328 632.125 254.5 630.127 256.876C629.44 257.776 628.553 258.506 627.533 259.01C626.514 259.514 625.391 259.778 624.252 259.781C622.247 259.913 616.9 263.613 616.9 264.01C616.9 264.407 611.96 264.407 607.542 266.26C603.124 268.113 596.601 269.165 596.601 269.165C596.601 269.165 583.901 268.768 582.718 269.959C581.535 271.15 580.319 278.278 582.852 283.962C585.385 289.647 588.199 293.889 590.325 294.663C592.45 295.438 605.938 290.964 616.88 289.905C627.821 288.846 639.698 280.263 639.698 280.263C639.698 280.263 652.779 275.63 655.071 267.841C657.364 260.052 652.271 217.242 652.271 217.242C652.271 217.242 648.421 197.289 637.613 202.709Z" fill="black"/>
<path opacity="0.03" d="M636.009 200.724C636.009 200.724 623.463 224.376 624.933 233.356C626.404 242.336 630.535 252.515 628.529 254.897C627.845 255.798 626.959 256.53 625.941 257.034C624.922 257.538 623.799 257.801 622.661 257.802C620.656 257.935 615.309 261.634 615.309 262.031C615.309 262.428 610.369 262.428 605.951 264.274C601.533 266.121 595.01 267.18 595.01 267.18C595.01 267.18 582.31 266.783 581.134 267.974C579.958 269.165 578.728 276.299 581.268 281.977C583.808 287.655 586.615 291.904 588.74 292.678C590.866 293.452 604.354 288.979 615.295 287.926C626.237 286.874 638.114 278.278 638.114 278.278C638.114 278.278 651.188 273.645 653.454 265.863C655.719 258.08 650.653 215.256 650.653 215.256C650.653 215.256 646.816 195.31 636.009 200.724Z" fill="black"/>
<path d="M637.219 201.518C637.219 201.518 624.673 225.17 626.143 234.15C627.614 243.131 631.744 253.309 629.746 255.684C629.062 256.588 628.175 257.321 627.155 257.826C626.136 258.332 625.011 258.595 623.871 258.596C621.866 258.729 616.519 262.428 616.519 262.818C616.519 263.209 611.586 263.216 607.161 265.069C602.737 266.921 596.22 267.974 596.22 267.974C596.22 267.974 583.52 267.577 582.337 268.768C581.154 269.959 579.938 277.093 582.471 282.771C585.004 288.449 587.818 292.698 589.944 293.472C592.069 294.246 605.557 289.773 616.499 288.714C627.44 287.655 639.317 279.072 639.317 279.072C639.317 279.072 652.398 274.439 654.69 266.65C656.983 258.861 651.923 216.051 651.923 216.051C651.923 216.051 648.02 196.131 637.219 201.518Z" fill="white"/>
<path opacity="0.1" d="M636.944 264.956C636.944 264.956 626.918 262.971 630.407 266.28C633.896 269.588 633.876 272.487 638.147 272.355C642.418 272.222 636.944 264.956 636.944 264.956Z" fill="black"/>
<path opacity="0.1" d="M653.888 336.15C653.888 336.15 649.356 339.188 658.025 346.189C666.694 353.191 653.888 336.15 653.888 336.15Z" fill="black"/>
<path opacity="0.1" d="M645.24 361.119C645.24 361.516 643.635 375.678 649.638 379.219C655.64 382.759 645.24 361.119 645.24 361.119Z" fill="black"/>
<path d="M549.941 250.126C545.101 250.291 534.648 251.754 540.069 261.766C544.861 270.627 552.915 264.705 557.447 260.211C556.341 256.022 553.655 252.412 549.941 250.126Z" fill="#FFB0B1"/>
<path d="M557.507 260.132L557.707 259.926L557.507 260.132Z" fill="#FFB0B1"/>
<path opacity="0.1" d="M635.614 188.851C630.481 192.326 626.176 195.257 625.334 195.866C623.035 197.554 618.65 207.461 615.823 212.517C613.571 216.587 606.252 217.632 603.491 217.89L603.845 214.866C610.122 212.086 614.927 203.232 614.927 203.232L627.333 181.698L631.604 185.543C631.604 185.543 633.208 186.866 635.614 188.851Z" fill="black"/>
<path d="M635.614 188.454C630.481 191.929 626.176 194.86 625.334 195.476C623.035 197.157 618.65 207.064 615.823 212.12C613.571 216.19 606.252 217.235 603.491 217.493L603.845 214.469C610.122 211.689 614.927 202.835 614.927 202.835L627.333 181.301L631.604 185.132C631.604 185.132 633.208 186.443 635.614 188.454Z" fill="#DCE7FF"/>
<path d="M625.736 171.592C625.739 175.565 624.522 179.445 622.247 182.717C619.56 186.586 615.561 189.373 610.976 190.573C606.392 191.772 601.524 191.305 597.258 189.255C592.991 187.206 589.608 183.71 587.722 179.402C585.836 175.094 585.572 170.259 586.979 165.775C588.385 161.291 591.368 157.454 595.387 154.962C599.406 152.469 604.194 151.485 608.883 152.189C613.571 152.893 617.85 155.238 620.942 158.798C624.034 162.358 625.735 166.897 625.736 171.592Z" fill="#FFB0B1"/>
<path opacity="0.1" d="M660.331 237.605C657.616 235.951 655.406 233.6 653.934 230.802C652.818 228.618 652.076 226.096 650.171 224.548C648.453 223.158 646.161 222.821 644.022 222.198C636.991 220.14 631.095 213.787 630.875 206.534C630.768 203.119 631.844 199.711 631.356 196.33C631.079 194.416 630.31 192.604 629.124 191.068C628.535 190.334 627.889 189.646 627.192 189.01C626.256 188.137 625.274 187.29 624.418 186.363C623.879 185.79 623.408 185.157 623.015 184.477C622.697 183.921 622.439 183.333 622.246 182.723C620.909 178.673 622.126 173.869 620.655 169.772L620.575 169.547C620.02 168.092 618.891 166.636 617.32 166.523C615.749 166.411 614.406 167.701 612.909 168.277C609.774 169.481 606.392 167.43 603.779 165.339C601.165 163.247 598.218 160.858 594.896 161.322C592.697 161.633 590.959 163.115 588.934 163.883C588.476 164.058 588.005 164.193 587.523 164.286C589.237 160.054 592.386 156.545 596.429 154.362C600.472 152.179 605.157 151.459 609.678 152.324C614.2 153.189 618.276 155.586 621.206 159.104C624.136 162.621 625.737 167.039 625.735 171.599C625.737 172.976 625.592 174.349 625.301 175.695C625.334 175.788 625.367 175.874 625.408 175.967C626.183 177.952 627.058 179.99 627.827 181.751L631.603 185.139C631.603 185.139 633.208 186.462 635.614 188.448C640.847 192.816 649.89 200.505 654.556 205.211C658.66 209.367 659.943 225.474 660.331 237.605Z" fill="black"/>
<path d="M588.7 151.792C589.656 149.866 590.13 147.709 591.273 145.882C592.951 143.235 595.878 141.541 598.886 140.515C606.74 137.835 623.336 133.944 628.295 140.515C629.271 141.839 630.08 143.308 631.43 144.221C632.459 144.916 633.702 145.214 634.832 145.737C637.993 147.206 640.012 150.409 641.088 153.678C642.164 156.947 642.485 160.455 643.274 163.823C644.283 168.144 646.054 172.241 647.819 176.311C649.897 181.115 652.103 186.098 656.113 189.493C661.587 194.126 662.797 200.684 667.877 205.766C673.892 211.802 673.699 221.762 670.597 229.67C670.19 230.709 669.728 231.794 669.889 232.899C670.049 234.005 670.878 235.01 671.66 235.891L674.948 239.563C667.168 241.423 658.366 237.399 654.743 230.338C653.627 228.154 652.885 225.64 650.973 224.084C649.262 222.695 646.963 222.364 644.831 221.742C637.8 219.677 631.904 213.317 631.684 206.064C631.577 202.656 632.653 199.248 632.165 195.873C631.894 193.946 631.122 192.122 629.926 190.579C628.088 188.203 625.314 186.608 623.817 183.961C621.284 179.534 623.209 173.783 621.384 169.031C620.823 167.575 619.7 166.119 618.129 166.007C616.558 165.894 615.215 167.185 613.711 167.761C610.583 168.965 607.201 166.92 604.587 164.822C601.974 162.724 599.026 160.342 595.698 160.812C593.499 161.116 591.768 162.599 589.743 163.373C588.245 163.942 585.211 164.452 583.901 163.201C581.134 160.68 587.544 154.148 588.7 151.792Z" fill="#591D4B"/>
<path opacity="0.1" d="M656.602 228.155C655.479 225.971 654.744 223.456 652.832 221.907C651.121 220.518 648.822 220.18 646.683 219.558C639.658 217.5 633.763 211.14 633.536 203.887C633.429 200.479 634.505 197.064 634.024 193.689C633.744 191.775 632.973 189.963 631.785 188.428C629.94 186.052 627.166 184.457 625.676 181.81C623.142 177.39 625.067 171.639 623.236 166.88C622.681 165.431 621.552 163.975 619.988 163.856C618.424 163.737 617.067 165.041 615.57 165.617C612.441 166.821 609.053 164.769 606.446 162.678C603.839 160.587 600.878 158.198 597.557 158.661C595.358 158.972 593.62 160.455 591.601 161.222C590.104 161.791 587.063 162.308 585.753 161.057C582.999 158.41 589.409 151.891 590.559 149.549C591.514 147.616 591.989 145.465 593.138 143.639C593.199 143.54 593.265 143.44 593.332 143.341C592.472 144.046 591.73 144.882 591.133 145.816C589.99 147.643 589.516 149.787 588.56 151.726C587.404 154.068 580.994 160.607 583.754 163.234C585.091 164.491 588.099 163.975 589.596 163.406C591.601 162.632 593.352 161.15 595.551 160.845C598.893 160.375 601.834 162.764 604.441 164.855C607.048 166.947 610.456 168.998 613.571 167.794C615.068 167.218 616.378 165.921 617.982 166.04C619.587 166.159 620.656 167.608 621.237 169.064C623.062 173.816 621.137 179.567 623.67 183.994C625.168 186.595 627.941 188.223 629.779 190.612C630.976 192.155 631.747 193.979 632.019 195.906C632.506 199.281 631.43 202.689 631.537 206.097C631.758 213.377 637.653 219.71 644.684 221.775C646.803 222.397 649.116 222.728 650.827 224.118C652.745 225.673 653.501 228.188 654.597 230.371C658.219 237.433 667.022 241.456 674.802 239.597L673.251 237.863C666.507 237.962 659.683 234.163 656.602 228.155Z" fill="black"/>
<path opacity="0.1" d="M610.523 197.951C609.647 199.275 607.141 206.051 605.049 211.967C603.09 211.213 601.312 206.402 601.312 206.402L611.753 191.697C612.822 193.153 612.12 195.569 610.523 197.951Z" fill="black"/>
<path d="M610.924 197.554C610.048 198.877 607.542 205.654 605.45 211.57C603.492 210.823 601.714 206.005 601.714 206.005L612.154 191.307C613.223 192.756 612.521 195.178 610.924 197.554Z" fill="#DCE7FF"/>
<path d="M550.221 265.161L544.433 247.088C544.364 246.876 544.339 246.653 544.358 246.432C544.376 246.211 544.439 245.995 544.542 245.798C544.645 245.6 544.787 245.425 544.958 245.282C545.13 245.139 545.328 245.031 545.542 244.964C545.973 244.831 546.44 244.871 546.84 245.077C547.241 245.283 547.543 245.637 547.681 246.062L553.47 264.116L552.895 267.894L550.221 265.161Z" fill="#BE8B87"/>
<path opacity="0.1" d="M544.981 245.5C545.413 245.365 545.881 245.404 546.283 245.61C546.685 245.816 546.989 246.171 547.127 246.598L552.915 264.652L552.481 267.484L552.902 267.921L553.476 264.142L547.655 246.089C547.517 245.663 547.214 245.309 546.814 245.103C546.413 244.898 545.947 244.857 545.516 244.99C545.153 245.107 544.841 245.339 544.627 245.652C544.741 245.592 544.859 245.541 544.981 245.5Z" fill="white"/>
<path d="M550.221 265.161L553.469 264.142L552.995 267.239L552.894 267.921L551.945 266.941L550.221 265.161Z" fill="#EFC8C4"/>
<path d="M551.945 266.941C552.002 266.871 552.072 266.812 552.152 266.769C552.2 266.74 552.254 266.724 552.31 266.724C552.365 266.724 552.42 266.74 552.467 266.769C552.512 266.824 552.55 266.884 552.58 266.948C552.624 267.021 552.685 267.083 552.756 267.13C552.828 267.177 552.909 267.208 552.995 267.219L552.894 267.881L551.945 266.941Z" fill="#727A9C"/>
<path d="M544.399 253.507C544.399 253.507 556.009 253.441 553.275 258.332C550.542 263.222 546.271 263.811 546.271 263.811L544.399 253.507Z" fill="#FFB0B1"/>
<path d="M472.194 34.0286H471.693C451.748 34.0286 434.109 44.478 423.963 59.8975C413.817 44.478 396.178 34.0286 376.234 34.0286H375.732C360.764 34.1698 346.458 40.154 335.921 50.6807C325.384 61.2074 319.469 75.426 319.461 90.2466C319.461 108.651 327.602 134.764 343.476 156.252C373.721 197.196 423.963 233.019 423.963 233.019C423.963 233.019 474.206 197.203 504.444 156.252C520.324 134.764 528.459 108.651 528.459 90.2466C528.451 75.4271 522.536 61.2095 512.001 50.683C501.466 40.1565 487.161 34.1715 472.194 34.0286ZM465.022 159.402C462.751 159.394 460.535 158.705 458.666 157.428C456.797 156.15 455.361 154.342 454.549 152.242H442.624C441.839 152.237 441.075 151.99 440.439 151.534C439.803 151.078 439.326 150.438 439.075 149.701L435.413 138.775L423.823 178.872C423.597 179.644 423.125 180.322 422.476 180.806C421.828 181.289 421.038 181.551 420.227 181.552H419.993C419.146 181.512 418.339 181.185 417.706 180.626C417.074 180.067 416.654 179.31 416.517 178.481L404.573 107.354L395.844 149.443C395.644 150.242 395.179 150.952 394.524 151.46C393.868 151.967 393.06 152.242 392.228 152.242H375.432C374.928 152.263 374.425 152.183 373.954 152.007C373.483 151.831 373.052 151.562 372.688 151.216C372.324 150.871 372.035 150.457 371.837 149.998C371.639 149.539 371.537 149.045 371.537 148.546C371.537 148.047 371.639 147.553 371.837 147.094C372.035 146.635 372.324 146.221 372.688 145.875C373.052 145.53 373.483 145.261 373.954 145.085C374.425 144.909 374.928 144.829 375.432 144.85H389.287L401.652 88.2613C401.855 87.4246 402.346 86.6837 403.039 86.1653C403.733 85.6469 404.587 85.3831 405.455 85.4191C406.323 85.455 407.152 85.7885 407.799 86.3624C408.447 86.9364 408.873 87.7152 409.005 88.5657L421.203 161.123L431.589 125.248C431.806 124.492 432.263 123.826 432.893 123.349C433.523 122.872 434.292 122.61 435.085 122.601H435.159C435.944 122.601 436.71 122.847 437.346 123.303C437.982 123.76 438.456 124.403 438.701 125.142L445.325 144.87H454.401C455.047 142.928 456.221 141.202 457.795 139.879C459.369 138.557 461.282 137.692 463.321 137.378C465.361 137.064 467.448 137.314 469.354 138.1C471.259 138.887 472.907 140.18 474.117 141.835C475.327 143.491 476.052 145.445 476.211 147.483C476.37 149.521 475.957 151.562 475.018 153.382C474.08 155.202 472.651 156.73 470.891 157.797C469.13 158.864 467.106 159.429 465.042 159.429L465.022 159.402Z" fill="#00A459"/>
</g>
<defs>
<linearGradient id="paint0_linear" x1="238.572" y1="512.792" x2="238.572" y2="105.573" gradientUnits="userSpaceOnUse">
<stop stop-color="#808080" stop-opacity="0.25"/>
<stop offset="0.54" stop-color="#808080" stop-opacity="0.12"/>
<stop offset="1" stop-color="#808080" stop-opacity="0.1"/>
</linearGradient>
<linearGradient id="paint1_linear" x1="149195" y1="307252" x2="149195" y2="98223" gradientUnits="userSpaceOnUse">
<stop stop-color="#808080" stop-opacity="0.25"/>
<stop offset="0.54" stop-color="#808080" stop-opacity="0.12"/>
<stop offset="1" stop-color="#808080" stop-opacity="0.1"/>
</linearGradient>
<clipPath id="clip0">
<rect width="738.594" height="518" fill="white" transform="translate(0.40625)"/>
</clipPath>
</defs>
</svg>
