<svg width="25" height="25" viewBox="0 0 25 25" fill="none" xmlns="http://www.w3.org/2000/svg">
<path d="M18.4243 5.87508C18.4945 5.69287 18.6678 5.57292 18.8608 5.57288C18.8608 5.57288 18.8608 5.57288 18.8609 5.57288C19.0538 5.57288 19.2271 5.69273 19.2974 5.87494L20.6815 9.46092C20.7759 9.70533 20.6569 9.98102 20.4158 10.0767C20.3597 10.0989 20.3019 10.1095 20.2451 10.1095C20.0577 10.1095 19.8808 9.99485 19.8085 9.80732L19.5737 9.19916H18.1491L17.9147 9.80718C17.8204 10.0516 17.5485 10.1724 17.3074 10.0767C17.0663 9.98116 16.9473 9.70552 17.0415 9.46106L18.4243 5.87508ZM19.2068 8.24863L18.8611 7.3528L18.5156 8.24863H19.2068Z" fill="black"/>
<path d="M15.835 10.1093C15.5761 10.1093 15.3662 9.89657 15.3662 9.6341V6.04812C15.3662 5.78564 15.5761 5.57288 15.835 5.57288C16.0938 5.57288 16.3037 5.78564 16.3037 6.04812V9.6341C16.3037 9.89657 16.0938 10.1093 15.835 10.1093Z" fill="black"/>
<path d="M1.93128 11.6579C2.65114 11.6579 3.26141 12.1428 3.46212 12.8077H4.48241L4.87077 11.1039C4.91928 10.8911 5.11231 10.7356 5.32747 10.7356H6.2593C6.07297 10.16 5.9458 9.51393 5.90853 8.76481L3.3327 8.76528C3.13189 9.42948 2.52177 9.91385 1.802 9.91385C0.919297 9.91385 0.201172 9.18544 0.201172 8.29009C0.201172 7.39402 0.919297 6.66505 1.802 6.66505C2.52186 6.66505 3.13208 7.14994 3.3328 7.8148L5.91003 7.81433C5.94566 7.12589 6.05816 6.46635 6.24505 5.84331H5.32756C5.11236 5.84331 4.91947 5.68781 4.87086 5.47505L4.4825 3.77121H3.46208C3.26127 4.43536 2.65105 4.91973 1.93133 4.91973C1.04788 4.91973 0.329187 4.19133 0.329187 3.29597C0.329187 2.40062 1.04788 1.67226 1.93133 1.67226C2.65105 1.67226 3.26122 2.15658 3.46208 2.82073H4.85525C5.06923 2.82073 5.24942 2.9663 5.30553 3.16499C5.30783 3.17241 5.30998 3.1803 5.31195 3.18899L5.70031 4.89283H6.6005C6.9237 4.17973 7.35556 3.52713 7.89144 2.94909C8.06867 2.75781 8.3653 2.74849 8.55402 2.92828C8.74264 3.10806 8.75187 3.40879 8.57455 3.60003C8.2108 3.99239 7.90217 4.42533 7.65013 4.89283H9.14206C9.40091 4.89283 9.61081 5.10559 9.61081 5.36807C9.61081 5.63055 9.40091 5.84331 9.14206 5.84331H7.23247C7.01848 6.45851 6.88948 7.11881 6.84889 7.81414L9.74492 7.81357C9.74497 7.81357 9.74497 7.81357 9.74502 7.81357C10.0039 7.81357 10.2137 8.02628 10.2138 8.28871C10.2138 8.55119 10.004 8.764 9.74511 8.76405L6.84809 8.76462C6.89122 9.52747 7.04 10.1678 7.2568 10.7356H9.14202C9.40086 10.7356 9.61077 10.9484 9.61077 11.2109C9.61077 11.4733 9.40086 11.6861 9.14202 11.6861H7.70947C7.99972 12.1959 8.33689 12.6618 8.68123 13.1371C9.4152 14.1502 10.1718 15.1955 10.4811 16.7176H16.0252C16.1916 15.8997 16.4838 15.23 16.8057 14.6613C16.4013 14.5533 16.1017 14.1803 16.1017 13.7367V13.6003C15.7266 13.4873 15.3652 13.3352 15.0215 13.1454L14.9255 13.2428C14.7476 13.4232 14.5106 13.5226 14.2582 13.5226C14.0058 13.5226 13.7688 13.4232 13.5908 13.2427L12.6501 12.2883C12.2823 11.9152 12.2823 11.3082 12.6501 10.9351L12.7463 10.8375C12.5592 10.4886 12.4092 10.1218 12.2977 9.7411H12.1637C11.6433 9.7411 11.2199 9.31172 11.2199 8.78396V7.4347C11.2199 6.90695 11.6433 6.47757 12.1637 6.47757H12.2977C12.4092 6.09685 12.5592 5.73011 12.7463 5.38119L12.6501 5.28357C12.2824 4.91051 12.2824 4.30348 12.6501 3.93037L13.5908 2.97594C13.7688 2.7955 14.0058 2.69612 14.2582 2.69612C14.5106 2.69612 14.7476 2.7955 14.9255 2.97599L15.0215 3.07327C15.3653 2.88351 15.7266 2.73138 16.1017 2.61842V2.48203C16.1017 2.4019 16.1126 2.32444 16.1309 2.24997C15.2326 1.79839 14.2482 1.56814 13.2587 1.58249C13.2544 1.58254 13.2501 1.58254 13.2458 1.58249C12.7864 1.57641 12.3257 1.6227 11.8752 1.7206C11.6221 1.77544 11.3728 1.6121 11.3186 1.35542C11.2644 1.09879 11.4256 0.846151 11.6788 0.791166C12.1957 0.678867 12.7251 0.625164 13.252 0.632008C14.4966 0.614852 15.7295 0.93236 16.8338 1.55003C16.902 1.53411 16.9726 1.52484 17.0455 1.52484H18.3755C18.8959 1.52484 19.3193 1.95422 19.3193 2.48198V2.61837C19.6944 2.73134 20.0557 2.88346 20.3996 3.07323L20.4955 2.97594C20.6734 2.7955 20.9104 2.69612 21.1628 2.69612C21.4152 2.69612 21.6522 2.7955 21.8302 2.97599L22.7709 3.93056C23.1387 4.30362 23.1387 4.91065 22.7709 5.28376L22.6747 5.38138C22.8618 5.7303 23.0119 6.09704 23.1233 6.47776H23.2573C23.7778 6.47771 24.2012 6.90709 24.2012 7.43485V8.7841C24.2012 9.31186 23.7778 9.74124 23.2574 9.74124H23.1233C23.0119 10.122 22.8619 10.4887 22.6747 10.8376L22.771 10.9352C23.1388 11.3083 23.1388 11.9154 22.771 12.2884L21.8302 13.2429C21.6523 13.4233 21.4153 13.5227 21.1629 13.5227C20.9105 13.5227 20.6735 13.4233 20.4955 13.2428L20.3996 13.1455C20.0558 13.3352 19.6945 13.4874 19.3193 13.6004V13.7368C19.3193 14.2645 18.896 14.6939 18.3755 14.6939H17.8862C17.494 15.3027 17.1035 16.0449 16.9236 17.0091C17.3004 17.2867 17.546 17.7365 17.546 18.2437C17.546 18.6511 17.3876 19.0215 17.1304 19.2956C17.3876 19.5695 17.546 19.9395 17.546 20.3466C17.546 21.0611 17.0587 21.6623 16.4033 21.8274V22.7774C16.4033 23.7997 15.5834 24.6313 14.5756 24.6313H11.9301C10.9215 24.6313 10.101 23.7997 10.101 22.7774V21.8273C9.44628 21.6621 8.95962 21.061 8.95962 20.3466C8.95962 19.9395 9.11787 19.5695 9.37489 19.2956C9.11787 19.0215 8.95962 18.6511 8.95962 18.2437C8.95962 17.7362 9.20539 17.286 9.58227 17.0084C9.32736 15.6351 8.64542 14.6934 7.92566 13.6999C7.47214 13.0739 7.01192 12.4378 6.64452 11.6862H5.70027L5.31191 13.39C5.26339 13.6029 5.07041 13.7583 4.8552 13.7583H3.46203C3.26122 14.4225 2.651 14.9068 1.93128 14.9068C1.04783 14.9068 0.329141 14.1784 0.329141 13.2831C0.329141 12.3869 1.04783 11.6579 1.93128 11.6579V11.6579ZM1.802 7.61558C1.43623 7.61558 1.13867 7.91821 1.13867 8.29014C1.13867 8.6614 1.43628 8.96341 1.802 8.96341C2.16772 8.96341 2.46528 8.6614 2.46528 8.29014C2.46533 7.91821 2.16777 7.61558 1.802 7.61558ZM1.93128 2.62279C1.56481 2.62279 1.26664 2.92481 1.26664 3.29602C1.26664 3.66728 1.56477 3.96929 1.93128 3.96929C2.29705 3.96929 2.59461 3.66728 2.59461 3.29602C2.59466 2.92481 2.29705 2.62279 1.93128 2.62279ZM17.0392 13.2335V13.7367C17.0392 13.7395 17.0433 13.7434 17.0455 13.7434H17.6362C17.6373 13.7434 17.6383 13.7434 17.6394 13.7434H18.3755C18.3777 13.7434 18.3818 13.7395 18.3818 13.7367V13.2335C18.3818 13.0112 18.5337 12.8187 18.7475 12.7699C19.2724 12.6499 19.769 12.4407 20.2235 12.1482C20.3007 12.0985 20.3879 12.0742 20.4746 12.0742C20.5957 12.0742 20.7158 12.1217 20.8062 12.2135L21.1586 12.5709C21.1606 12.573 21.1651 12.5729 21.1671 12.5709L22.1078 11.6164C22.1096 11.6146 22.1096 11.6088 22.1078 11.607L21.7555 11.2496C21.6005 11.0923 21.5737 10.847 21.6912 10.6592C21.9795 10.198 22.1857 9.69419 22.304 9.16154C22.3521 8.94469 22.5421 8.79066 22.7613 8.79066H23.2574C23.2596 8.79066 23.2637 8.78676 23.2637 8.78401V7.43475C23.2637 7.43199 23.2596 7.4281 23.2574 7.4281H22.7613C22.5421 7.4281 22.3521 7.27407 22.304 7.05722C22.1857 6.52462 21.9795 6.02072 21.6912 5.55954C21.5737 5.37168 21.6005 5.12641 21.7555 4.96915L22.1078 4.61177C22.1097 4.60992 22.1097 4.60412 22.1078 4.60231L21.1671 3.64793C21.1651 3.64589 21.1606 3.64594 21.1586 3.64793L20.8062 4.00532C20.651 4.16276 20.4088 4.18985 20.2235 4.07061C19.769 3.7781 19.2723 3.56895 18.7475 3.449C18.5336 3.40014 18.3817 3.20758 18.3817 2.9854V2.48212C18.3817 2.47936 18.3777 2.47547 18.3755 2.47547H17.0455C17.0433 2.47547 17.0392 2.47936 17.0392 2.48212V2.9854C17.0392 3.20762 16.8873 3.40019 16.6735 3.449C16.1486 3.5689 15.652 3.77806 15.1975 4.07061C15.0122 4.1899 14.7699 4.16281 14.6147 4.00532L14.2624 3.64793C14.2603 3.64589 14.2558 3.64594 14.2538 3.64793L13.3131 4.60231C13.3113 4.60417 13.3113 4.60997 13.3131 4.61177L13.6654 4.96915C13.8205 5.12646 13.8472 5.37173 13.7297 5.55954C13.4414 6.02072 13.2352 6.52462 13.1169 7.05722C13.0688 7.27407 12.8788 7.4281 12.6596 7.4281H12.1635C12.1613 7.4281 12.1572 7.43199 12.1572 7.43475V8.78401C12.1572 8.78676 12.1613 8.79066 12.1635 8.79066H12.6596C12.8788 8.79066 13.0688 8.94469 13.1169 9.16154C13.2352 9.69419 13.4414 10.198 13.7297 10.6592C13.8472 10.847 13.8205 11.0923 13.6654 11.2496L13.3131 11.607C13.3113 11.6088 13.3113 11.6146 13.3131 11.6164L14.2538 12.5708C14.2558 12.5729 14.2603 12.5729 14.2624 12.5708L14.6147 12.2134C14.7699 12.0559 15.0122 12.0288 15.1975 12.1481C15.6519 12.4406 16.1486 12.6498 16.6735 12.7697C16.8874 12.8187 17.0392 13.0112 17.0392 13.2335V13.2335ZM11.0384 22.7773C11.0384 23.2755 11.4384 23.6808 11.93 23.6808H14.5755C15.0665 23.6808 15.4658 23.2755 15.4658 22.7773V21.8725H11.0385V22.7773H11.0384ZM10.4641 20.922H16.04C16.3535 20.922 16.6084 20.6638 16.6084 20.3465C16.6084 20.0292 16.3535 19.771 16.04 19.771H10.4641C10.1515 19.771 9.89708 20.0292 9.89708 20.3465C9.89713 20.6638 10.1515 20.922 10.4641 20.922ZM10.4641 18.8205H16.04C16.3535 18.8205 16.6084 18.5618 16.6084 18.2437C16.6084 17.9263 16.3535 17.6682 16.04 17.6682H10.4641C10.1515 17.6682 9.89708 17.9264 9.89708 18.2437C9.89713 18.5617 10.1515 18.8205 10.4641 18.8205ZM1.93128 13.9562C2.29705 13.9562 2.59461 13.6542 2.59461 13.283C2.59461 12.911 2.297 12.6084 1.93128 12.6084C1.56481 12.6084 1.26664 12.911 1.26664 13.283C1.26664 13.6542 1.56481 13.9562 1.93128 13.9562Z" fill="black"/>
<path d="M10.0737 2.41062L10.0711 2.41195C10.0039 2.44598 9.93274 2.46209 9.86262 2.46209C9.69091 2.46209 9.52573 2.36542 9.44355 2.19871C9.32777 1.96394 9.42298 1.6778 9.65454 1.56041C9.88605 1.44303 10.1677 1.53817 10.2834 1.77294C10.3992 2.00781 10.3054 2.29324 10.0737 2.41062V2.41062Z" fill="black"/>
</svg>
