<svg width="296" height="246" viewBox="0 0 296 246" fill="none" xmlns="http://www.w3.org/2000/svg">
<g clip-path="url(#clip0)">
<path d="M55.3509 15.6082C58.7884 15.6082 61.5749 12.8121 61.5749 9.36292C61.5749 5.91375 58.7884 3.11765 55.3509 3.11765C51.9135 3.11765 49.127 5.91375 49.127 9.36292C49.127 12.8121 51.9135 15.6082 55.3509 15.6082Z" fill="#F1F1F1"/>
<path d="M84.0336 26.8465C86.202 26.8465 87.9599 25.0827 87.9599 22.9069C87.9599 20.7311 86.202 18.9673 84.0336 18.9673C81.8652 18.9673 80.1074 20.7311 80.1074 22.9069C80.1074 25.0827 81.8652 26.8465 84.0336 26.8465Z" fill="#F1F1F1"/>
<path d="M110.607 37.5715C112.155 37.5715 113.411 36.3118 113.411 34.7578C113.411 33.2039 112.155 31.9442 110.607 31.9442C109.058 31.9442 107.803 33.2039 107.803 34.7578C107.803 36.3118 109.058 37.5715 110.607 37.5715Z" fill="#F1F1F1"/>
<path d="M242.513 15.6082C245.95 15.6082 248.737 12.8121 248.737 9.36292C248.737 5.91375 245.95 3.11765 242.513 3.11765C239.076 3.11765 236.289 5.91375 236.289 9.36292C236.289 12.8121 239.076 15.6082 242.513 15.6082Z" fill="#F1F1F1"/>
<path d="M213.831 26.8465C215.999 26.8465 217.757 25.0827 217.757 22.9069C217.757 20.7311 215.999 18.9673 213.831 18.9673C211.662 18.9673 209.904 20.7311 209.904 22.9069C209.904 25.0827 211.662 26.8465 213.831 26.8465Z" fill="#F1F1F1"/>
<path d="M187.257 37.5715C188.806 37.5715 190.061 36.3118 190.061 34.7578C190.061 33.2039 188.806 31.9442 187.257 31.9442C185.709 31.9442 184.453 33.2039 184.453 34.7578C184.453 36.3118 185.709 37.5715 187.257 37.5715Z" fill="#F1F1F1"/>
<path d="M151.795 225.089C170.199 225.089 185.118 223.384 185.118 221.28C185.118 219.176 170.199 217.471 151.795 217.471C133.392 217.471 118.473 219.176 118.473 221.28C118.473 223.384 133.392 225.089 151.795 225.089Z" fill="#F1F1F1"/>
<path d="M270.341 200.131L45.125 198.608L47.3978 43.741L272.618 47.0689L270.341 200.131Z" fill="#F1F1F1"/>
<path d="M0.367188 245.405H295.632" stroke="#3F3D56" stroke-width="2" stroke-miterlimit="10"/>
<path d="M0.367188 0.344299H295.632" stroke="#3F3D56" stroke-width="2" stroke-miterlimit="10"/>
<path d="M295.656 0.842468L185.094 45.6456V198.544L295.656 245.48V0.842468Z" fill="#3F3D56" stroke="#3F3D56" stroke-width="2" stroke-miterlimit="10"/>
<path d="M194.309 165.831L273.687 184.321" stroke="white" stroke-width="2" stroke-miterlimit="10"/>
<path d="M194.309 153.741L273.687 165.831" stroke="white" stroke-width="2" stroke-miterlimit="10"/>
<path d="M194.309 140.94L273.687 149.474" stroke="white" stroke-width="2" stroke-miterlimit="10"/>
<path d="M263.765 97.5329V116.023L199.979 111.756V97.5329H263.765Z" fill="#00A459"/>
<path opacity="0.2" d="M263.765 97.5329V116.023L199.979 111.756V111.045L262.347 114.601V97.5329H263.765Z" fill="black"/>
<path d="M0.34375 0.842468L110.906 45.6456V198.544L0.34375 245.48V0.842468Z" fill="#3F3D56" stroke="#3F3D56" stroke-width="2" stroke-miterlimit="10"/>
<path d="M101.693 165.831L22.3145 184.321" stroke="white" stroke-width="2" stroke-miterlimit="10"/>
<path d="M101.693 153.741L22.3145 165.831" stroke="white" stroke-width="2" stroke-miterlimit="10"/>
<path d="M101.693 140.94L22.3145 149.474" stroke="white" stroke-width="2" stroke-miterlimit="10"/>
<path d="M32.2363 97.5329V116.023L96.0226 111.756V97.5329H32.2363Z" fill="#00A459"/>
<path opacity="0.2" d="M32.2363 97.5329V116.023L96.0226 111.756V111.045L33.6538 114.601V97.5329H32.2363Z" fill="black"/>
<path d="M121.207 58.0247L176.658 58.7091" stroke="#3F3D56" stroke-width="2" stroke-miterlimit="10"/>
<path d="M123.446 60.8689L123.921 60.3703L121.47 58.0288L123.977 55.7475L123.515 55.2376L120.463 58.0164L123.446 60.8689Z" fill="#3F3D56"/>
<path d="M174.351 61.4972L173.889 60.9869L176.395 58.7067L173.945 56.3641L174.419 55.8659L177.403 58.7191L174.351 61.4972Z" fill="#3F3D56"/>
<path d="M148.933 63.0227C151.495 63.0227 153.573 60.9382 153.573 58.367C153.573 55.7957 151.495 53.7112 148.933 53.7112C146.37 53.7112 144.293 55.7957 144.293 58.367C144.293 60.9382 146.37 63.0227 148.933 63.0227Z" fill="#3F3D56"/>
<path d="M142.727 206.255C142.727 206.255 141.461 211.757 141.883 213.873C142.305 215.99 142.305 220.645 142.305 220.645H143.57V215.566C143.57 215.566 146.945 217.259 147.788 219.799C148.632 222.338 157.49 221.492 157.912 220.645C158.333 219.799 153.694 218.106 153.694 218.106L149.897 206.678L142.727 206.255Z" fill="#2F2E41"/>
<path d="M139.775 156.312C139.775 156.312 141.884 163.93 141.884 166.893C141.884 169.855 140.197 207.948 141.884 207.948C143.572 207.948 150.321 208.794 150.742 207.101C151.164 205.408 149.899 189.748 150.742 188.055C151.586 186.362 157.491 150.386 157.07 149.963C156.648 149.54 141.884 148.27 139.775 156.312Z" fill="#2F2E41"/>
<path d="M138.931 149.116C138.931 149.116 135.135 159.274 138.509 159.274C141.883 159.274 143.993 156.311 146.523 157.158C149.054 158.004 156.647 147.423 156.647 147.423L138.931 149.116Z" fill="#3F3D56"/>
<path d="M154.749 106.58C158.476 106.58 161.498 103.548 161.498 99.8077C161.498 96.0677 158.476 93.0358 154.749 93.0358C151.022 93.0358 148 96.0677 148 99.8077C148 103.548 151.022 106.58 154.749 106.58Z" fill="#FFB9B9"/>
<path d="M158.123 101.924C158.123 101.924 155.171 111.659 156.014 112.928C156.858 114.198 148 112.505 148 112.505C148 112.505 150.953 104.464 150.531 102.771C150.109 101.078 158.123 101.924 158.123 101.924Z" fill="#FFB9B9"/>
<path d="M153.273 108.484C153.273 108.484 149.477 107.215 148.211 108.484C146.946 109.754 142.306 139.805 139.353 142.768C136.401 145.73 134.292 149.963 136.823 150.386C139.353 150.809 160.022 153.349 160.866 152.079C161.709 150.809 161.498 138.323 161.076 135.361C160.655 132.398 157.491 108.908 153.273 108.484Z" fill="#00A459"/>
<path d="M149.898 150.386L151.586 154.619L155.382 151.656L154.96 148.693L149.898 150.386Z" fill="#FFB9B9"/>
<path opacity="0.1" d="M148 115.468C148 115.468 147.789 110.177 145.258 116.949C142.727 123.721 137.244 132.61 141.884 139.382C146.523 146.154 146.652 149.108 148.843 148.905C151.035 148.701 157.912 151.233 157.912 150.386C157.912 149.54 149.898 136.419 149.898 136.419C149.69 135.203 149.773 133.955 150.14 132.778C150.506 131.601 151.146 130.528 152.007 129.647C154.96 126.684 153.483 116.738 148 115.468Z" fill="black"/>
<path d="M150.741 110.177C150.741 110.177 146.101 109.331 143.571 116.103C141.04 122.875 135.556 131.763 140.196 138.535C144.836 145.307 147.201 152.063 149.393 151.859C151.585 151.656 156.225 150.386 156.225 149.54C156.225 148.693 148.21 135.572 148.21 135.572C148.003 134.357 148.086 133.109 148.452 131.931C148.819 130.754 149.459 129.681 150.319 128.8C153.272 125.838 156.225 111.447 150.741 110.177Z" fill="#00A459"/>
<path d="M152.657 89.6738C149.187 89.1818 145.765 91.3886 143.845 94.3313C141.926 97.2741 141.231 100.836 140.725 104.316C140.624 105.368 140.384 106.401 140.011 107.389C139.172 109.323 137.273 110.782 136.964 112.868C136.768 114.187 137.258 115.497 137.514 116.806C138.193 120.282 137.186 123.938 135.339 126.957C134.514 128.305 133.312 129.666 131.736 129.715L135.038 130.228C134.48 131.453 133.514 132.443 132.306 133.029C136.236 132.535 139.863 130.656 142.543 127.729C145.222 124.802 146.779 121.015 146.937 117.044C146.985 115.845 146.927 114.558 147.576 113.55C148.138 112.678 149.118 112.194 150.009 111.665C153.07 109.85 155.627 106.84 156.035 103.297C156.215 101.739 155.978 100.18 155.917 98.6234C155.852 96.983 158.597 95.8759 158.967 94.3055C159.529 91.9189 154.841 89.9834 152.657 89.6738Z" fill="#2F2E41"/>
</g>
<defs>
<clipPath id="clip0">
<rect width="296" height="246" fill="white"/>
</clipPath>
</defs>
</svg>
