<svg width="64" height="64" viewBox="0 0 64 64" fill="none" xmlns="http://www.w3.org/2000/svg">
<path d="M31.6237 17.396C32.7598 17.4133 33.8879 17.2046 34.9425 16.7818C35.9971 16.3591 36.9571 15.7308 37.7666 14.9336C38.5762 14.1363 39.219 13.1861 39.6578 12.138C40.0966 11.09 40.3226 9.96517 40.3226 8.82899C40.3226 7.69281 40.0966 6.56797 39.6578 5.51994C39.219 4.47192 38.5762 3.52163 37.7666 2.72439C36.9571 1.92715 35.9971 1.29888 34.9425 0.876135C33.8879 0.453394 32.7598 0.244628 31.6237 0.261986C26.8917 0.261986 23.0537 4.09799 23.0537 8.82799C23.0542 11.1005 23.9574 13.2798 25.5645 14.8866C27.1716 16.4934 29.3512 17.396 31.6237 17.396Z" fill="#C487C4"/>
<path d="M42.929 20.003H32.842V28.003L34.697 28.457V26.602C34.697 25.397 35.795 24.303 37.799 25.65C40.622 27.553 43.661 38.362 40.365 37.936C38.774 37.733 37.875 36.961 36.123 36.863C34.7 36.79 34.7 36.178 34.698 35.373C34.696 34.568 34.698 31.984 34.698 31.984V30.544C34.0792 30.3951 33.4608 30.2441 32.843 30.091V39.984C32.843 39.984 35.624 38.093 37.613 39.634C38.867 40.609 39.652 43.415 35.773 45.702C34.878 46.247 30.005 47.536 28.476 44.666H26.751C26.3765 44.666 26.0174 44.8148 25.7526 45.0796C25.4878 45.3444 25.339 45.7035 25.339 46.078C25.339 46.4525 25.4878 46.8116 25.7526 47.0764C26.0174 47.3412 26.3765 47.49 26.751 47.49H36.966C37.7426 47.4911 38.487 47.8002 39.036 48.3495C39.5849 48.8988 39.8935 49.6434 39.894 50.42C39.8935 51.1964 39.5848 51.9408 39.0358 52.4898C38.4868 53.0388 37.7424 53.3475 36.966 53.348H26.396C26.2304 53.3609 26.0757 53.4359 25.9628 53.5578C25.85 53.6798 25.7873 53.8398 25.7873 54.006C25.7873 54.1722 25.85 54.3322 25.9628 54.4542C26.0757 54.5761 26.2304 54.6511 26.396 54.664H36.966C38.58 54.664 39.894 55.978 39.894 57.594C39.894 59.21 38.58 60.522 36.966 60.522H24.604C24.3027 60.522 24.0138 60.4023 23.8007 60.1893C23.5877 59.9762 23.468 59.6873 23.468 59.386C23.468 59.0847 23.5877 58.7958 23.8007 58.5827C24.0138 58.3697 24.3027 58.25 24.604 58.25H36.966C37.136 58.2434 37.2967 58.1712 37.4146 58.0486C37.5325 57.926 37.5984 57.7626 37.5984 57.5925C37.5984 57.4224 37.5325 57.259 37.4146 57.1364C37.2967 57.0138 37.136 56.9416 36.966 56.935H26.396C25.6199 56.9337 24.8759 56.6248 24.3271 56.0759C23.7782 55.5271 23.4693 54.7831 23.468 54.007C23.4685 53.2302 23.7771 52.4854 24.3259 51.9358C24.8748 51.3861 25.6192 51.0766 26.396 51.075H36.966C37.134 51.0657 37.292 50.9925 37.4077 50.8703C37.5233 50.7481 37.5877 50.5862 37.5877 50.418C37.5877 50.2498 37.5233 50.0879 37.4077 49.9657C37.292 49.8435 37.134 49.7703 36.966 49.761H26.751C25.775 49.7594 24.8394 49.3708 24.1495 48.6803C23.4597 47.9899 23.0718 47.054 23.071 46.078C23.0718 45.1019 23.4596 44.1659 24.1495 43.4753C24.8393 42.7847 25.7749 42.3959 26.751 42.394H29.031C29.046 42.394 29.058 42.402 29.073 42.402H29.849C30.603 42.402 30.574 41.604 30.572 41.604V30.21L28.719 30.724V31.983C28.719 31.983 28.721 34.567 28.719 35.372C28.719 36.177 28.713 36.789 27.294 36.863C25.544 36.961 24.645 37.733 23.05 37.936C19.755 38.361 22.796 27.553 25.613 25.649C27.616 24.301 28.719 25.395 28.719 26.601V28.617L30.572 28.105V20H20.929C14.866 20 9.45801 24.913 9.45801 30.975V57.542C9.45801 59.615 11.089 61.296 13.157 61.296C13.6498 61.296 14.1378 61.1989 14.593 61.0102C15.0482 60.8215 15.4618 60.5449 15.8101 60.1962C16.1583 59.8476 16.4345 59.4337 16.6227 58.9783C16.8109 58.5229 16.9075 58.0348 16.907 57.542V33.588H20.013V62.589H43.367V33.588H46.506V57.542C46.506 59.615 48.185 61.296 50.257 61.296C52.329 61.296 53.959 59.615 53.959 57.542V30.975C53.958 24.916 48.991 20.003 42.93 20.003H42.929Z" fill="#C487C4"/>
</svg>
