<svg width="97" height="100" viewBox="0 0 97 100" fill="none" xmlns="http://www.w3.org/2000/svg">
<path d="M48.5232 74.9453C29.1914 75 9.13965 80.6719 9.13965 94.5234V96.8984H87.9067V94.5234C87.9067 80.6641 67.855 74.9922 48.5232 74.9453Z" fill="url(#paint0_radial)"/>
<path d="M74.9471 62.3828C73.9998 60.6094 75.2048 58.8047 77.266 56.5703C80.5322 53.0234 84.0863 44.7969 80.7823 36.4453C80.805 36.3984 80.1305 34.9922 80.1533 34.9453L78.7968 34.875C78.3648 34.8125 63.4435 34.7812 48.507 34.7812C33.5706 34.7812 18.6492 34.8125 18.2173 34.875C18.2173 34.875 16.2091 36.3984 16.2242 36.4453C12.9277 44.7969 16.4743 53.0156 19.7405 56.5703C21.7941 58.8047 22.9991 60.6094 22.0594 62.3828C21.1424 64.1094 18.4143 64.3594 18.4143 64.3594C18.4143 64.3594 19.0433 66.125 20.5589 67.0781C21.9609 67.9609 23.6887 68.1641 24.8784 68.1953C24.8784 68.1953 29.539 74.8438 41.7246 74.8438H55.2895C67.4751 74.8438 72.1356 68.1953 72.1356 68.1953C73.3254 68.1641 75.0532 67.9609 76.4552 67.0781C77.9708 66.125 78.5998 64.3594 78.5998 64.3594C78.5998 64.3594 75.8641 64.1094 74.9471 62.3828Z" fill="#312D2D"/>
<path d="M48.4922 74.8359V67.4609L70.1429 65.6953L72.1132 68.1953C72.1132 68.1953 67.4527 74.8438 55.267 74.8438L48.4922 74.8359Z" fill="url(#paint1_radial)"/>
<path d="M72.0679 64.9688C68.8244 59.8906 76.0161 57.9922 76.0161 57.9922L76.0236 58C74.7732 59.6016 74.2049 61 74.94 62.3828C75.8569 64.1094 78.585 64.3594 78.585 64.3594C78.585 64.3594 74.8642 67.7656 72.0679 64.9688Z" fill="url(#paint2_radial)"/>
<path d="M80.7977 36.4453C84.0184 44.5313 80.631 52.8594 77.4558 56.375C77.0238 56.8594 75.1747 58.7266 74.7504 60.2188C74.7504 60.2188 67.5208 49.8203 65.3611 43.7109C64.9291 42.4766 64.5275 41.2109 64.4744 39.8984C64.4365 38.9141 64.5805 37.7422 65.1337 36.9063C65.8082 35.8828 80.4112 35.5781 80.4112 35.5781C80.4112 35.5859 80.7977 36.4453 80.7977 36.4453Z" fill="url(#paint3_radial)"/>
<path d="M16.2176 36.4453C13.0045 44.5313 16.3919 52.8594 19.5596 56.3672C19.9991 56.8516 21.8406 58.7188 22.265 60.2109C22.265 60.2109 29.4945 49.8125 31.6543 43.7031C32.0938 42.4688 32.4879 41.2031 32.5409 39.8906C32.5788 38.9063 32.4348 37.7344 31.8816 36.8984C31.2071 35.875 30.419 36.1484 29.2747 36.1484C27.0922 36.1484 17.5362 35.5703 16.7936 35.5703C16.8011 35.5859 16.2176 36.4453 16.2176 36.4453Z" fill="url(#paint4_radial)"/>
<path d="M48.5224 74.8359V67.4609L26.8717 65.6953L24.9014 68.1953C24.9014 68.1953 29.5619 74.8438 41.7475 74.8438L48.5224 74.8359Z" fill="url(#paint5_radial)"/>
<path d="M24.9469 64.9688C28.1903 59.8906 20.9987 57.9922 20.9987 57.9922L20.9911 58C22.2415 59.6016 22.8098 61 22.0748 62.3828C21.1578 64.1094 18.4297 64.3594 18.4297 64.3594C18.4297 64.3594 22.1505 67.7656 24.9469 64.9688Z" fill="url(#paint6_radial)"/>
<path d="M41.6191 70.375V86.75C41.6191 90.8594 44.423 94.1953 47.8787 94.1953H49.1291C52.5847 94.1953 55.3886 90.8672 55.3886 86.75V70.375H41.6191Z" fill="#EDC391"/>
<path d="M39.9062 79.6875L42.8238 96.875H54.4866L57.0934 79.6875H39.9062Z" fill="#81D4FA"/>
<path d="M55.4109 75.1328C59.8972 75.4688 61.9963 75.8672 61.9963 75.8672L64.3683 81.5703L60.3898 85L62.5344 89.8203L58.3058 96.8438H53.0996L55.4109 75.1328Z" fill="url(#paint7_linear)"/>
<path d="M41.6116 75.1328C37.1254 75.4688 35.0263 75.8672 35.0263 75.8672L32.6543 81.5703L36.6328 85L34.4882 89.8203L38.7168 96.8438H43.923L41.6116 75.1328Z" fill="url(#paint8_linear)"/>
<path d="M24.9619 81.5078C26.1517 80.8672 27.5385 79.9297 28.1826 79.3516C29.6376 78.0469 33.0857 74.6875 35.6546 77.0547C38.4282 79.5625 35.5789 83.5156 34.48 85.1563C33.9344 85.9766 33.5176 86.8828 33.1766 87.8047" stroke="#03A9F4" stroke-width="3" stroke-miterlimit="10"/>
<path d="M22.5749 86.9922C22.2035 87.0547 21.8019 87.2188 21.4078 86.8281C21.1502 86.5703 20.8243 85.8359 20.9152 85.2031C21.0062 84.5625 21.6958 84.2969 23.1659 83.6484C24.3102 83.1484 25.3636 82.6406 26.3184 81.9766L24.8938 80.1484C24.8938 80.1484 23.2493 81.1016 22.3551 81.4609C20.7713 82.0859 18.9677 82.7969 18.6721 84.8594C18.3538 87.0781 19.536 88.6563 20.4454 89.3672C21.1881 89.9531 21.9004 90.2344 22.59 90.2813C23.6585 90.3516 24.3709 89.6328 24.3709 88.5234C24.3709 87.4141 23.3175 86.8672 22.5749 86.9922Z" fill="url(#paint9_linear)"/>
<path d="M28.0618 91.2422C28.0543 91.6328 27.9558 92.0625 28.3877 92.4063C28.6757 92.6328 29.4259 92.8594 30.017 92.6797C30.6157 92.4922 30.7748 91.7578 31.184 90.1641C31.5023 88.9297 31.8358 87.7734 32.3359 86.7031L34.2911 87.8906C34.2911 87.8906 33.609 89.7031 33.3968 90.6719C33.0255 92.3828 32.6011 94.3203 30.6611 94.9141C28.5772 95.5625 26.8872 94.5703 26.0764 93.75C25.4095 93.0703 25.0382 92.3906 24.8942 91.6875C24.6744 90.6094 25.2655 89.7734 26.3265 89.6172C27.3874 89.4609 28.077 90.4609 28.0618 91.2422Z" fill="url(#paint10_linear)"/>
<path d="M41.7553 73.2422C38.2466 73.3125 35.7459 75.1563 34.791 76.2969L36.5112 77.8281C36.534 77.8047 38.3679 75.6875 41.7553 75.5938V73.2422Z" fill="#03A9F4"/>
<path d="M65.3688 80.0625C63.5273 75.7891 60.678 74.1641 59.1472 73.5781C57.7452 73.0391 56.3812 72.8203 55.3809 72.7344V75.0859C56.1993 75.1641 57.2678 75.3516 58.3591 75.7734C59.5564 76.2344 61.7919 77.5234 63.2924 81.0156C65.3991 85.9062 65.9296 87.1797 65.9372 87.1797L68.0212 86.25C68.0212 86.25 67.4907 84.9844 65.3688 80.0625Z" fill="#03A9F4"/>
<path d="M68.3545 94.5781C71.2842 94.5781 73.6592 92.1297 73.6592 89.1094C73.6592 86.0891 71.2842 83.6406 68.3545 83.6406C65.4248 83.6406 63.0498 86.0891 63.0498 89.1094C63.0498 92.1297 65.4248 94.5781 68.3545 94.5781Z" fill="url(#paint11_linear)"/>
<path d="M68.3545 92.2344C70.0286 92.2344 71.3857 90.8353 71.3857 89.1094C71.3857 87.3835 70.0286 85.9844 68.3545 85.9844C66.6804 85.9844 65.3232 87.3835 65.3232 89.1094C65.3232 90.8353 66.6804 92.2344 68.3545 92.2344Z" fill="#9E9E9E"/>
<path d="M69.2111 39.3984H27.789C23.3255 39.3984 19.6729 43.4141 19.6729 48.3125C19.6729 53.2109 23.3255 57.2266 27.789 57.2266H69.2035C73.667 57.2266 77.3196 53.2109 77.3196 48.3125C77.3196 43.4141 73.6746 39.3984 69.2111 39.3984Z" fill="#EDC391"/>
<path d="M48.4995 8.64844C35.3136 8.64844 23.0977 23.1875 23.0977 44.1172C23.0977 64.9297 35.6849 75.2188 48.4995 75.2188C61.3141 75.2188 73.9014 64.9219 73.9014 44.1094C73.9014 23.1875 61.6855 8.64844 48.4995 8.64844Z" fill="#F9DDBD"/>
<path d="M41.5284 38.9219C40.8236 37.9609 39.2019 36.5703 36.0494 36.5703C32.8969 36.5703 31.2676 37.9687 30.5704 38.9219C30.2597 39.3438 30.3355 39.8359 30.5553 40.1328C30.7523 40.4063 31.3434 40.6641 31.9951 40.4375C32.6468 40.2109 33.92 39.5313 36.0494 39.5156C38.1789 39.5313 39.452 40.2109 40.1037 40.4375C40.7554 40.6641 41.3465 40.4141 41.5436 40.1328C41.7557 39.8359 41.8391 39.3438 41.5284 38.9219Z" fill="#454140"/>
<path d="M66.4376 38.9219C65.7328 37.9609 64.1111 36.5703 60.9586 36.5703C57.8061 36.5703 56.1768 37.9687 55.4796 38.9219C55.1689 39.3438 55.2447 39.8359 55.4645 40.1328C55.6615 40.4063 56.2526 40.6641 56.9043 40.4375C57.556 40.2109 58.8291 39.5313 60.9586 39.5156C63.088 39.5313 64.3612 40.2109 65.0129 40.4375C65.6646 40.6641 66.2557 40.4141 66.4527 40.1328C66.6649 39.8359 66.7483 39.3438 66.4376 38.9219Z" fill="#454140"/>
<path d="M36.0417 49.9297C38.105 49.9297 39.7777 48.1458 39.7777 45.9453C39.7777 43.7448 38.105 41.9609 36.0417 41.9609C33.9783 41.9609 32.3057 43.7448 32.3057 45.9453C32.3057 48.1458 33.9783 49.9297 36.0417 49.9297Z" fill="#312D2D"/>
<path d="M60.9587 49.9297C63.022 49.9297 64.6947 48.1458 64.6947 45.9453C64.6947 43.7448 63.022 41.9609 60.9587 41.9609C58.8953 41.9609 57.2227 43.7448 57.2227 45.9453C57.2227 48.1458 58.8953 49.9297 60.9587 49.9297Z" fill="#312D2D"/>
<path d="M54.8807 59.4844C52.4709 60.961 44.5518 60.961 42.1419 59.4844C40.7551 58.6329 39.338 59.9375 39.9139 61.2344C40.4823 62.5078 44.7943 65.4688 48.5303 65.4688C52.2663 65.4688 56.5252 62.5078 57.0935 61.2344C57.6619 59.9375 56.2675 58.6329 54.8807 59.4844Z" fill="#444444"/>
<path d="M51.4253 53.1719C51.342 53.1406 51.2662 53.1172 51.1828 53.1094H45.8175C45.7342 53.1172 45.6508 53.1406 45.575 53.1719C45.09 53.375 44.8248 53.8906 45.0521 54.4453C45.2795 55 46.348 56.5469 48.5002 56.5469C50.6524 56.5469 51.7209 54.9922 51.9482 54.4453C52.1756 53.8906 51.9103 53.375 51.4253 53.1719Z" fill="#DBA689"/>
<path d="M78.8657 19.6172C77.0166 16.7344 72.8714 12.8672 69.1505 12.6094C68.5518 8.92188 64.7249 5.79688 61.0192 4.58594C50.9933 1.3125 44.4686 4.98438 40.9675 6.95313C40.24 7.35938 35.534 10.0547 32.245 8.125C30.1838 6.91406 30.2217 3.64063 30.2217 3.64063C30.2217 3.64063 23.7651 6.17969 25.9704 13.25C23.75 13.3438 20.84 14.3125 19.3016 17.5234C17.4677 21.3516 18.1194 24.5469 18.6499 26.0781C16.7402 27.75 14.3379 31.3047 15.9824 35.9219C17.2252 39.3984 22.1737 41 22.1737 41C21.8251 47.2578 22.9543 51.1094 23.5529 52.6641C23.659 52.9375 24.0304 52.9141 24.0986 52.6328C24.8488 49.5313 27.4102 38.7266 27.1525 36.8438C27.1525 36.8438 35.7537 35.0859 43.9532 28.8594C45.6204 27.5938 47.4316 26.5156 49.3564 25.7266C59.6551 21.5 61.8073 28.7109 61.8073 28.7109C61.8073 28.7109 68.9459 27.2969 71.0981 37.5156C71.909 41.3438 72.4546 47.4766 72.9168 51.7656C72.9472 52.0703 73.3488 52.1328 73.4625 51.8516C74.1824 50.1484 75.6222 46.7734 75.9632 43.3281C76.0845 42.1172 79.2522 40.5156 80.6162 35.3125C82.4425 28.375 80.207 21.7031 78.8657 19.6172Z" fill="#312D2D"/>
<path d="M75.9475 43.3594C76.0687 42.1484 79.2364 40.5469 80.6004 35.3438C80.7444 34.7891 80.8657 34.2266 80.9793 33.6641C82.0857 27.3438 80.1003 21.5391 78.865 19.6172C77.1524 16.9531 73.4846 13.4531 70.0062 12.7344C69.7031 12.6953 69.4075 12.6562 69.1272 12.6406C69.1272 12.6406 69.3772 14.3203 68.7179 15.6563C67.8692 17.3906 66.1338 17.8047 66.1338 17.8047C75.2048 27.1641 74.5607 34.9922 75.9475 43.3594Z" fill="url(#paint12_radial)"/>
<path d="M43.1572 5.77344C42.3236 6.1875 41.5961 6.60156 40.9596 6.95312C40.2321 7.35937 35.526 10.0547 32.2371 8.125C30.2138 6.9375 30.2138 3.76562 30.2138 3.65625C29.2817 4.88281 26.4626 13.6406 34.7076 14.2266C38.2617 14.4766 40.4518 11.2812 41.7553 8.57812C42.2251 7.59375 42.9602 6.15625 43.1572 5.77344Z" fill="url(#paint13_radial)"/>
<path d="M59.9877 4.27418C65.5349 5.82105 68.2403 8.73511 69.1421 12.6179C69.4073 13.7586 69.7256 24.3992 50.0225 12.3054C42.6944 7.80543 44.6951 4.99293 45.5514 4.67261C48.9009 3.42261 53.7737 2.5398 59.9877 4.27418Z" fill="url(#paint14_radial)"/>
<path d="M30.1905 3.65625C30.1829 3.66406 30.1678 3.66406 30.1451 3.67969H30.1375C29.4327 3.98438 23.8931 6.63281 25.9619 13.25L31.8577 14.2266C26.6364 8.77344 30.2133 3.64062 30.2133 3.64062C30.2133 3.64062 30.1981 3.64844 30.1905 3.65625Z" fill="url(#paint15_radial)"/>
<path d="M29.6075 13.8516L25.9624 13.25C25.8185 13.25 25.3335 13.2969 25.0682 13.3359C23.0146 13.6328 20.5971 14.7266 19.2861 17.5234C17.8766 20.5391 17.9145 23.125 18.301 24.8516C18.4146 25.4297 18.642 26.0859 18.642 26.0859C18.642 26.0859 20.4456 24.3203 24.7424 24.2031L29.6075 13.8516Z" fill="url(#paint16_radial)"/>
<path d="M18.4676 26.2344C16.6715 27.875 14.2541 31.5391 16.035 36.0859C17.3763 39.5156 22.1657 41 22.1657 41C22.1657 41.0156 23.1205 41.3125 23.6131 41.3125L24.7347 24.2031C22.4385 24.2031 20.2333 24.9141 18.8086 25.9375C18.8313 25.9609 18.46 26.2109 18.4676 26.2344Z" fill="url(#paint17_radial)"/>
<defs>
<radialGradient id="paint0_radial" cx="0" cy="0" r="1" gradientUnits="userSpaceOnUse" gradientTransform="translate(48.6094 96.5132) rotate(179.754) scale(56.8476 31.7068)">
<stop offset="0.559" stop-color="#F5F5F5"/>
<stop offset="1" stop-color="#C6C6C6"/>
</radialGradient>
<radialGradient id="paint1_radial" cx="0" cy="0" r="1" gradientUnits="userSpaceOnUse" gradientTransform="translate(59.5509 64.1801) scale(17.7472 8.98705)">
<stop offset="0.728" stop-color="#454140" stop-opacity="0"/>
<stop offset="1" stop-color="#454140"/>
</radialGradient>
<radialGradient id="paint2_radial" cx="0" cy="0" r="1" gradientUnits="userSpaceOnUse" gradientTransform="translate(77.0322 61.4574) rotate(154.247) scale(5.27406 3.98861)">
<stop offset="0.663" stop-color="#454140"/>
<stop offset="1" stop-color="#454140" stop-opacity="0"/>
</radialGradient>
<radialGradient id="paint3_radial" cx="0" cy="0" r="1" gradientUnits="userSpaceOnUse" gradientTransform="translate(63.4398 46.1652) rotate(-94.1504) scale(23.745 19.2025)">
<stop offset="0.725" stop-color="#454140" stop-opacity="0"/>
<stop offset="1" stop-color="#454140"/>
</radialGradient>
<radialGradient id="paint4_radial" cx="0" cy="0" r="1" gradientUnits="userSpaceOnUse" gradientTransform="translate(33.5779 46.1647) rotate(-85.8496) scale(23.745 19.2025)">
<stop offset="0.725" stop-color="#454140" stop-opacity="0"/>
<stop offset="1" stop-color="#454140"/>
</radialGradient>
<radialGradient id="paint5_radial" cx="0" cy="0" r="1" gradientUnits="userSpaceOnUse" gradientTransform="translate(37.4651 64.1801) rotate(180) scale(17.7472 8.98705)">
<stop offset="0.728" stop-color="#454140" stop-opacity="0"/>
<stop offset="1" stop-color="#454140"/>
</radialGradient>
<radialGradient id="paint6_radial" cx="0" cy="0" r="1" gradientUnits="userSpaceOnUse" gradientTransform="translate(19.9854 61.4579) rotate(25.7525) scale(5.27406 3.98861)">
<stop offset="0.663" stop-color="#454140"/>
<stop offset="1" stop-color="#454140" stop-opacity="0"/>
</radialGradient>
<linearGradient id="paint7_linear" x1="58.7324" y1="91.207" x2="58.7324" y2="75.4234" gradientUnits="userSpaceOnUse">
<stop offset="0.335" stop-color="#E0E0E0"/>
<stop offset="0.668" stop-color="#D0D0D0"/>
<stop offset="0.987" stop-color="#BDBDBD"/>
</linearGradient>
<linearGradient id="paint8_linear" x1="38.2924" y1="91.207" x2="38.2924" y2="75.4234" gradientUnits="userSpaceOnUse">
<stop offset="0.335" stop-color="#E0E0E0"/>
<stop offset="0.668" stop-color="#D0D0D0"/>
<stop offset="0.987" stop-color="#BDBDBD"/>
</linearGradient>
<linearGradient id="paint9_linear" x1="25.7705" y1="81.632" x2="18.3933" y2="89.872" gradientUnits="userSpaceOnUse">
<stop stop-color="#757575"/>
<stop offset="1"/>
</linearGradient>
<linearGradient id="paint10_linear" x1="32.4443" y1="87.607" x2="25.067" y2="95.8462" gradientUnits="userSpaceOnUse">
<stop stop-color="#757575"/>
<stop offset="1"/>
</linearGradient>
<linearGradient id="paint11_linear" x1="66.5782" y1="85.2406" x2="70.8582" y2="94.0266" gradientUnits="userSpaceOnUse">
<stop stop-color="#757575"/>
<stop offset="1"/>
</linearGradient>
<radialGradient id="paint12_radial" cx="0" cy="0" r="1" gradientUnits="userSpaceOnUse" gradientTransform="translate(62.1529 33.6339) rotate(72.5896) scale(27.7599 20.0916)">
<stop offset="0.699" stop-color="#454140" stop-opacity="0"/>
<stop offset="1" stop-color="#454140"/>
</radialGradient>
<radialGradient id="paint13_radial" cx="0" cy="0" r="1" gradientUnits="userSpaceOnUse" gradientTransform="translate(35.8299 3.28244) rotate(28.9355) scale(7.12988 8.59484)">
<stop offset="0.58" stop-color="#454140"/>
<stop offset="1" stop-color="#454140" stop-opacity="0"/>
</radialGradient>
<radialGradient id="paint14_radial" cx="0" cy="0" r="1" gradientUnits="userSpaceOnUse" gradientTransform="translate(51.6531 16.5392) rotate(-156.56) scale(22.2472 12.7692)">
<stop offset="0.699" stop-color="#454140" stop-opacity="0"/>
<stop offset="1" stop-color="#454140"/>
</radialGradient>
<radialGradient id="paint15_radial" cx="0" cy="0" r="1" gradientUnits="userSpaceOnUse" gradientTransform="translate(32.9861 9.9413) scale(6.49824 8.19515)">
<stop offset="0.702" stop-color="#454140" stop-opacity="0"/>
<stop offset="1" stop-color="#454140"/>
</radialGradient>
<radialGradient id="paint16_radial" cx="0" cy="0" r="1" gradientUnits="userSpaceOnUse" gradientTransform="translate(32.0915 21.7667) rotate(-164.499) scale(12.2141 11.734)">
<stop offset="0.66" stop-color="#454140" stop-opacity="0"/>
<stop offset="1" stop-color="#454140"/>
</radialGradient>
<radialGradient id="paint17_radial" cx="0" cy="0" r="1" gradientUnits="userSpaceOnUse" gradientTransform="translate(29.2029 33.8991) rotate(8.07267) scale(12.8043 18.527)">
<stop offset="0.598" stop-color="#454140" stop-opacity="0"/>
<stop offset="1" stop-color="#454140"/>
</radialGradient>
</defs>
</svg>
