<svg width="67" height="123" viewBox="0 0 67 123" fill="none" xmlns="http://www.w3.org/2000/svg">
<path d="M4.03125 122.016H64.6778V36.7166C64.6778 32.1999 60.8411 28.5254 56.1254 28.5254L12.5836 28.5254C7.86777 28.5254 4.03125 32.1999 4.03125 36.7166L4.03125 122.016Z" fill="#E6E6E6"/>
<path d="M8.71484 118.488H60.12L60.12 46.187C60.12 42.3585 56.868 39.2439 52.8708 39.2439H15.964C11.9668 39.2439 8.71484 42.3585 8.71484 46.187L8.71484 118.488Z" fill="white"/>
<path d="M2.71858 21.895C1.21961 21.895 0 23.0631 0 24.4988L0 32.0148C0 33.4504 1.21961 34.6185 2.71858 34.6185H64.2816C65.7805 34.6185 67 33.4504 67 32.0148V24.4988C67 23.0631 65.7805 21.895 64.2816 21.895L2.71858 21.895Z" fill="#3F3D56"/>
<path d="M16.8844 109.52C16.1807 109.522 15.5063 109.847 15.0087 110.424C14.5111 111.002 14.2306 111.783 14.2285 112.6C14.2306 113.416 14.511 114.198 15.0087 114.775C15.5063 115.352 16.1807 115.677 16.8844 115.679H21.8558V109.52H16.8844Z" fill="#3F3D56"/>
<path d="M26.4192 109.387H21.584V115.547H26.4192C27.1229 115.545 27.7973 115.219 28.2949 114.642C28.7925 114.065 29.073 113.283 29.0751 112.467C29.073 111.651 28.7925 110.869 28.2949 110.292C27.7973 109.715 27.1229 109.39 26.4192 109.387Z" fill="#45AD7D"/>
<path opacity="0.2" d="M28.1581 110.142C28.5769 110.699 28.808 111.412 28.8085 112.151C28.8065 112.967 28.526 113.749 28.0284 114.326C27.5307 114.903 26.8564 115.229 26.1526 115.231H21.5898V115.547H26.425C27.1288 115.545 27.8031 115.219 28.3008 114.642C28.7984 114.065 29.0789 113.283 29.0809 112.467C29.0803 112.025 28.9975 111.589 28.8383 111.188C28.679 110.786 28.447 110.43 28.1581 110.142Z" fill="white"/>
<path d="M38.4857 62.7626C38.0015 62.1704 37.3348 61.8245 36.6314 61.8004C35.9279 61.7763 35.2448 62.076 34.7313 62.6341C34.2206 63.1956 33.9223 63.9686 33.9016 64.7843C33.8808 65.6001 34.1392 66.3922 34.6205 66.9876L38.0305 71.1824L41.8957 66.9574L38.4857 62.7626Z" fill="#3F3D56"/>
<path d="M45.1155 70.7359L41.7989 66.656L37.9336 70.881L41.2502 74.9609C41.7344 75.5531 42.4011 75.899 43.1045 75.9231C43.808 75.9472 44.4911 75.6475 45.0046 75.0894C45.5153 74.5279 45.8136 73.7549 45.8344 72.9392C45.8552 72.1234 45.5967 71.3313 45.1155 70.7359Z" fill="#45AD7D"/>
<path opacity="0.2" d="M45.8661 72.7158C45.8039 73.4512 45.5145 74.1357 45.0512 74.6431C44.5376 75.2011 43.8545 75.5008 43.1511 75.4767C42.4476 75.4527 41.781 75.1067 41.2967 74.5145L38.167 70.6646L37.9688 70.8812L41.2853 74.9611C41.7696 75.5533 42.4362 75.8992 43.1397 75.9233C43.8432 75.9473 44.5263 75.6477 45.0398 75.0896C45.3166 74.7861 45.5337 74.4169 45.6763 74.0072C45.8189 73.5975 45.8836 73.1571 45.8661 72.7158Z" fill="white"/>
<path d="M24.515 72.7292C24.0308 72.137 23.3642 71.7911 22.6607 71.767C21.9572 71.7429 21.2741 72.0426 20.7606 72.6006C20.2499 73.1621 19.9516 73.9352 19.9308 74.7509C19.9101 75.5666 20.1685 76.3587 20.6498 76.9542L24.0598 81.149L27.9251 76.9239L24.515 72.7292Z" fill="#3F3D56"/>
<path d="M31.1408 80.7024L27.8242 76.6226L23.959 80.8476L27.2756 84.9274C27.7598 85.5196 28.4265 85.8655 29.1299 85.8896C29.8334 85.9137 30.5165 85.614 31.03 85.056C31.5407 84.4945 31.839 83.7214 31.8598 82.9057C31.8805 82.09 31.6221 81.2979 31.1408 80.7024Z" fill="#45AD7D"/>
<path opacity="0.2" d="M31.8915 82.6818C31.8293 83.4172 31.5398 84.1018 31.0765 84.6091C30.563 85.1672 29.8799 85.4669 29.1765 85.4428C28.473 85.4187 27.8064 85.0728 27.3221 84.4806L24.1924 80.6306L23.9941 80.8473L27.3107 84.9271C27.795 85.5193 28.4616 85.8652 29.1651 85.8893C29.8685 85.9134 30.5516 85.6137 31.0651 85.0557C31.3419 84.7521 31.559 84.3829 31.7016 83.9733C31.8442 83.5636 31.909 83.1231 31.8915 82.6818Z" fill="white"/>
<path d="M38.8275 81.5128C38.3433 80.9207 37.6766 80.5747 36.9732 80.5507C36.2697 80.5266 35.5866 80.8263 35.0731 81.3843C34.5624 81.9458 34.2641 82.7189 34.2433 83.5346C34.2226 84.3503 34.481 85.1424 34.9623 85.7379L38.3723 89.9327L42.2375 85.7076L38.8275 81.5128Z" fill="#3F3D56"/>
<path d="M45.4534 89.4861L42.1368 85.4062L38.2715 89.6313L41.5881 93.7111C42.0723 94.3033 42.739 94.6492 43.4424 94.6733C44.1459 94.6974 44.829 94.3977 45.3425 93.8396C45.8532 93.2781 46.1515 92.5051 46.1723 91.6894C46.1931 90.8737 45.9346 90.0815 45.4534 89.4861Z" fill="#45AD7D"/>
<path opacity="0.2" d="M46.204 91.4655C46.1418 92.2009 45.8524 92.8854 45.3891 93.3928C44.8755 93.9508 44.1924 94.2506 43.489 94.2265C42.7855 94.2024 42.1189 93.8565 41.6346 93.2643L38.5049 89.4143L38.3066 89.631L41.6232 93.7108C42.1075 94.303 42.7741 94.6489 43.4776 94.673C44.1811 94.6971 44.8641 94.3974 45.3777 93.8394C45.6545 93.5358 45.8715 93.1666 46.0141 92.7569C46.1567 92.3473 46.2215 91.9068 46.204 91.4655Z" fill="white"/>
<path d="M47.727 100.646C48.2318 100.078 48.522 99.3004 48.5342 98.4844C48.5464 97.6685 48.2797 96.8801 47.7922 96.2914C47.3018 95.7061 46.6316 95.3696 45.9279 95.3554C45.2243 95.3413 44.5444 95.6506 44.0367 96.2158L40.4609 100.221L44.1512 104.651L47.727 100.646Z" fill="#3F3D56"/>
<path d="M40.9549 108.401L44.4327 104.506L40.7424 100.076L37.2646 103.971C36.7598 104.539 36.4697 105.317 36.4574 106.133C36.4452 106.949 36.712 107.737 37.1994 108.326C37.6898 108.911 38.36 109.247 39.0637 109.262C39.7674 109.276 40.4473 108.966 40.9549 108.401Z" fill="#45AD7D"/>
<path opacity="0.2" d="M39.2564 109.286C38.6215 109.223 38.0277 108.896 37.5846 108.365C37.0971 107.776 36.8304 106.988 36.8426 106.172C36.8548 105.356 37.145 104.579 37.6498 104.01L40.9317 100.334L40.7424 100.107L37.2646 104.002C36.7598 104.571 36.4697 105.348 36.4574 106.164C36.4452 106.98 36.712 107.768 37.1994 108.357C37.4645 108.674 37.7855 108.922 38.1405 109.082C38.4955 109.242 38.8761 109.312 39.2564 109.286Z" fill="white"/>
<path d="M28.4926 91.2817C28.9974 90.713 29.2876 89.9359 29.2998 89.1199C29.312 88.304 29.0453 87.5156 28.5578 86.9269C28.0674 86.3416 27.3972 86.0051 26.6935 85.9909C25.9899 85.9768 25.31 86.2861 24.8024 86.8513L21.2266 90.8561L24.9168 95.2865L28.4926 91.2817Z" fill="#3F3D56"/>
<path d="M21.7205 99.0367L25.1983 95.1416L21.5081 90.7112L18.0302 94.6063C17.5255 95.175 17.2353 95.9522 17.2231 96.7681C17.2108 97.5841 17.4776 98.3725 17.965 98.9611C18.4554 99.5464 19.1257 99.8829 19.8293 99.8971C20.533 99.9112 21.2129 99.6019 21.7205 99.0367Z" fill="#45AD7D"/>
<path opacity="0.2" d="M20.022 99.9221C19.3871 99.8589 18.7933 99.5316 18.3502 99.0006C17.8628 98.412 17.596 97.6236 17.6082 96.8076C17.6204 95.9917 17.9106 95.2145 18.4154 94.6458L21.6973 90.9701L21.508 90.7429L18.0302 94.638C17.5255 95.2067 17.2353 95.9839 17.2231 96.7999C17.2108 97.6158 17.4776 98.4042 17.965 98.9928C18.2301 99.3101 18.5511 99.5573 18.9061 99.7177C19.2611 99.878 19.6417 99.9478 20.022 99.9221Z" fill="white"/>
<path d="M55.4243 79.0708C55.929 78.5021 56.2192 77.7249 56.2314 76.909C56.2436 76.093 55.9769 75.3046 55.4895 74.716C54.9991 74.1307 54.3288 73.7942 53.6252 73.78C52.9215 73.7658 52.2416 74.0751 51.734 74.6404L48.1582 78.6452L51.8485 83.0757L55.4243 79.0708Z" fill="#3F3D56"/>
<path d="M48.6521 86.826L52.13 82.9309L48.4397 78.5005L44.9619 82.3956C44.4571 82.9643 44.1669 83.7415 44.1547 84.5574C44.1425 85.3734 44.4092 86.1618 44.8967 86.7504C45.3871 87.3357 46.0573 87.6722 46.761 87.6864C47.4646 87.7006 48.1445 87.3913 48.6521 86.826Z" fill="#45AD7D"/>
<path opacity="0.2" d="M46.9537 87.7114C46.3188 87.6482 45.725 87.321 45.2818 86.7899C44.7944 86.2013 44.5277 85.4129 44.5399 84.5969C44.5521 83.781 44.8423 83.0038 45.3471 82.4351L48.6289 78.7594L48.4397 78.5322L44.9619 82.4274C44.4571 82.996 44.1669 83.7732 44.1547 84.5892C44.1425 85.4051 44.4092 86.1935 44.8967 86.7822C45.1618 87.0994 45.4828 87.3466 45.8378 87.507C46.1927 87.6674 46.5734 87.7371 46.9537 87.7114Z" fill="white"/>
<path d="M49.9115 103.417C49.4273 102.825 48.7606 102.479 48.0572 102.455C47.3537 102.431 46.6706 102.731 46.1571 103.289C45.6464 103.85 45.3481 104.623 45.3273 105.439C45.3066 106.255 45.565 107.047 46.0463 107.642L49.4563 111.837L53.3216 107.612L49.9115 103.417Z" fill="#3F3D56"/>
<path d="M56.5374 111.391L53.2208 107.311L49.3555 111.536L52.6721 115.616C53.1563 116.208 53.823 116.554 54.5264 116.578C55.2299 116.602 55.913 116.302 56.4265 115.744C56.9372 115.183 57.2355 114.41 57.2563 113.594C57.2771 112.778 57.0186 111.986 56.5374 111.391Z" fill="#45AD7D"/>
<path opacity="0.2" d="M57.2919 113.37C57.2297 114.105 56.9402 114.79 56.4769 115.297C55.9634 115.855 55.2803 116.155 54.5769 116.131C53.8734 116.107 53.2067 115.761 52.7225 115.169L49.5928 111.319L49.3945 111.535L52.7111 115.615C53.1954 116.207 53.862 116.553 54.5655 116.577C55.2689 116.601 55.952 116.302 56.4655 115.744C56.7423 115.44 56.9594 115.071 57.102 114.661C57.2446 114.252 57.3094 113.811 57.2919 113.37Z" fill="white"/>
<path d="M31.1381 103.423C30.6539 102.83 29.9872 102.484 29.2837 102.46C28.5803 102.436 27.8972 102.736 27.3837 103.294C26.873 103.855 26.5747 104.629 26.5539 105.444C26.5331 106.26 26.7916 107.052 27.2728 107.648L30.6828 111.842L34.5481 107.617L31.1381 103.423Z" fill="#3F3D56"/>
<path d="M37.7639 111.397L34.4473 107.317L30.582 111.542L33.8986 115.622C34.3829 116.214 35.0495 116.56 35.753 116.584C36.4564 116.608 37.1395 116.308 37.653 115.75C38.1637 115.189 38.4621 114.416 38.4828 113.6C38.5036 112.784 38.2451 111.992 37.7639 111.397Z" fill="#45AD7D"/>
<path opacity="0.2" d="M38.5145 113.376C38.4523 114.111 38.1629 114.796 37.6996 115.303C37.1861 115.861 36.503 116.161 35.7995 116.137C35.0961 116.113 34.4294 115.767 33.9452 115.174L30.8154 111.324L30.6172 111.541L33.9338 115.621C34.418 116.213 35.0847 116.559 35.7881 116.583C36.4916 116.607 37.1747 116.308 37.6882 115.75C37.965 115.446 38.1821 115.077 38.3247 114.667C38.4673 114.257 38.5321 113.817 38.5145 113.376Z" fill="white"/>
<path d="M36.1528 92.3397C36.153 93.3636 35.8481 94.3562 35.2897 95.1494C34.7313 95.9426 33.9537 96.4877 33.0886 96.6924C32.583 96.8109 32.062 96.8109 31.5564 96.6924C30.6914 96.4875 29.9139 95.9423 29.3555 95.1492C28.7972 94.356 28.4922 93.3636 28.4922 92.3397C28.4922 91.3159 28.7972 90.3234 29.3555 89.5303C29.9139 88.7371 30.6914 88.192 31.5564 87.987C32.062 87.8686 32.5829 87.8686 33.0886 87.987C33.9537 88.1918 34.7313 88.7369 35.2897 89.5301C35.8481 90.3233 36.153 91.3158 36.1528 92.3397Z" fill="#45AD7D"/>
<path opacity="0.2" d="M33.0868 87.987V96.6924C32.5812 96.8109 32.0603 96.8109 31.5547 96.6924V87.987C32.0603 87.8686 32.5812 87.8686 33.0868 87.987Z" fill="white"/>
<path d="M37.563 74.5626C37.5631 75.5865 37.2582 76.5791 36.6998 77.3723C36.1415 78.1654 35.3639 78.7105 34.4987 78.9153C33.9931 79.0338 33.4722 79.0338 32.9666 78.9153C32.1015 78.7104 31.324 78.1652 30.7657 77.372C30.2073 76.5789 29.9023 75.5865 29.9023 74.5626C29.9023 73.5388 30.2073 72.5463 30.7657 71.7532C31.324 70.96 32.1015 70.4149 32.9666 70.2099C33.4722 70.0915 33.9931 70.0915 34.4987 70.2099C35.3639 70.4147 36.1415 70.9598 36.6998 71.753C37.2582 72.5462 37.5631 73.5387 37.563 74.5626Z" fill="#45AD7D"/>
<path opacity="0.2" d="M34.497 70.2094V78.9148C33.9914 79.0333 33.4704 79.0333 32.9648 78.9148V70.2094C33.4704 70.091 33.9914 70.091 34.497 70.2094Z" fill="white"/>
<path d="M38.0239 100.009C38.0241 101.033 37.7192 102.025 37.1608 102.819C36.6024 103.612 35.8248 104.157 34.9597 104.362C34.454 104.48 33.9331 104.48 33.4275 104.362C32.5625 104.157 31.785 103.611 31.2266 102.818C30.6683 102.025 30.3633 101.033 30.3633 100.009C30.3633 98.985 30.6683 97.9926 31.2266 97.1995C31.785 96.4063 32.5625 95.8612 33.4275 95.6562C33.9331 95.5378 34.454 95.5378 34.9597 95.6562C35.8248 95.861 36.6024 96.4061 37.1608 97.1993C37.7192 97.9925 38.0241 98.985 38.0239 100.009Z" fill="#45AD7D"/>
<path opacity="0.2" d="M34.9599 95.6562V104.362C34.4543 104.48 33.9333 104.48 33.4277 104.362V95.6562C33.9333 95.5378 34.4543 95.5378 34.9599 95.6562Z" fill="white"/>
<path d="M47.7778 112.225C47.778 113.249 47.4731 114.241 46.9147 115.035C46.3563 115.828 45.5787 116.373 44.7135 116.578C44.2079 116.696 43.687 116.696 43.1814 116.578C42.3163 116.373 41.5389 115.828 40.9805 115.034C40.4222 114.241 40.1172 113.249 40.1172 112.225C40.1172 111.201 40.4222 110.209 40.9805 109.416C41.5389 108.622 42.3163 108.077 43.1814 107.872C43.687 107.754 44.2079 107.754 44.7135 107.872C45.5787 108.077 46.3563 108.622 46.9147 109.415C47.4731 110.209 47.778 111.201 47.7778 112.225Z" fill="#45AD7D"/>
<path opacity="0.2" d="M44.7118 107.872V116.578C44.2062 116.696 43.6853 116.696 43.1797 116.578V107.872C43.6853 107.754 44.2062 107.754 44.7118 107.872Z" fill="white"/>
<path d="M55.8384 89.257C56.4743 89.9674 56.879 90.9108 56.984 91.9274C57.089 92.9441 56.8878 93.9715 56.4146 94.836C56.1372 95.3403 55.7757 95.7752 55.3513 96.1152C54.6237 96.6952 53.7456 96.9659 52.8657 96.8817C51.9857 96.7975 51.1578 96.3634 50.5221 95.6528C49.8864 94.9423 49.4818 93.9989 49.3768 92.9823C49.2718 91.9657 49.4729 90.9383 49.9459 90.0738C50.2233 89.5695 50.5848 89.1346 51.0092 88.7946C51.7368 88.2144 52.6149 87.9435 53.4949 88.0278C54.3749 88.112 55.2028 88.5463 55.8384 89.257Z" fill="#45AD7D"/>
<path opacity="0.2" d="M51.0086 88.7942L56.4139 94.8355C56.1366 95.3399 55.7751 95.7748 55.3507 96.1147L49.9453 90.0733C50.2227 89.569 50.5842 89.1341 51.0086 88.7942Z" fill="white"/>
<path d="M57.1685 98.9457C57.8044 99.6561 58.2091 100.599 58.3141 101.616C58.419 102.633 58.2179 103.66 57.7446 104.525C57.4673 105.029 57.1058 105.464 56.6814 105.804C55.9538 106.384 55.0757 106.655 54.1957 106.57C53.3158 106.486 52.4879 106.052 51.8522 105.342C51.2164 104.631 50.8119 103.688 50.7069 102.671C50.6019 101.654 50.8029 100.627 51.276 99.7625C51.5533 99.2582 51.9149 98.8233 52.3393 98.4833C53.0668 97.9031 53.9449 97.6322 54.8249 97.7165C55.705 97.8007 56.5329 98.235 57.1685 98.9457Z" fill="#45AD7D"/>
<path opacity="0.2" d="M52.3426 98.4836L57.7479 104.525C57.4705 105.029 57.109 105.464 56.6846 105.804L51.2793 99.7628C51.5566 99.2585 51.9182 98.8236 52.3426 98.4836Z" fill="white"/>
<path d="M22.8521 101.913C23.4879 102.623 23.8926 103.567 23.9976 104.583C24.1026 105.6 23.9014 106.628 23.4282 107.492C23.1509 107.996 22.7894 108.431 22.3649 108.771C21.6373 109.351 20.7593 109.622 19.8793 109.538C18.9993 109.453 18.1715 109.019 17.5358 108.309C16.9 107.598 16.4955 106.655 16.3905 105.638C16.2855 104.622 16.4865 103.594 16.9596 102.73C17.2369 102.225 17.5985 101.791 18.0229 101.451C18.7504 100.87 19.6285 100.6 20.5085 100.684C21.3885 100.768 22.2164 101.202 22.8521 101.913Z" fill="#45AD7D"/>
<path opacity="0.2" d="M18.0242 101.45L23.4295 107.492C23.1522 107.996 22.7907 108.431 22.3663 108.771L16.9609 102.73C17.2383 102.225 17.5998 101.79 18.0242 101.45Z" fill="white"/>
<path opacity="0.2" d="M34.2194 21.895H32.7754V34.2855H34.2194V21.895Z" fill="white"/>
<path opacity="0.2" d="M42.5924 21.7432H41.1484V34.1337H42.5924V21.7432Z" fill="white"/>
<path opacity="0.2" d="M19.7679 5.87165L18.7383 6.88403L27.4254 15.7191L28.455 14.7068L19.7679 5.87165Z" fill="white"/>
<path opacity="0.2" d="M25.7425 6.68632e-05L24.7129 1.01245L33.4 9.84755L34.4296 8.83517L25.7425 6.68632e-05Z" fill="white"/>
</svg>
