<svg width="263" height="236" viewBox="0 0 263 236" fill="none" xmlns="http://www.w3.org/2000/svg">
<g clip-path="url(#clip0)">
<path d="M260.693 90.2512C260.599 90.2512 260.507 90.2224 260.43 90.1685L132.824 1.33392C132.436 1.06484 131.975 0.921033 131.502 0.921839C131.029 0.922644 130.569 1.06802 130.181 1.33842L3.49505 90.1676C3.39485 90.2379 3.27083 90.2655 3.15028 90.2443C3.02973 90.2232 2.92251 90.155 2.85223 90.0548C2.78195 89.9547 2.75435 89.8307 2.7755 89.7102C2.79666 89.5897 2.86484 89.4825 2.96505 89.4123L129.651 0.583066C130.194 0.204558 130.839 0.0010911 131.501 4.37596e-06C132.162 -0.00108234 132.808 0.200261 133.352 0.576986L260.957 89.4113C261.038 89.4675 261.098 89.5479 261.13 89.6409C261.162 89.7338 261.163 89.8345 261.133 89.9282C261.104 90.0219 261.045 90.1037 260.966 90.1618C260.887 90.2199 260.791 90.2512 260.693 90.2512V90.2512Z" fill="#3F3D56"/>
<path d="M10.7344 93.4001L131.628 3.83698L253.438 99.7729L137.857 168.266L75.1057 153.967L10.7344 93.4001Z" fill="#E6E6E6"/>
<path d="M80.4019 210.571H20.6777C20.3109 210.571 19.9477 210.499 19.6088 210.359C19.2698 210.219 18.9618 210.014 18.7023 209.755C18.4428 209.496 18.237 209.188 18.0965 208.85C17.9561 208.511 17.8838 208.148 17.8838 207.781C17.8838 207.415 17.9561 207.052 18.0965 206.713C18.237 206.375 18.4428 206.067 18.7023 205.808C18.9618 205.549 19.2698 205.343 19.6088 205.203C19.9477 205.064 20.3109 204.992 20.6777 204.992H80.4019C80.7686 204.992 81.1318 205.064 81.4708 205.203C81.8097 205.343 82.1177 205.549 82.3772 205.808C82.6367 206.067 82.8426 206.375 82.983 206.713C83.1235 207.052 83.1957 207.415 83.1957 207.781C83.1957 208.148 83.1235 208.511 82.983 208.85C82.8426 209.188 82.6367 209.496 82.3772 209.755C82.1177 210.014 81.8097 210.219 81.4708 210.359C81.1318 210.499 80.7686 210.571 80.4019 210.571Z" fill="#00A459"/>
<path d="M42.1054 198.579H20.6777C20.3109 198.579 19.9477 198.507 19.6088 198.367C19.2698 198.227 18.9618 198.022 18.7023 197.763C18.4428 197.504 18.237 197.196 18.0965 196.858C17.9561 196.519 17.8838 196.156 17.8838 195.789C17.8838 195.423 17.9561 195.06 18.0965 194.721C18.237 194.383 18.4428 194.075 18.7023 193.816C18.9618 193.557 19.2698 193.351 19.6088 193.211C19.9477 193.071 20.3109 193 20.6777 193H42.1054C42.4721 193 42.8353 193.071 43.1743 193.211C43.5132 193.351 43.8212 193.557 44.0807 193.816C44.3402 194.075 44.5461 194.383 44.6865 194.721C44.827 195.06 44.8992 195.423 44.8992 195.789C44.8992 196.156 44.827 196.519 44.6865 196.858C44.5461 197.196 44.3402 197.504 44.0807 197.763C43.8212 198.022 43.5132 198.227 43.1743 198.367C42.8353 198.507 42.4721 198.579 42.1054 198.579Z" fill="#00A459"/>
<path d="M133.328 143.286C132.874 143.286 132.424 143.198 132.004 143.026L57.4453 112.101V15.3012C57.4463 14.4452 57.7869 13.6246 58.3924 13.0193C58.9979 12.414 59.8188 12.0736 60.6751 12.0726H203.71C204.567 12.0736 205.387 12.414 205.993 13.0193C206.598 13.6246 206.939 14.4452 206.94 15.3012V112.169L206.8 112.229L134.692 143.011C134.26 143.193 133.796 143.286 133.328 143.286Z" fill="white"/>
<path d="M133.327 143.516C132.843 143.517 132.363 143.423 131.915 143.24L57.2139 112.255V15.3011C57.2149 14.384 57.5798 13.5048 58.2286 12.8563C58.8773 12.2077 59.7569 11.843 60.6744 11.8419H203.71C204.627 11.843 205.507 12.2077 206.155 12.8563C206.804 13.5048 207.169 14.384 207.17 15.3011V112.321L134.781 143.223C134.321 143.417 133.826 143.516 133.327 143.516ZM58.1366 111.639L132.267 142.387C132.959 142.667 133.733 142.663 134.421 142.374L206.247 111.712V15.3011C206.246 14.6286 205.979 13.9838 205.503 13.5083C205.027 13.0327 204.382 12.7652 203.71 12.7644H60.6744C60.0016 12.7652 59.3566 13.0327 58.8809 13.5083C58.4051 13.9838 58.1375 14.6286 58.1367 15.3011L58.1366 111.639Z" fill="#3F3D56"/>
<path d="M259.77 89.3287H259.678L206.709 111.938L134.236 142.873C133.953 142.992 133.649 143.054 133.342 143.056C133.035 143.057 132.73 142.998 132.446 142.882L57.6754 111.874L3.4051 89.3656L3.3222 89.3287H3.22982C2.37351 89.3297 1.55254 89.6701 0.94704 90.2754C0.341537 90.8807 0.000950145 91.7014 0 92.5573V232.771C0.000951364 233.627 0.341537 234.448 0.94704 235.053C1.55254 235.659 2.37351 235.999 3.22982 236H259.77C260.626 235.999 261.447 235.659 262.053 235.053C262.658 234.448 262.999 233.627 263 232.771V92.5573C262.999 91.7014 262.658 90.8807 262.053 90.2754C261.447 89.6701 260.626 89.3297 259.77 89.3287ZM262.077 232.771C262.077 233.383 261.834 233.969 261.401 234.402C260.969 234.834 260.382 235.077 259.77 235.078H3.22982C2.61804 235.077 2.03139 234.834 1.59879 234.402C1.16619 233.969 0.923052 233.383 0.922807 232.771V92.5573C0.923644 91.961 1.15506 91.388 1.56867 90.9582C1.98228 90.5284 2.54607 90.2751 3.14218 90.2512L57.6754 112.87L132.091 143.735C132.896 144.063 133.799 144.058 134.601 143.722L206.709 112.939L259.863 90.2512C260.458 90.2769 261.02 90.5309 261.432 90.9605C261.845 91.39 262.076 91.9619 262.077 92.5573V232.771Z" fill="#3F3D56"/>
<path d="M132.582 115.837C129.829 115.842 127.15 114.952 124.947 113.302L124.811 113.199L96.0602 91.195C94.7287 90.1752 93.6112 88.9032 92.7715 87.4517C91.9317 86.0002 91.3862 84.3975 91.1661 82.7352C90.946 81.073 91.0556 79.3836 91.4886 77.7637C91.9216 76.1438 92.6695 74.6249 93.6897 73.2939C94.7099 71.9629 95.9824 70.8459 97.4344 70.0064C98.8865 69.167 100.49 68.6217 102.153 68.4017C103.816 68.1817 105.506 68.2912 107.126 68.724C108.747 69.1568 110.266 69.9045 111.598 70.9243L130.22 85.1984L174.228 27.8274C175.248 26.4968 176.521 25.3801 177.974 24.5412C179.426 23.7023 181.029 23.1576 182.692 22.9381C184.355 22.7187 186.045 22.8288 187.666 23.2623C189.286 23.6957 190.805 24.444 192.136 25.4643L191.863 25.8357L192.143 25.4697C194.828 27.5326 196.585 30.5759 197.028 33.932C197.472 37.2882 196.565 40.683 194.507 43.3717L142.744 110.854C141.547 112.409 140.007 113.667 138.245 114.531C136.482 115.395 134.545 115.842 132.582 115.837Z" fill="#00A459"/>
</g>
<defs>
<clipPath id="clip0">
<rect width="263" height="236" fill="white"/>
</clipPath>
</defs>
</svg>
