<svg width="293" height="296" viewBox="0 0 293 296" fill="none" xmlns="http://www.w3.org/2000/svg">
<path d="M146.5 296C227.41 296 293 292.14 293 287.379C293 282.618 227.41 278.758 146.5 278.758C65.5903 278.758 0 282.618 0 287.379C0 292.14 65.5903 296 146.5 296Z" fill="#E6E6E6"/>
<path d="M166.076 68.2923H164.5V25.0356C164.5 18.3958 161.868 12.0278 157.181 7.33276C152.495 2.63767 146.139 0 139.511 0H48.0377C41.4103 0 35.0542 2.63767 30.3679 7.33276C25.6816 12.0278 23.0488 18.3958 23.0488 25.0356V262.344C23.0488 268.984 25.6816 275.351 30.3679 280.047C35.0542 284.742 41.4103 287.379 48.0377 287.379H139.511C146.139 287.379 152.495 284.742 157.181 280.047C161.868 275.351 164.5 268.984 164.5 262.344V99.0829H166.076V68.2923Z" fill="#3F3D56"/>
<path d="M159.182 25.2106V262.169C159.181 267.128 157.215 271.883 153.715 275.39C150.216 278.896 145.469 280.866 140.519 280.866H48.607C43.6577 280.866 38.9111 278.896 35.4114 275.39C31.9117 271.884 29.9455 267.128 29.9453 262.17V25.2106C29.9454 20.2519 31.9116 15.4963 35.4114 11.99C38.9112 8.48368 43.6579 6.51379 48.6074 6.51367H59.7577C59.2098 7.86253 59.0011 9.32562 59.15 10.7743C59.2989 12.2229 59.8009 13.6127 60.6117 14.8213C61.4226 16.03 62.5175 17.0205 63.8001 17.7057C65.0827 18.3909 66.5137 18.7498 67.9673 18.7509H120.372C121.825 18.7499 123.256 18.391 124.539 17.7058C125.822 17.0206 126.917 16.0302 127.728 14.8215C128.539 13.6128 129.041 12.223 129.19 10.7744C129.338 9.3257 129.13 7.86256 128.582 6.51367H140.519C145.469 6.51379 150.216 8.48368 153.715 11.99C157.215 15.4963 159.181 20.2519 159.182 25.2106V25.2106Z" fill="white"/>
<path d="M72.4048 204.618H70.4717L71.1171 166.791H71.7624L72.4048 204.618Z" fill="#E6E6E6"/>
<path d="M74.0156 142.975L77.1357 138.144C76.2104 135.583 75.1417 133.077 73.9347 130.637L71.9172 132.27L73.5148 129.796C71.9921 126.794 70.7943 124.902 70.7943 124.902C70.7943 124.902 64.5376 134.781 62.4462 145.241L66.4501 151.441L62.0185 147.854C61.8606 149.073 61.7795 150.3 61.7754 151.528C61.7754 163.916 65.8137 173.959 70.7952 173.959C75.7766 173.959 79.8149 163.915 79.8149 151.528C79.8149 147.688 78.9475 143.67 77.7497 139.953L74.0156 142.975Z" fill="#CCCCCC"/>
<path d="M122.727 204.618H120.794L121.439 166.791H122.085L122.727 204.618Z" fill="#E6E6E6"/>
<path d="M124.337 142.975L127.457 138.144C126.531 135.583 125.463 133.077 124.256 130.637L122.238 132.27L123.836 129.796C122.313 126.794 121.115 124.902 121.115 124.902C121.115 124.902 114.858 134.781 112.769 145.241L116.769 151.44L112.338 147.853C112.18 149.072 112.099 150.299 112.095 151.527C112.095 163.916 116.133 173.958 121.114 173.958C126.096 173.958 130.134 163.914 130.134 151.527C130.134 147.687 129.267 143.669 128.069 139.952L124.337 142.975Z" fill="#CCCCCC"/>
<path d="M70.9336 79.2268C80.7425 79.2268 88.6943 71.2602 88.6943 61.4329C88.6943 51.6056 80.7425 43.639 70.9336 43.639C61.1246 43.639 53.1729 51.6056 53.1729 61.4329C53.1729 71.2602 61.1246 79.2268 70.9336 79.2268Z" fill="#E6E6E6"/>
<path d="M95.5342 199.111H91.5488L92.8774 121.114H94.2056L95.5342 199.111Z" fill="#E6E6E6"/>
<path d="M98.8556 72.008L105.289 62.0481C103.381 56.768 101.178 51.5999 98.6887 46.5685L94.5286 49.9346L97.8226 44.8344C94.6817 38.6436 92.2134 34.743 92.2134 34.743C92.2134 34.743 79.3111 55.1129 75.0004 76.6802L83.2539 89.4631L74.1145 82.0675C73.7891 84.5799 73.6216 87.1103 73.6133 89.6437C73.6133 115.187 81.9399 135.893 92.2112 135.893C102.483 135.893 110.809 115.187 110.809 89.6437C110.809 81.7253 109.021 73.4408 106.554 65.7771L98.8556 72.008Z" fill="#CCCCCC"/>
<path d="M159.181 210.353V263.377C159.181 274.131 150.826 282.849 140.519 282.849H48.6068C38.3002 282.849 29.9448 274.131 29.9443 263.377V215.523C45.8799 196.004 68.9202 184.338 93.4759 183.356C118.031 182.373 141.86 192.164 159.181 210.353Z" fill="#E6E6E6"/>
<path opacity="0.2" d="M94.663 262.658C109.682 262.658 121.858 250.459 121.858 235.411C121.858 220.364 109.682 208.165 94.663 208.165C79.6435 208.165 67.4678 220.364 67.4678 235.411C67.4678 250.459 79.6435 262.658 94.663 262.658Z" fill="#00A459"/>
<path d="M94.6632 257.35C106.757 257.35 116.561 247.528 116.561 235.411C116.561 223.295 106.757 213.473 94.6632 213.473C82.5695 213.473 72.7656 223.295 72.7656 235.411C72.7656 247.528 82.5695 257.35 94.6632 257.35Z" fill="#00A459"/>
<path d="M92.109 244.791L84.3916 234.851L88.8795 231.354L92.5332 236.06L104.877 223.006L109.004 226.924L92.109 244.791Z" fill="white"/>
<path d="M211.031 201.289C218.873 201.289 225.229 194.92 225.229 187.064C225.229 179.208 218.873 172.839 211.031 172.839C203.19 172.839 196.833 179.208 196.833 187.064C196.833 194.92 203.19 201.289 211.031 201.289Z" fill="#2F2E41"/>
<path d="M216.785 266.92L217.879 272.089L238.303 270.322L236.689 262.692L216.785 266.92Z" fill="#FFB8B8"/>
<path d="M215.195 283.076L211.758 266.828L218.024 265.498L220.133 275.468C220.308 276.292 220.318 277.143 220.165 277.972C220.011 278.8 219.696 279.59 219.237 280.297C218.779 281.003 218.186 281.612 217.492 282.089C216.799 282.566 216.018 282.901 215.195 283.076Z" fill="#2F2E41"/>
<path d="M203.99 266.644L201.691 271.401L182.287 264.781L185.68 257.761L203.99 266.644Z" fill="#FFB8B8"/>
<path d="M198.694 274.144L203.128 264.971L208.893 267.767L201.668 282.716C200.139 281.974 198.967 280.654 198.409 279.047C197.852 277.439 197.954 275.676 198.694 274.144V274.144Z" fill="#2F2E41"/>
<path d="M165.758 257.25C166.422 257.374 167.105 257.35 167.76 257.181C168.414 257.012 169.023 256.701 169.544 256.27C170.066 255.839 170.486 255.3 170.777 254.688C171.067 254.077 171.221 253.41 171.226 252.733L203.225 223.175L195.278 217.009L166.307 248.019C165.171 248.086 164.098 248.567 163.293 249.373C162.488 250.178 162.006 251.252 161.938 252.39C161.87 253.528 162.222 254.652 162.926 255.547C163.63 256.443 164.638 257.049 165.758 257.25L165.758 257.25Z" fill="#FFB8B8"/>
<path d="M209.25 201.931C215.086 201.931 219.817 197.191 219.817 191.344C219.817 185.497 215.086 180.757 209.25 180.757C203.414 180.757 198.683 185.497 198.683 191.344C198.683 197.191 203.414 201.931 209.25 201.931Z" fill="#FFB8B8"/>
<path d="M218.733 253.577C211.32 253.577 202.393 252.013 196.885 245.612L196.761 245.468L196.891 245.327C196.934 245.281 200.984 240.642 196.938 232.369L191.375 234.083L185.838 226.76L188.906 217.54L201.459 207.411C203.257 205.967 205.447 205.097 207.744 204.914C211.903 204.511 215.953 203.356 219.699 201.503C221.413 200.669 223.301 200.255 225.206 200.296L225.453 200.303C226.033 200.319 226.603 200.453 227.129 200.697C227.655 200.941 228.126 201.289 228.514 201.72C228.902 202.152 229.198 202.658 229.385 203.208C229.572 203.758 229.646 204.34 229.601 204.919C228.75 215.967 227.247 242.654 231.663 251.844L231.777 252.081L231.522 252.146C227.325 253.092 223.036 253.572 218.734 253.577L218.733 253.577Z" fill="#00A459"/>
<path d="M198.339 245.472C198.339 245.472 170.373 242.886 167.361 251.076C164.349 259.266 167.791 263.145 172.954 264.869C178.117 266.594 190.594 268.749 190.594 268.749L196.188 261.852L210.816 262.714C210.816 262.714 227.116 272.186 231.623 282.316C232.59 284.508 234.132 286.396 236.085 287.78C238.038 289.165 240.328 289.993 242.714 290.176C246.328 290.428 249.539 289.061 249.539 283.404C249.539 270.472 231.468 251.937 231.468 251.937L198.339 245.472Z" fill="#2F2E41"/>
<path d="M177.042 258.188C177.042 258.188 184.356 256.033 195.973 261.636Z" fill="#2F2E41"/>
<path d="M198.708 184.592C202.835 187.116 207.488 188.652 212.304 189.08L210.871 187.36C211.914 187.746 213.012 187.964 214.124 188.006C214.68 188.023 215.233 187.908 215.737 187.671C216.242 187.435 216.684 187.083 217.028 186.645C217.309 186.189 217.476 185.673 217.515 185.138C217.554 184.604 217.463 184.069 217.25 183.578C216.813 182.598 216.134 181.746 215.276 181.104C213.755 179.898 211.96 179.089 210.05 178.747C208.141 178.405 206.178 178.542 204.334 179.145C203.069 179.523 201.935 180.251 201.064 181.245C200.636 181.745 200.339 182.345 200.199 182.989C200.059 183.633 200.081 184.302 200.262 184.935" fill="#2F2E41"/>
<path d="M210.955 176.13C212.833 171.762 215.643 167.859 219.189 164.697C221.466 162.671 224.125 160.928 227.125 160.402C230.125 159.876 233.507 160.777 235.348 163.209C236.854 165.197 237.134 167.861 236.968 170.351C236.803 172.841 236.247 175.308 236.3 177.801C236.354 180.347 237.043 182.838 238.302 185.05C239.561 187.262 241.352 189.123 243.511 190.466C245.671 191.808 248.131 192.589 250.668 192.737C253.205 192.886 255.739 192.397 258.039 191.315C255.448 192.75 253.43 195.022 251.026 196.75C248.623 198.477 245.449 199.664 242.717 198.521C239.827 197.315 238.501 194.03 237.466 191.069L232.848 177.861C232.064 175.616 231.24 173.304 229.638 171.548C228.036 169.793 225.436 168.722 223.232 169.605C221.561 170.274 220.473 171.871 219.519 173.398C218.565 174.925 217.558 176.553 215.948 177.355C214.337 178.156 211.946 177.663 211.42 175.939" fill="#2F2E41"/>
<path d="M214.581 253.614C214.399 253.614 214.217 253.604 214.036 253.584C212.833 253.448 211.728 252.856 210.948 251.93C210.167 251.003 209.771 249.812 209.84 248.602C209.909 247.392 210.438 246.254 211.318 245.422C212.199 244.59 213.364 244.128 214.574 244.13C214.785 244.132 214.996 244.147 215.205 244.177L229.652 228.769L228.143 223.733L235.716 220.331L237.839 225.529C238.551 227.29 238.677 229.234 238.198 231.072C237.72 232.911 236.663 234.546 235.183 235.734L219.281 248.407C219.298 248.562 219.306 248.717 219.307 248.872C219.306 249.54 219.166 250.199 218.894 250.808C218.623 251.417 218.226 251.962 217.73 252.407C216.867 253.188 215.744 253.618 214.581 253.614V253.614Z" fill="#FFB8B8"/>
<path d="M225.875 202.366C226.376 202.143 226.917 202.024 227.465 202.016C228.013 202.007 228.557 202.11 229.064 202.318C229.572 202.525 230.032 202.833 230.418 203.224C230.803 203.614 231.106 204.078 231.308 204.589L238.783 223.488L227.166 231.247L225.875 202.366Z" fill="#00A459"/>
</svg>
