<svg width="381" height="282" viewBox="0 0 381 282" fill="none" xmlns="http://www.w3.org/2000/svg">
<g clip-path="url(#clip0)">
<g opacity="0.1">
<path opacity="0.1" d="M305.071 199.791C305.071 199.791 277.872 196.258 298.157 240.291C298.157 240.291 316.642 232.368 317.379 214.495C317.528 211.017 316.397 207.605 314.2 204.905C312.003 202.205 308.892 200.405 305.456 199.847L305.071 199.791Z" fill="#00A459"/>
<path opacity="0.1" d="M305.471 199.725C305.471 199.725 311.628 224.277 298.178 240.295" stroke="#535461" stroke-miterlimit="10"/>
<path opacity="0.1" d="M297.809 242.563C297.809 242.563 307.602 218.421 325.89 209.465C333.59 205.758 339.88 199.651 343.813 192.062C345.651 188.447 347.154 184.672 348.303 180.783" stroke="#535461" stroke-width="2" stroke-miterlimit="10"/>
<path opacity="0.1" d="M359.796 175.075C357.89 177.472 348.023 180.981 348.023 180.981C348.023 180.981 349.211 170.56 351.118 168.18C351.553 167.559 352.11 167.033 352.756 166.636C353.401 166.238 354.121 165.977 354.872 165.868C355.622 165.759 356.386 165.805 357.118 166.003C357.85 166.201 358.534 166.546 359.127 167.018C359.721 167.49 360.211 168.079 360.569 168.747C360.926 169.416 361.143 170.151 361.206 170.907C361.269 171.663 361.177 172.423 360.935 173.142C360.693 173.861 360.307 174.522 359.8 175.086L359.796 175.075Z" fill="#00A459"/>
<path opacity="0.1" d="M356.41 194.059C353.506 195.036 343.324 192.607 343.324 192.607C343.324 192.607 349.975 184.521 352.878 183.544C353.581 183.256 354.336 183.115 355.096 183.13C355.856 183.146 356.604 183.316 357.296 183.633C357.987 183.949 358.606 184.403 359.114 184.968C359.623 185.533 360.01 186.197 360.252 186.917C360.494 187.638 360.586 188.4 360.521 189.158C360.457 189.915 360.238 190.652 359.878 191.321C359.518 191.99 359.024 192.579 358.428 193.05C357.831 193.521 357.144 193.864 356.41 194.059Z" fill="#00A459"/>
<path opacity="0.1" d="M338.053 216.503C335.056 215.881 327.488 208.642 327.488 208.642C327.488 208.642 337.309 205.019 340.31 205.641C341.668 206.019 342.831 206.9 343.564 208.104C344.297 209.308 344.545 210.746 344.258 212.126C343.971 213.506 343.171 214.726 342.018 215.538C340.866 216.35 339.449 216.694 338.053 216.5V216.503Z" fill="#00A459"/>
<path opacity="0.1" d="M320.341 230.356C317.282 230.249 308.6 224.395 308.6 224.395C308.6 224.395 317.671 219.157 320.73 219.268C322.133 219.411 323.429 220.082 324.355 221.145C325.282 222.208 325.77 223.583 325.721 224.993C325.671 226.402 325.088 227.74 324.089 228.735C323.09 229.73 321.75 230.309 320.341 230.353V230.356Z" fill="#00A459"/>
<path opacity="0.1" d="M333.844 185.809C334.236 188.849 340.866 196.949 340.866 196.949C340.866 196.949 345.231 187.431 344.842 184.392C344.794 183.633 344.592 182.892 344.246 182.215C343.901 181.537 343.42 180.938 342.833 180.454C342.247 179.97 341.568 179.611 340.837 179.401C340.107 179.19 339.341 179.131 338.587 179.228C337.833 179.325 337.107 179.576 336.453 179.965C335.8 180.355 335.234 180.874 334.789 181.491C334.345 182.107 334.031 182.809 333.869 183.552C333.706 184.295 333.698 185.063 333.844 185.809Z" fill="#00A459"/>
<path opacity="0.1" d="M313.333 202.289C314.614 205.068 323.366 210.817 323.366 210.817C323.366 210.817 324.685 200.427 323.404 197.648C323.131 196.938 322.715 196.293 322.183 195.751C321.65 195.208 321.013 194.781 320.309 194.495C319.605 194.209 318.849 194.071 318.09 194.089C317.33 194.106 316.582 194.279 315.892 194.598C315.202 194.916 314.585 195.372 314.078 195.939C313.571 196.505 313.186 197.169 312.946 197.89C312.706 198.611 312.617 199.374 312.683 200.131C312.75 200.888 312.971 201.624 313.333 202.292V202.289Z" fill="#00A459"/>
<path opacity="0.1" d="M295.594 221.026C296.386 223.985 304.043 231.127 304.043 231.127C304.043 231.127 307.099 221.113 306.304 218.153C306.156 217.407 305.856 216.699 305.424 216.073C304.991 215.447 304.435 214.916 303.789 214.514C303.143 214.112 302.421 213.847 301.669 213.736C300.916 213.624 300.149 213.668 299.414 213.865C298.679 214.062 297.993 214.408 297.397 214.881C296.802 215.355 296.309 215.945 295.951 216.617C295.593 217.288 295.377 218.026 295.315 218.784C295.254 219.543 295.348 220.306 295.594 221.026Z" fill="#00A459"/>
<path opacity="0.25" d="M359.796 175.075C357.89 177.472 348.023 180.981 348.023 180.981C348.023 180.981 349.211 170.56 351.118 168.18C351.553 167.559 352.11 167.033 352.756 166.636C353.401 166.238 354.121 165.977 354.872 165.868C355.622 165.759 356.386 165.805 357.118 166.003C357.85 166.201 358.534 166.546 359.127 167.018C359.721 167.49 360.211 168.079 360.569 168.747C360.926 169.416 361.143 170.151 361.206 170.907C361.269 171.663 361.177 172.423 360.935 173.142C360.693 173.861 360.307 174.522 359.8 175.086L359.796 175.075Z" fill="black"/>
<path opacity="0.25" d="M356.41 194.059C353.506 195.036 343.324 192.607 343.324 192.607C343.324 192.607 349.975 184.521 352.878 183.544C353.581 183.256 354.336 183.115 355.096 183.13C355.856 183.146 356.604 183.316 357.296 183.633C357.987 183.949 358.606 184.403 359.114 184.968C359.623 185.533 360.01 186.197 360.252 186.917C360.494 187.638 360.586 188.4 360.521 189.158C360.457 189.915 360.238 190.652 359.878 191.321C359.518 191.99 359.024 192.579 358.428 193.05C357.831 193.521 357.144 193.864 356.41 194.059Z" fill="black"/>
<path opacity="0.25" d="M338.053 216.503C335.056 215.881 327.488 208.642 327.488 208.642C327.488 208.642 337.309 205.019 340.31 205.641C341.668 206.019 342.831 206.9 343.564 208.104C344.297 209.308 344.545 210.746 344.258 212.126C343.971 213.506 343.171 214.726 342.018 215.538C340.866 216.35 339.449 216.694 338.053 216.5V216.503Z" fill="black"/>
<path opacity="0.25" d="M320.341 230.356C317.282 230.249 308.6 224.395 308.6 224.395C308.6 224.395 317.671 219.157 320.73 219.268C322.133 219.411 323.429 220.082 324.355 221.145C325.282 222.208 325.77 223.583 325.721 224.993C325.671 226.402 325.088 227.74 324.089 228.735C323.09 229.73 321.75 230.309 320.341 230.353V230.356Z" fill="black"/>
<path opacity="0.25" d="M333.844 185.809C334.236 188.849 340.866 196.949 340.866 196.949C340.866 196.949 345.231 187.431 344.842 184.392C344.794 183.633 344.592 182.892 344.246 182.215C343.901 181.537 343.42 180.938 342.833 180.454C342.247 179.97 341.568 179.611 340.837 179.401C340.107 179.19 339.341 179.131 338.587 179.228C337.833 179.325 337.107 179.576 336.453 179.965C335.8 180.355 335.234 180.874 334.789 181.491C334.345 182.107 334.031 182.809 333.869 183.552C333.706 184.295 333.698 185.063 333.844 185.809Z" fill="black"/>
<path opacity="0.25" d="M313.333 202.289C314.614 205.068 323.366 210.817 323.366 210.817C323.366 210.817 324.685 200.427 323.404 197.648C323.131 196.938 322.715 196.293 322.183 195.751C321.65 195.208 321.013 194.781 320.309 194.495C319.605 194.209 318.849 194.071 318.09 194.089C317.33 194.106 316.582 194.279 315.892 194.598C315.202 194.916 314.585 195.372 314.078 195.939C313.571 196.505 313.186 197.169 312.946 197.89C312.706 198.611 312.617 199.374 312.683 200.131C312.75 200.888 312.971 201.624 313.333 202.292V202.289Z" fill="black"/>
<path opacity="0.25" d="M295.594 221.026C296.386 223.985 304.043 231.127 304.043 231.127C304.043 231.127 307.099 221.113 306.304 218.153C306.156 217.407 305.856 216.699 305.424 216.073C304.991 215.447 304.435 214.916 303.789 214.514C303.143 214.112 302.421 213.847 301.669 213.736C300.916 213.624 300.149 213.668 299.414 213.865C298.679 214.062 297.993 214.408 297.397 214.881C296.802 215.355 296.309 215.945 295.951 216.617C295.593 217.288 295.377 218.026 295.315 218.784C295.254 219.543 295.348 220.306 295.594 221.026Z" fill="black"/>
<path opacity="0.1" d="M310.854 253.547C310.854 253.547 320.647 229.404 338.935 220.449C346.632 216.739 352.917 210.631 356.847 203.042C358.685 199.428 360.188 195.652 361.337 191.763" stroke="#535461" stroke-width="2" stroke-miterlimit="10"/>
<path opacity="0.1" d="M372.822 186.052C370.915 188.449 361.049 191.958 361.049 191.958C361.049 191.958 362.237 181.537 364.143 179.157C365.09 178.105 366.402 177.453 367.812 177.336C369.223 177.218 370.625 177.643 371.732 178.524C372.84 179.405 373.57 180.676 373.773 182.077C373.976 183.478 373.637 184.903 372.825 186.063L372.822 186.052Z" fill="#00A459"/>
<path opacity="0.1" d="M369.443 205.036C366.54 206.012 356.357 203.584 356.357 203.584C356.357 203.584 363.008 195.497 365.911 194.521C367.275 194.159 368.726 194.33 369.969 194.999C371.212 195.668 372.153 196.785 372.603 198.123C373.052 199.462 372.976 200.921 372.389 202.205C371.802 203.489 370.749 204.501 369.443 205.036Z" fill="#00A459"/>
<path opacity="0.1" d="M351.086 227.494C348.089 226.872 340.521 219.633 340.521 219.633C340.521 219.633 350.342 216.01 353.343 216.632C354.701 217.01 355.864 217.891 356.597 219.095C357.33 220.299 357.578 221.737 357.291 223.117C357.004 224.497 356.204 225.717 355.051 226.529C353.899 227.341 352.482 227.685 351.086 227.49V227.494Z" fill="#00A459"/>
<path opacity="0.1" d="M333.37 241.33C330.311 241.222 321.629 235.369 321.629 235.369C321.629 235.369 330.7 230.137 333.759 230.245C335.162 230.388 336.458 231.059 337.385 232.122C338.311 233.184 338.799 234.56 338.75 235.969C338.7 237.379 338.117 238.717 337.118 239.712C336.119 240.707 334.78 241.286 333.37 241.33Z" fill="#00A459"/>
<path opacity="0.1" d="M346.873 196.8C347.266 199.84 353.895 207.94 353.895 207.94C353.895 207.94 358.26 198.422 357.871 195.383C357.824 194.624 357.621 193.883 357.275 193.205C356.93 192.528 356.449 191.929 355.863 191.445C355.276 190.961 354.597 190.602 353.866 190.391C353.136 190.181 352.37 190.122 351.616 190.219C350.862 190.316 350.136 190.567 349.483 190.956C348.83 191.345 348.263 191.864 347.819 192.481C347.374 193.098 347.061 193.8 346.898 194.543C346.736 195.285 346.727 196.054 346.873 196.8Z" fill="#00A459"/>
<path opacity="0.1" d="M326.365 213.252C327.647 216.031 336.398 221.78 336.398 221.78C336.398 221.78 337.718 211.39 336.436 208.611C335.764 207.369 334.644 206.43 333.305 205.984C331.965 205.538 330.506 205.619 329.224 206.211C327.942 206.802 326.933 207.859 326.402 209.167C325.871 210.476 325.858 211.937 326.365 213.255V213.252Z" fill="#00A459"/>
<path opacity="0.1" d="M308.628 232.01C309.419 234.969 317.077 242.111 317.077 242.111C317.077 242.111 320.133 232.097 319.338 229.137C318.883 227.802 317.938 226.69 316.694 226.026C315.45 225.362 314.001 225.196 312.639 225.561C311.277 225.926 310.105 226.796 309.36 227.993C308.615 229.191 308.353 230.626 308.628 232.01Z" fill="#00A459"/>
</g>
<path opacity="0.1" d="M4.11523 149.359C10.144 175.134 22.9065 197.415 43.0765 208.215C84.9931 230.658 179.526 219.084 250.079 205.783C285.727 199.087 318.086 180.587 341.945 153.26L4.11523 149.359Z" fill="#00A459"/>
<path opacity="0.1" d="M374.089 28.0364H335.377C334.49 28.0364 333.639 27.6838 333.011 27.0561C332.384 26.4284 332.031 25.5771 332.031 24.6895C332.031 23.8018 332.384 22.9505 333.011 22.3228C333.639 21.6951 334.49 21.3425 335.377 21.3425H342.069C341.182 21.3425 340.331 20.9899 339.703 20.3622C339.076 19.7346 338.723 18.8833 338.723 17.9956C338.723 17.1079 339.076 16.2566 339.703 15.629C340.331 15.0013 341.182 14.6487 342.069 14.6487H337.291C336.403 14.6487 335.552 14.296 334.925 13.6684C334.297 13.0407 333.945 12.1894 333.945 11.3017C333.945 10.4141 334.297 9.56278 334.925 8.93511C335.552 8.30744 336.403 7.95481 337.291 7.95481H357.496C353.012 5.87058 347.772 4.3873 341.736 3.60919C286.644 -3.47025 266.974 1.21233 260.035 6.04079C251.475 11.9809 241.925 16.3508 231.718 18.4559C197.723 25.4624 134.153 33.9035 76.5363 15.7464C47.8997 6.7147 26.6149 21.9713 13.8594 47.4545H380.808C380.329 40.0485 378.895 33.2122 376.263 27.2235C375.659 27.7467 374.887 28.0352 374.089 28.0364Z" fill="#00A459"/>
<path opacity="0.1" d="M0.828455 95.562C-0.657722 110.553 -0.152085 125.675 2.33217 140.533L342.207 152.965C351.668 142.079 359.612 129.961 365.822 116.943L0.828455 95.562ZM135.253 127.642H128.561C129.449 127.642 130.3 127.994 130.927 128.622C131.555 129.25 131.907 130.101 131.907 130.989C131.907 131.876 131.555 132.728 130.927 133.355C130.3 133.983 129.449 134.336 128.561 134.336H89.85C88.9626 134.336 88.1115 133.983 87.484 133.355C86.8565 132.728 86.504 131.876 86.504 130.989C86.504 130.101 86.8565 129.25 87.484 128.622C88.1115 127.994 88.9626 127.642 89.85 127.642H96.5421C95.6547 127.642 94.8036 127.289 94.1761 126.662C93.5486 126.034 93.196 125.183 93.196 124.295C93.196 123.407 93.5486 122.556 94.1761 121.928C94.8036 121.301 95.6547 120.948 96.5421 120.948H91.7635C90.8761 120.948 90.025 120.595 89.3975 119.968C88.77 119.34 88.4175 118.489 88.4175 117.601C88.4175 116.713 88.77 115.862 89.3975 115.234C90.025 114.607 90.8761 114.254 91.7635 114.254H130.475C131.362 114.254 132.213 114.607 132.841 115.234C133.468 115.862 133.821 116.713 133.821 117.601C133.821 118.489 133.468 119.34 132.841 119.968C132.213 120.595 131.362 120.948 130.475 120.948H135.253C136.141 120.948 136.992 121.301 137.619 121.928C138.247 122.556 138.599 123.407 138.599 124.295C138.599 125.183 138.247 126.034 137.619 126.662C136.992 127.289 136.141 127.642 135.253 127.642Z" fill="#00A459"/>
<path opacity="0.1" d="M380.826 47.6872L9.76122 56.7189C5.25006 68.3246 2.27388 81.4448 0.884766 95.0444H374.324C376.763 87.0556 378.566 78.8867 379.718 70.6137C380.829 62.6207 381.274 54.8882 380.826 47.6872ZM76.2166 77.2729H69.5245C70.4119 77.2729 71.263 77.6255 71.8905 78.2532C72.518 78.8808 72.8705 79.7321 72.8705 80.6198C72.8705 81.5074 72.518 82.3588 71.8905 82.9864C71.263 83.6141 70.4119 83.9667 69.5245 83.9667H30.8133C29.9259 83.9667 29.0748 83.6141 28.4473 82.9864C27.8198 82.3588 27.4673 81.5074 27.4673 80.6198C27.4673 79.7321 27.8198 78.8808 28.4473 78.2532C29.0748 77.6255 29.9259 77.2729 30.8133 77.2729H37.5054C36.6179 77.2729 35.7669 76.9202 35.1394 76.2926C34.5118 75.6649 34.1593 74.8136 34.1593 73.9259C34.1593 73.0383 34.5118 72.187 35.1394 71.5593C35.7669 70.9316 36.6179 70.579 37.5054 70.579H32.7268C31.8394 70.579 30.9883 70.2264 30.3608 69.5987C29.7333 68.971 29.3808 68.1197 29.3808 67.2321C29.3808 66.3444 29.7333 65.4931 30.3608 64.8654C30.9883 64.2378 31.8394 63.8851 32.7268 63.8851H71.438C72.3254 63.8851 73.1765 64.2378 73.804 64.8654C74.4315 65.4931 74.784 66.3444 74.784 67.2321C74.784 68.1197 74.4315 68.971 73.804 69.5987C73.1765 70.2264 72.3254 70.579 71.438 70.579H76.2166C77.104 70.579 77.9551 70.9316 78.5826 71.5593C79.2101 72.187 79.5626 73.0383 79.5626 73.9259C79.5626 74.8136 79.2101 75.6649 78.5826 76.2926C77.9551 76.9202 77.104 77.2729 76.2166 77.2729Z" fill="#00A459"/>
<path d="M325.984 281.823C325.984 281.823 310.51 196.925 281.001 183.148C255.997 171.466 228.958 163.591 221.269 161.455C220.121 159.605 218.794 157.873 217.307 156.283C206.798 145.309 200.485 145.514 199.464 145.65C198.979 143.473 198.631 141.269 198.422 139.05C198.391 138.702 198.359 138.379 198.332 138.035L198.422 137.99C198.359 137.333 198.304 136.656 198.255 135.958C202.545 133.668 206.495 130.79 209.99 127.409C210.035 127.558 210.073 127.708 210.122 127.861C217.695 121.457 225.111 114.881 232.372 108.13C234.456 106.181 236.643 104.066 237.352 101.318C237.579 100.372 237.666 99.3988 237.612 98.4278C237.706 96.3436 237.213 94.2142 237.13 92.1022C237.13 91.7548 237.168 91.4318 237.213 91.1018C237.699 87.6454 240.102 84.8074 242.075 81.9068C247.003 74.5768 249.575 65.9161 249.448 57.0836C249.502 52.8515 248.916 48.6355 247.711 44.5783C246.173 39.4302 242.971 34.0216 237.64 32.8961C235.577 32.4619 233.435 32.7329 231.33 32.5974C222.617 32.0416 216.095 24.9552 209.146 19.762C200.665 13.4545 190.635 9.56055 180.12 8.49326C176.838 8.14589 173.449 8.12157 170.327 9.16369C163.315 11.498 159.058 18.706 152.303 21.6691C147.309 23.8714 141.538 23.5136 136.328 25.1671C128.574 27.6334 121.993 35.5883 121.819 43.7619C121.819 44.0641 121.819 44.3664 121.819 44.6686C121.819 44.7207 121.819 44.7728 121.819 44.8214C121.732 48.9517 123.208 53.1583 123.326 57.3859C123.326 57.768 123.332 58.1512 123.344 58.5357C123.305 63.1001 122.76 67.6785 121.097 71.9685C120.201 74.2786 119.048 76.9533 119.235 79.2633C119.131 80.6771 119.405 82.0041 120.388 83.0844L122.066 81.6046C121.503 84.6501 121.221 87.7407 121.222 90.8378C121.222 106.449 128.32 120.427 139.516 129.834C139.581 130.874 139.644 131.987 139.704 133.175C139.968 138.324 140.176 144.781 140.117 151.819L123.739 166.877L81.6354 185.983C81.6354 185.983 43.1291 194.118 51.4221 248.229L55.3811 281.826H90.5361L90.4563 282.004H142.635L142.666 281.826H266.812L266.787 282.004H271.649V281.826L325.984 281.823ZM199.773 146.511C200.837 148.713 201.675 151.018 202.273 153.389C201.044 151.107 200.136 148.666 199.575 146.136L199.627 146.23L199.773 146.511ZM140.103 153.459C140.103 154.121 140.092 154.789 140.069 155.463L139.985 155.581C139.98 154.866 140.019 154.151 140.103 153.441V153.459Z" fill="url(#paint0_linear)"/>
<path d="M213.507 161.98L206.561 228.328L169.402 240.138C169.402 240.138 121.13 231.107 133.632 205.054C142.526 186.521 142.28 153.403 141.397 135.826C141.05 128.691 140.578 124.116 140.578 124.116C140.578 124.116 203.783 68.8839 198.574 118.558C197.566 128.177 197.507 135.697 198.067 141.575C200.411 166.044 213.507 161.98 213.507 161.98Z" fill="#FDC2CC"/>
<path opacity="0.03" d="M213.507 161.98L206.561 228.328L169.402 240.138C169.402 240.138 121.13 231.107 133.632 205.054C142.526 186.521 142.28 153.403 141.397 135.826C141.05 128.691 140.578 124.116 140.578 124.116C140.578 124.116 203.783 68.8839 198.574 118.558C197.566 128.177 197.507 135.697 198.067 141.575C200.411 166.044 213.507 161.98 213.507 161.98Z" fill="black"/>
<path opacity="0.1" d="M198.574 117.516C197.567 127.135 197.508 134.655 198.067 140.533C189.144 145.405 178.956 147.464 168.842 146.438C158.728 145.412 149.161 141.349 141.398 134.784C141.05 127.649 140.578 123.074 140.578 123.074C140.578 123.074 203.783 67.8417 198.574 117.516Z" fill="black"/>
<path d="M173.916 144.614C201.727 144.614 224.271 122.063 224.271 94.2454C224.271 66.4275 201.727 43.8765 173.916 43.8765C146.105 43.8765 123.561 66.4275 123.561 94.2454C123.561 122.063 146.105 144.614 173.916 144.614Z" fill="#FDC2CC"/>
<path opacity="0.03" d="M173.916 144.614C201.727 144.614 224.271 122.063 224.271 94.2454C224.271 66.4275 201.727 43.8765 173.916 43.8765C146.105 43.8765 123.561 66.4275 123.561 94.2454C123.561 122.063 146.105 144.614 173.916 144.614Z" fill="black"/>
<path opacity="0.1" d="M90.918 229.022C90.918 229.022 107.24 262.37 108.108 281.997L90.918 229.022Z" fill="black"/>
<path opacity="0.1" d="M268.723 248.131L264.035 282H268.723V248.131Z" fill="black"/>
<path opacity="0.1" d="M94.5645 281.997L120.437 223.117C120.437 223.117 127.73 209.222 129.466 195.327C131.202 181.432 140.579 159.548 140.579 159.548C140.579 159.548 163.847 130.021 174.612 134.19C185.378 138.358 165.236 153.99 165.236 153.99C165.236 153.99 194.754 165.453 174.612 199.496C154.47 233.538 154.123 227.285 154.123 227.285L144.225 281.997H94.5645Z" fill="black"/>
<path d="M93.8691 281.997L119.741 223.117C119.741 223.117 127.034 209.222 128.771 195.327C129.875 186.494 134.067 174.429 136.973 166.811C138.871 161.831 141.662 157.24 145.211 153.264C152.733 144.844 166.395 131.265 173.917 134.183C184.683 138.351 164.54 153.983 164.54 153.983C164.54 153.983 194.059 165.446 173.917 199.489C153.775 233.531 153.428 227.279 153.428 227.279L143.53 281.99L93.8691 281.997Z" fill="#FDC2CC"/>
<path opacity="0.15" d="M189.37 66.9768C189.945 66.9768 190.412 66.5102 190.412 65.9347C190.412 65.3592 189.945 64.8926 189.37 64.8926C188.795 64.8926 188.328 65.3592 188.328 65.9347C188.328 66.5102 188.795 66.9768 189.37 66.9768Z" fill="white"/>
<path opacity="0.15" d="M184.509 69.061C185.084 69.061 185.55 68.5945 185.55 68.0189C185.55 67.4434 185.084 66.9768 184.509 66.9768C183.933 66.9768 183.467 67.4434 183.467 68.0189C183.467 68.5945 183.933 69.061 184.509 69.061Z" fill="white"/>
<path opacity="0.1" d="M138.144 30.7702C143.169 29.1445 148.747 29.4953 153.567 27.3347C160.085 24.4098 164.193 17.3304 170.958 15.0377C173.973 14.0165 177.244 14.0547 180.408 14.3812C190.581 15.4403 200.27 19.2693 208.419 25.4519C215.125 30.5548 221.418 37.5127 229.826 38.0581C231.857 38.1901 233.924 37.9226 235.914 38.3499C241.067 39.4545 244.155 44.7658 245.637 49.8131C247.353 55.7948 247.755 62.0768 246.816 68.2285C245.878 74.3801 243.62 80.2561 240.199 85.4535C238.296 88.3019 235.976 91.0913 235.507 94.4852C235.049 97.813 236.466 101.262 235.639 104.521C234.945 107.22 232.861 109.297 230.833 111.211C223.829 117.837 216.672 124.292 209.361 130.577C205.561 118.502 211.135 105.5 210.267 92.8734C209.92 87.9546 208.183 82.5842 203.846 80.2638C199.786 78.0962 194.598 79.2216 190.489 77.1374C185.905 74.8274 184.023 69.3563 180.557 65.5699C174.654 59.1088 164.405 58.2751 156.151 61.193C147.896 64.111 141.148 70.1136 134.619 75.9668L122.753 86.6137C120.436 84.0015 122.194 79.9928 123.447 76.7275C125.316 71.833 125.725 66.5565 125.6 61.3598C125.5 57.1913 124.062 53.075 124.145 49.0177C124.312 41.0142 130.66 33.1914 138.144 30.7702Z" fill="black"/>
<path d="M138.144 29.7281C143.169 28.1024 148.747 28.4532 153.567 26.2926C160.085 23.3677 164.193 16.2883 170.958 13.9956C173.973 12.9743 177.244 13.0126 180.408 13.3391C190.581 14.3982 200.27 18.2272 208.419 24.4098C215.125 29.5127 221.418 36.4706 229.826 37.016C231.857 37.148 233.924 36.8805 235.914 37.3077C241.067 38.4124 244.155 43.7237 245.637 48.771C247.353 54.7527 247.755 61.0347 246.816 67.1864C245.878 73.338 243.62 79.214 240.199 84.4114C238.296 87.2598 235.976 90.0492 235.507 93.4431C235.049 96.7709 236.466 100.22 235.639 103.479C234.945 106.178 232.861 108.255 230.833 110.169C223.829 116.795 216.672 123.25 209.361 129.535C205.561 117.46 211.135 104.458 210.267 91.8312C209.92 86.9125 208.183 81.5421 203.846 79.2216C199.786 77.0541 194.598 78.1795 190.489 76.0953C185.905 73.7853 184.023 68.3142 180.557 64.5278C174.654 58.0667 164.405 57.233 156.151 60.1509C147.896 63.0689 141.148 69.0714 134.619 74.9247L122.753 85.5716C120.436 82.9594 122.194 78.9507 123.447 75.6854C125.316 70.7909 125.725 65.5144 125.6 60.3177C125.5 56.1492 124.062 52.0328 124.145 47.9755C124.312 39.9721 130.66 32.1493 138.144 29.7281Z" fill="#865A61"/>
</g>
<defs>
<linearGradient id="paint0_linear" x1="188.115" y1="281.997" x2="188.115" y2="8.26051" gradientUnits="userSpaceOnUse">
<stop stop-color="#808080" stop-opacity="0.25"/>
<stop offset="0.54" stop-color="#808080" stop-opacity="0.12"/>
<stop offset="1" stop-color="#808080" stop-opacity="0.1"/>
</linearGradient>
<clipPath id="clip0">
<rect width="381" height="282" fill="white"/>
</clipPath>
</defs>
</svg>
