<svg width="48" height="42" viewBox="0 0 48 42" fill="none" xmlns="http://www.w3.org/2000/svg">
<path d="M13.2 0C9.69914 0 6.34167 1.45952 3.86619 4.05747C1.39071 6.65543 0 10.179 0 13.8531C0 15.1124 0.216 16.3718 0.528 17.6312H10.32L13.368 9.14303C14.088 7.12804 16.92 6.92654 17.832 9.14303L22.8 22.6687L24.216 19.0921C24.528 18.2609 25.368 17.6312 26.4 17.6312H47.472C47.784 16.3718 48 15.1124 48 13.8531C48 10.179 46.6093 6.65543 44.1338 4.05747C41.6583 1.45952 38.3009 0 34.8 0C30.336 0 26.4 2.34243 24 5.89385C21.6 2.34243 17.664 0 13.2 0ZM2.4 21.4093C1.76348 21.4093 1.15303 21.6747 0.702944 22.147C0.252856 22.6194 0 23.26 0 23.928C0 24.596 0.252856 25.2367 0.702944 25.7091C1.15303 26.1814 1.76348 26.4468 2.4 26.4468H8.256L21.6 40.2999C24 42.5667 24 42.5667 26.4 40.2999L39.744 26.4468H45.6C46.2365 26.4468 46.847 26.1814 47.2971 25.7091C47.7471 25.2367 48 24.596 48 23.928C48 23.26 47.7471 22.6194 47.2971 22.147C46.847 21.6747 46.2365 21.4093 45.6 21.4093H27.36L25.128 27.2024C24.168 29.7463 21.408 29.3937 20.52 27.278L15.6 13.8531L13.296 19.7217C12.936 20.6789 12.12 21.4093 11.04 21.4093H2.4Z" fill="#FF6161"/>
</svg>
