<svg width="57" height="57" viewBox="0 0 57 57" fill="none" xmlns="http://www.w3.org/2000/svg">
<path d="M8.3125 0C12.54 0 14.6538 5.13 11.685 8.1225C8.6925 11.0913 3.5625 8.9775 3.5625 4.75C3.5625 3.49022 4.06294 2.28204 4.95374 1.39124C5.84454 0.500445 7.05272 0 8.3125 0V0ZM4.75 11.875H11.875C13.1348 11.875 14.343 12.3754 15.2338 13.2662C16.1246 14.157 16.625 15.3652 16.625 16.625V29.6875H13.0625V47.5H3.5625V29.6875H0V16.625C0 15.3652 0.500445 14.157 1.39124 13.2662C2.28204 12.3754 3.49022 11.875 4.75 11.875V11.875ZM36.8125 14.25H41.5625L34.4375 4.75L27.3125 14.25H32.0625V33.25H27.3125L34.4375 42.75L41.5625 33.25H36.8125V14.25ZM43.9375 0H24.9375V4.75H43.9375V0ZM43.9375 42.75H24.9375V47.5H43.9375" fill="#74C0FF"/>
</svg>
