<svg width="24" height="24" viewBox="0 0 24 24" fill="none" xmlns="http://www.w3.org/2000/svg">
<path d="M15.334 2.66675H4.66732C4.3137 2.66675 3.97456 2.80722 3.72451 3.05727C3.47446 3.30732 3.33398 3.64646 3.33398 4.00008V20.0001C3.33398 20.3537 3.47446 20.6928 3.72451 20.9429C3.97456 21.1929 4.3137 21.3334 4.66732 21.3334H15.334C15.6876 21.3334 16.0267 21.1929 16.2768 20.9429C16.5268 20.6928 16.6673 20.3537 16.6673 20.0001V16.0001H10.4207C10.2438 16.0001 10.0743 15.9298 9.94925 15.8048C9.82422 15.6798 9.75398 15.5102 9.75398 15.3334C9.75398 15.1566 9.82422 14.987 9.94925 14.862C10.0743 14.737 10.2438 14.6667 10.4207 14.6667H16.6673V4.00008C16.6673 3.64646 16.5268 3.30732 16.2768 3.05727C16.0267 2.80722 15.6876 2.66675 15.334 2.66675V2.66675Z" fill="#535353"/>
<path d="M18.7727 11.5199C18.6451 11.4107 18.4811 11.3536 18.3133 11.3601C18.1455 11.3666 17.9864 11.4362 17.8676 11.5549C17.7489 11.6736 17.6794 11.8328 17.6729 12.0006C17.6664 12.1683 17.7235 12.3324 17.8327 12.4599L20.086 14.6666H16.666V15.9999H20.086L17.8327 18.3066C17.7629 18.3664 17.7062 18.4399 17.6662 18.5226C17.6262 18.6053 17.6037 18.6954 17.6001 18.7872C17.5966 18.879 17.6121 18.9706 17.6456 19.0561C17.6791 19.1417 17.7299 19.2194 17.7949 19.2844C17.8599 19.3493 17.9376 19.4002 18.0231 19.4337C18.1087 19.4672 18.2002 19.4827 18.2921 19.4791C18.3839 19.4756 18.474 19.4531 18.5567 19.4131C18.6394 19.3731 18.7129 19.3164 18.7727 19.2466L22.666 15.3799L18.7727 11.5199Z" fill="#535353"/>
</svg>
