<svg width="652" height="266" viewBox="0 0 652 266" fill="none" xmlns="http://www.w3.org/2000/svg">
<path d="M320.73 167V103.368H338.869C342.426 103.368 345.659 103.691 348.569 104.338C351.544 104.985 354.066 106.052 356.135 107.539C358.204 108.962 359.821 110.869 360.985 113.262C362.149 115.655 362.731 118.597 362.731 122.089C362.731 125.452 362.149 128.362 360.985 130.819C359.886 133.276 358.301 135.313 356.232 136.93C354.163 138.547 351.673 139.775 348.763 140.616C345.918 141.392 342.749 141.78 339.257 141.78H328.781V167H320.73ZM328.781 135.184H338.287C343.848 135.184 347.955 134.149 350.606 132.08C353.322 129.946 354.68 126.616 354.68 122.089C354.68 117.498 353.257 114.329 350.412 112.583C347.631 110.772 343.46 109.867 337.899 109.867H328.781V135.184ZM374.895 167V119.858H381.491L382.17 128.394H382.461C384.078 125.419 386.018 123.059 388.281 121.313C390.609 119.567 393.131 118.694 395.847 118.694C397.723 118.694 399.404 119.017 400.891 119.664L399.339 126.648C398.563 126.389 397.852 126.195 397.205 126.066C396.559 125.937 395.75 125.872 394.78 125.872C392.776 125.872 390.674 126.68 388.475 128.297C386.341 129.914 384.466 132.727 382.849 136.736V167H374.895ZM426.685 168.164C423.516 168.164 420.542 167.614 417.761 166.515C415.045 165.351 412.652 163.734 410.583 161.665C408.578 159.531 406.994 156.944 405.83 153.905C404.666 150.866 404.084 147.406 404.084 143.526C404.084 139.646 404.666 136.186 405.83 133.147C407.059 130.043 408.643 127.424 410.583 125.29C412.588 123.156 414.851 121.539 417.373 120.44C419.895 119.276 422.514 118.694 425.23 118.694C428.205 118.694 430.856 119.211 433.184 120.246C435.577 121.281 437.549 122.768 439.101 124.708C440.718 126.648 441.946 128.976 442.787 131.692C443.628 134.408 444.048 137.447 444.048 140.81C444.048 141.651 444.016 142.491 443.951 143.332C443.951 144.108 443.886 144.787 443.757 145.369H411.941C412.264 150.413 413.816 154.422 416.597 157.397C419.442 160.307 423.128 161.762 427.655 161.762C429.918 161.762 431.988 161.439 433.863 160.792C435.803 160.081 437.646 159.175 439.392 158.076L442.205 163.314C440.136 164.607 437.84 165.739 435.318 166.709C432.796 167.679 429.918 168.164 426.685 168.164ZM411.844 139.646H437.064C437.064 134.861 436.029 131.239 433.96 128.782C431.955 126.26 429.11 124.999 425.424 124.999C423.743 124.999 422.126 125.322 420.574 125.969C419.087 126.616 417.729 127.586 416.5 128.879C415.271 130.108 414.237 131.627 413.396 133.438C412.62 135.249 412.103 137.318 411.844 139.646ZM471.799 168.164C465.85 168.164 461.097 166.03 457.54 161.762C454.048 157.494 452.302 151.415 452.302 143.526C452.302 139.711 452.852 136.283 453.951 133.244C455.115 130.14 456.635 127.521 458.51 125.387C460.385 123.253 462.552 121.604 465.009 120.44C467.466 119.276 470.053 118.694 472.769 118.694C475.485 118.694 477.845 119.179 479.85 120.149C481.855 121.119 483.892 122.445 485.961 124.126L485.573 116.075V97.936H493.624V167H487.028L486.349 161.471H486.058C484.183 163.282 482.016 164.866 479.559 166.224C477.166 167.517 474.58 168.164 471.799 168.164ZM473.545 161.471C475.744 161.471 477.813 160.954 479.753 159.919C481.693 158.82 483.633 157.171 485.573 154.972V130.334C483.568 128.523 481.628 127.262 479.753 126.551C477.942 125.775 476.067 125.387 474.127 125.387C472.252 125.387 470.473 125.84 468.792 126.745C467.175 127.586 465.753 128.814 464.524 130.431C463.295 131.983 462.325 133.858 461.614 136.057C460.903 138.256 460.547 140.713 460.547 143.429C460.547 149.12 461.679 153.549 463.942 156.718C466.205 159.887 469.406 161.471 473.545 161.471ZM509.502 167V119.858H517.456V167H509.502ZM513.576 110.158C512.024 110.158 510.698 109.673 509.599 108.703C508.564 107.733 508.047 106.504 508.047 105.017C508.047 103.465 508.564 102.236 509.599 101.331C510.698 100.361 512.024 99.876 513.576 99.876C515.128 99.876 516.421 100.361 517.456 101.331C518.555 102.236 519.105 103.465 519.105 105.017C519.105 106.504 518.555 107.733 517.456 108.703C516.421 109.673 515.128 110.158 513.576 110.158ZM551.997 168.164C548.893 168.164 545.983 167.614 543.267 166.515C540.551 165.416 538.191 163.831 536.186 161.762C534.246 159.628 532.694 157.041 531.53 154.002C530.431 150.898 529.881 147.406 529.881 143.526C529.881 139.581 530.495 136.089 531.724 133.05C532.953 129.946 534.602 127.327 536.671 125.193C538.74 123.059 541.133 121.442 543.849 120.343C546.63 119.244 549.54 118.694 552.579 118.694C555.683 118.694 558.334 119.244 560.533 120.343C562.732 121.442 564.672 122.736 566.353 124.223L562.279 129.461C560.921 128.232 559.466 127.23 557.914 126.454C556.427 125.678 554.745 125.29 552.87 125.29C550.736 125.29 548.764 125.743 546.953 126.648C545.142 127.489 543.59 128.717 542.297 130.334C541.004 131.951 539.969 133.891 539.193 136.154C538.482 138.353 538.126 140.81 538.126 143.526C538.126 146.242 538.482 148.699 539.193 150.898C539.904 153.097 540.874 155.004 542.103 156.621C543.396 158.173 544.948 159.402 546.759 160.307C548.57 161.148 550.542 161.568 552.676 161.568C554.875 161.568 556.879 161.115 558.69 160.21C560.565 159.24 562.247 158.108 563.734 156.815L567.226 162.15C565.092 164.025 562.732 165.513 560.145 166.612C557.558 167.647 554.842 168.164 551.997 168.164ZM591.504 168.164C588.982 168.164 586.848 167.776 585.102 167C583.421 166.224 582.03 165.157 580.931 163.799C579.896 162.441 579.153 160.792 578.7 158.852C578.247 156.912 578.021 154.778 578.021 152.45V126.357H571.037V120.343L578.409 119.858L579.379 106.666H586.072V119.858H598.779V126.357H586.072V152.547C586.072 155.457 586.589 157.72 587.624 159.337C588.723 160.889 590.631 161.665 593.347 161.665C594.188 161.665 595.093 161.536 596.063 161.277C597.033 161.018 597.906 160.727 598.682 160.404L600.234 166.418C598.941 166.871 597.518 167.259 595.966 167.582C594.479 167.97 592.991 168.164 591.504 168.164ZM602.939 167L621.466 134.117L604.2 103.368H613.124L621.757 119.664C622.598 121.151 623.374 122.606 624.085 124.029C624.861 125.387 625.734 127.004 626.704 128.879H627.092C627.998 127.004 628.774 125.387 629.42 124.029C630.132 122.606 630.875 121.151 631.651 119.664L640.09 103.368H648.626L631.263 134.505L649.79 167H640.866L631.554 149.831C630.714 148.279 629.841 146.695 628.935 145.078C628.095 143.397 627.157 141.586 626.122 139.646H625.734C624.829 141.586 623.956 143.397 623.115 145.078C622.275 146.695 621.466 148.279 620.69 149.831L611.475 167H602.939Z" fill="black"/>
<rect width="271" height="266" rx="20" fill="#00A459"/>
<path d="M235.031 99.5172C234.984 99.2657 234.945 99.0151 234.875 98.7701C234.836 98.6221 234.789 98.4831 234.742 98.3375C234.68 98.1201 234.61 97.9034 234.524 97.6915C234.462 97.5436 234.4 97.4013 234.33 97.259C234.244 97.0585 234.151 96.8604 234.042 96.668C233.964 96.5265 233.878 96.3923 233.792 96.2556C233.683 96.0721 233.559 95.891 233.434 95.7147C233.341 95.5838 233.24 95.4584 233.138 95.3331C233.006 95.1658 232.858 95.0073 232.718 94.8513C232.601 94.734 232.492 94.6168 232.375 94.5028C232.219 94.3548 232.056 94.2158 231.885 94.0815C231.76 93.9789 231.635 93.873 231.495 93.7775C231.448 93.742 231.41 93.6999 231.355 93.666L140.251 30.6013C137.377 28.6082 133.624 28.6082 130.75 30.6011L39.6381 93.6633C39.5861 93.6965 39.5459 93.7385 39.4949 93.7749C39.3606 93.8727 39.2345 93.9754 39.1056 94.0789C38.9392 94.2155 38.7754 94.3546 38.6196 94.4969C38.5015 94.6085 38.3888 94.7249 38.2787 94.8453C38.1284 95.0014 37.9888 95.1599 37.8519 95.3272C37.7499 95.4525 37.6532 95.5779 37.5592 95.7177C37.4304 95.8932 37.3122 96.0719 37.1968 96.2586C37.1136 96.3953 37.0303 96.5287 36.9525 96.671C36.8451 96.8634 36.7511 97.0607 36.6625 97.2563C36.5981 97.3986 36.5283 97.5433 36.4719 97.6881C36.3887 97.8999 36.3162 98.1174 36.2491 98.3349C36.2035 98.4796 36.1552 98.6219 36.1176 98.7529C36.0558 98.9979 36.0102 99.2461 35.9672 99.4999C35.9431 99.6285 35.9135 99.7538 35.8974 99.8848C35.8491 100.269 35.8223 100.654 35.8223 101.047L35.8223 164.119C35.8223 164.516 35.8491 164.904 35.9028 165.284C35.9216 165.421 35.9565 165.534 35.9833 165.672C36.0263 165.922 36.0639 166.173 36.1444 166.424C36.182 166.561 36.225 166.699 36.2787 166.852C36.3458 167.079 36.4129 167.297 36.4934 167.507C36.5498 167.644 36.6276 167.782 36.6814 167.919C36.7699 168.121 36.8693 168.316 36.9767 168.518C37.0518 168.655 37.1377 168.793 37.2183 168.922C37.3337 169.116 37.4599 169.286 37.5941 169.456C37.6881 169.593 37.782 169.706 37.8894 169.836C38.0263 170.005 38.1579 170.175 38.319 170.321C38.4291 170.434 38.5337 170.571 38.668 170.652C38.8237 170.79 38.9902 170.935 39.1512 171.081C39.2801 171.186 39.4197 171.275 39.5271 171.38C39.5781 171.412 39.6076 171.469 39.6613 171.493L130.75 234.589C132.191 235.592 133.834 236.093 135.5 236.085C137.167 236.077 138.81 235.584 140.251 234.589L231.363 171.525C231.417 171.493 231.456 171.453 231.503 171.412C231.643 171.315 231.768 171.218 231.892 171.113C232.063 170.976 232.227 170.83 232.383 170.684C232.5 170.579 232.609 170.458 232.725 170.345C232.873 170.183 233.014 170.03 233.146 169.86C233.247 169.73 233.348 169.609 233.442 169.472C233.566 169.302 233.691 169.116 233.8 168.938C233.886 168.801 233.971 168.663 234.049 168.526C234.158 168.332 234.252 168.138 234.337 167.936C234.407 167.79 234.47 167.653 234.532 167.507C234.618 167.289 234.688 167.07 234.75 166.852C234.797 166.707 234.844 166.569 234.883 166.424C234.945 166.181 234.992 165.93 235.038 165.68C235.054 165.55 235.093 165.421 235.101 165.292C235.155 164.904 235.178 164.524 235.178 164.127V101.064C235.178 100.671 235.147 100.286 235.101 99.901C235.085 99.7643 235.038 99.6536 235.015 99.5169H235.03L235.031 99.5172ZM135.5 153.633L105.201 132.596L135.5 111.558L165.793 132.596L135.5 153.633ZM126.934 96.1052L89.7941 121.899L59.8151 101.075L126.934 54.6189V96.1052ZM74.3868 132.596L52.9583 147.472V117.711L74.3868 132.596ZM89.7941 143.3L126.934 169.092V210.577L59.8151 164.112L89.7941 143.3ZM144.067 169.084L181.204 143.3L211.186 164.112L144.067 210.569V169.084V169.084ZM196.608 132.596L218.039 117.711V147.48L196.608 132.596ZM181.204 121.899L144.067 96.1077V54.6189L211.186 101.075L181.204 121.899V121.899Z" fill="white"/>
</svg>
