<svg width="24" height="24" viewBox="0 0 24 24" fill="none" xmlns="http://www.w3.org/2000/svg">
<rect width="24" height="24" rx="12" fill="#00A459"/>
<path d="M20.8159 8.97884C20.8118 8.95615 20.8083 8.93354 20.8021 8.91144C20.7987 8.89809 20.7945 8.88554 20.7904 8.87241C20.7849 8.85279 20.7787 8.83324 20.7711 8.81412C20.7656 8.80077 20.76 8.78794 20.7538 8.7751C20.7462 8.757 20.738 8.73913 20.7283 8.72177C20.7214 8.70901 20.7138 8.6969 20.7062 8.68457C20.6966 8.66801 20.6856 8.65167 20.6745 8.63576C20.6662 8.62395 20.6573 8.61264 20.6483 8.60133C20.6366 8.58623 20.6235 8.57193 20.6111 8.55786C20.6007 8.54728 20.5911 8.5367 20.5807 8.52641C20.5669 8.51307 20.5524 8.50052 20.5373 8.48841C20.5262 8.47914 20.5152 8.46959 20.5028 8.46098C20.4987 8.45777 20.4952 8.45398 20.4904 8.45091L12.4221 2.76085C12.1676 2.58102 11.8352 2.58102 11.5807 2.76083L3.51176 8.45067C3.50716 8.45366 3.50359 8.45746 3.49908 8.46074C3.48719 8.46957 3.47601 8.47883 3.4646 8.48817C3.44986 8.5005 3.43536 8.51304 3.42157 8.52588C3.4111 8.53595 3.40112 8.54645 3.39137 8.55732C3.37806 8.5714 3.3657 8.5857 3.35357 8.6008C3.34454 8.61211 3.33598 8.62341 3.32766 8.63603C3.31624 8.65186 3.30578 8.66799 3.29556 8.68484C3.28819 8.69717 3.28081 8.7092 3.27392 8.72204C3.26441 8.7394 3.25609 8.7572 3.24824 8.77486C3.24254 8.78769 3.23636 8.80075 3.23136 8.81381C3.22399 8.83292 3.21758 8.85255 3.21163 8.87217C3.20759 8.88523 3.20331 8.89807 3.19998 8.90988C3.19451 8.93199 3.19047 8.95438 3.18667 8.97729C3.18453 8.98889 3.18191 9.00019 3.18049 9.01201C3.17621 9.04666 3.17383 9.08139 3.17383 9.11684L3.17383 14.8076C3.17383 14.8434 3.17621 14.8784 3.18096 14.9127C3.18263 14.9251 3.18572 14.9353 3.18809 14.9477C3.1919 14.9703 3.19523 14.9929 3.20236 15.0155C3.20569 15.0279 3.20949 15.0403 3.21425 15.0542C3.22019 15.0746 3.22613 15.0943 3.23327 15.1133C3.23826 15.1257 3.24515 15.1381 3.24991 15.1505C3.25775 15.1687 3.26655 15.1862 3.27606 15.2045C3.28272 15.2169 3.29032 15.2293 3.29746 15.2409C3.30768 15.2584 3.31886 15.2738 3.33075 15.2891C3.33907 15.3015 3.34739 15.3117 3.3569 15.3234C3.36902 15.3387 3.38068 15.354 3.39494 15.3671C3.40469 15.3774 3.41396 15.3898 3.42585 15.3971C3.43964 15.4095 3.45438 15.4226 3.46864 15.4357C3.48006 15.4452 3.49242 15.4532 3.50193 15.4627C3.50645 15.4656 3.50906 15.4707 3.51381 15.4729L11.5807 21.1658C11.7083 21.2563 11.8538 21.3015 12.0014 21.3008C12.149 21.3 12.2945 21.2555 12.4221 21.1658L20.4911 15.4758C20.4959 15.4729 20.4993 15.4693 20.5035 15.4656C20.5159 15.4569 20.5269 15.4481 20.538 15.4386C20.5531 15.4262 20.5676 15.4131 20.5814 15.4C20.5917 15.3905 20.6014 15.3795 20.6117 15.3693C20.6248 15.3547 20.6373 15.3409 20.649 15.3256C20.658 15.3139 20.6669 15.3029 20.6752 15.2905C20.6862 15.2752 20.6973 15.2584 20.7069 15.2424C20.7145 15.23 20.7221 15.2176 20.729 15.2052C20.7386 15.1877 20.7469 15.1702 20.7545 15.1519C20.7607 15.1388 20.7662 15.1264 20.7717 15.1133C20.7793 15.0936 20.7855 15.0739 20.7911 15.0542C20.7952 15.0411 20.7993 15.0287 20.8028 15.0155C20.8083 14.9936 20.8124 14.971 20.8166 14.9484C20.818 14.9367 20.8214 14.9251 20.8221 14.9134C20.8269 14.8784 20.829 14.8441 20.829 14.8084V9.11837C20.829 9.08292 20.8262 9.04819 20.8221 9.01347C20.8207 9.00114 20.8166 8.99115 20.8145 8.97882H20.8159L20.8159 8.97884ZM12.0014 13.8615L9.3181 11.9634L12.0014 10.0653L14.6842 11.9634L12.0014 13.8615ZM11.2428 8.671L7.95362 10.9983L5.29866 9.11941L11.2428 4.92786V8.671ZM6.58914 11.9634L4.69141 13.3056V10.6204L6.58914 11.9634ZM7.95362 12.9292L11.2428 15.2563V18.9993L5.29866 14.8069L7.95362 12.9292ZM12.76 15.2556L16.049 12.9292L18.7042 14.8069L12.76 18.9985V15.2556V15.2556ZM17.4131 11.9634L19.3111 10.6204V13.3064L17.4131 11.9634ZM16.049 10.9983L12.76 8.67122V4.92786L18.7042 9.11941L16.049 10.9983V10.9983Z" fill="white"/>
</svg>
