<svg width="24" height="24" viewBox="0 0 24 24" fill="none" xmlns="http://www.w3.org/2000/svg">
<rect width="24" height="24" rx="12" fill="#00A459"/>
<path d="M8.55675 5.49363L7.44306 4.35481C5.57392 5.81218 4.34341 8.05798 4.23438 10.6064H5.79199C5.90881 8.49598 6.96799 6.64838 8.55675 5.49363ZM18.2062 10.6064H19.7638C19.647 8.05798 18.4165 5.81218 16.5551 4.35481L15.4492 5.49363C17.0224 6.64838 18.0894 8.49598 18.2062 10.6064ZM16.6719 11.0046C16.6719 8.5597 15.3947 6.513 13.1673 5.97146V5.42992C13.1673 4.76893 12.6455 4.23535 11.9991 4.23535C11.3527 4.23535 10.8309 4.76893 10.8309 5.42992V5.97146C8.59569 6.513 7.32624 8.55173 7.32624 11.0046V14.9865L5.76862 16.5792V17.3756H18.2295V16.5792L16.6719 14.9865V11.0046ZM11.9991 19.7648C12.1081 19.7648 12.2094 19.7568 12.3106 19.7329C12.8168 19.6214 13.2296 19.271 13.4321 18.7932C13.51 18.602 13.5489 18.395 13.5489 18.172H10.4337C10.4415 19.048 11.1346 19.7648 11.9991 19.7648Z" fill="white"/>
</svg>
