<svg width="189" height="125" viewBox="0 0 189 125" fill="none" xmlns="http://www.w3.org/2000/svg">
<g clip-path="url(#clip0)">
<path d="M144.703 123.586C142.283 121.325 140.813 117.752 141.199 114.273C141.584 110.795 143.972 107.597 147.068 106.858C150.165 106.12 153.695 108.164 154.636 111.511C155.153 105.059 155.75 98.337 158.851 92.8428C161.658 87.8679 166.521 84.3081 171.791 83.6713C177.062 83.0345 182.611 85.4397 185.897 90.0414C189.184 94.6431 189.989 101.333 187.687 106.616C185.991 110.508 182.867 113.404 179.593 115.761C169.015 123.311 156.329 126.381 143.867 124.407L144.703 123.586Z" fill="#F2F2F2"/>
<path d="M180.686 85.573C176.337 89.4913 172.347 93.8736 168.775 98.6566C163.184 106.116 158.66 114.48 155.36 123.456C155.118 124.111 156.08 124.396 156.318 123.749C161.718 109.16 170.337 96.3022 181.388 86.3506C181.885 85.9035 181.178 85.1297 180.686 85.573Z" fill="white"/>
<path d="M60.8422 122.972C64.1656 119.865 66.1843 114.958 65.6549 110.18C65.1255 105.403 61.8465 101.01 57.5932 99.9959C53.3399 98.9814 48.4913 101.79 47.1995 106.386C46.4885 97.5246 45.6692 88.2919 41.4103 80.7455C37.554 73.9125 30.8748 69.0231 23.6361 68.1485C16.3974 67.2738 8.77595 70.5774 4.26142 76.8978C-0.253107 83.2182 -1.35847 92.4068 1.80339 99.6631C4.13262 105.009 8.42388 108.987 12.9201 112.223C27.2644 122.549 45.0586 126.855 61.99 124.099" fill="#F2F2F2"/>
<path d="M11.4192 70.7604C17.3921 76.1423 22.8715 82.1614 27.7783 88.7308C32.6859 95.2934 37.0065 102.367 40.6794 109.853C42.7324 114.052 44.5767 118.372 46.204 122.793C46.5358 123.693 45.2155 124.084 44.8874 123.195C42.0051 115.4 38.4391 107.936 34.2406 100.91C30.0625 93.9104 25.2805 87.3752 19.9616 81.3968C16.9533 78.017 13.7792 74.8227 10.4538 71.8284C9.77217 71.2144 10.7432 70.1515 11.4192 70.7605L11.4192 70.7604Z" fill="white"/>
<path d="M135.667 124.726H56.374V34.7263C56.374 15.5781 70.4561 0 87.7653 0H104.276C121.585 0 135.667 15.5781 135.667 34.7263V124.726Z" fill="#F2F2F2"/>
<path d="M119.157 124.726H56.3741V34.7264C56.3568 27.3892 58.457 20.2375 62.3691 14.3125C62.5133 14.0951 62.6571 13.8804 62.8054 13.6682C64.6977 10.9227 66.9495 8.50491 69.4865 6.49445C69.6298 6.37909 69.7737 6.26574 69.9197 6.15239C72.0427 4.5272 74.3391 3.19864 76.7568 2.19695C76.9004 2.13676 77.0465 2.07644 77.1927 2.01859C79.3793 1.15537 81.6459 0.564076 83.9507 0.255613C84.0936 0.234021 84.2403 0.217124 84.387 0.200227C86.6331 -0.0654402 88.8984 -0.0654402 91.1444 0.200227C91.2907 0.217124 91.4374 0.234018 91.582 0.255844C93.8862 0.564328 96.1523 1.15555 98.3383 2.0186C98.4845 2.07645 98.6307 2.13676 98.7746 2.19708C101.163 3.18613 103.432 4.49487 105.532 6.09407C105.678 6.20496 105.824 6.31832 105.968 6.43167C107.39 7.55463 108.726 8.80567 109.962 10.172C110.953 11.268 111.876 12.4362 112.726 13.6689C112.874 13.8804 113.018 14.0951 113.162 14.3122C117.074 20.2372 119.174 27.3891 119.157 34.7264V124.726Z" fill="#CCCCCC"/>
<path d="M114.051 84.4727C115.971 84.4727 117.527 82.7512 117.527 80.6276C117.527 78.504 115.971 76.7825 114.051 76.7825C112.131 76.7825 110.575 78.504 110.575 80.6276C110.575 82.7512 112.131 84.4727 114.051 84.4727Z" fill="#00A459"/>
<path d="M129.172 122.031H126.508L125.241 110.666L129.172 110.667L129.172 122.031Z" fill="#FFB8B8"/>
<path d="M124.606 121.189H129.743V124.767H121.372C121.372 124.297 121.456 123.832 121.618 123.398C121.781 122.963 122.019 122.569 122.319 122.237C122.62 121.905 122.976 121.641 123.369 121.461C123.761 121.281 124.181 121.189 124.606 121.189Z" fill="#2F2E41"/>
<path d="M142.424 122.031H139.76L138.493 110.666L142.424 110.667L142.424 122.031Z" fill="#FFB8B8"/>
<path d="M137.857 121.189H142.994V124.767H134.623C134.623 124.297 134.707 123.832 134.869 123.398C135.032 122.963 135.27 122.569 135.57 122.237C135.871 121.905 136.227 121.641 136.619 121.461C137.012 121.281 137.432 121.189 137.857 121.189Z" fill="#2F2E41"/>
<path d="M115.811 81.3893C115.619 81.077 115.492 80.722 115.438 80.3494C115.384 79.9768 115.404 79.5955 115.497 79.2325C115.591 78.8695 115.755 78.5336 115.979 78.2484C116.202 77.9632 116.479 77.7357 116.791 77.5819L125.845 49.9771L130.3 52.6666L119.962 79.0467C120.161 79.6429 120.155 80.299 119.946 80.8908C119.737 81.4826 119.339 81.969 118.827 82.2577C118.315 82.5465 117.726 82.6176 117.17 82.4575C116.614 82.2975 116.13 81.9174 115.811 81.3893Z" fill="#FFB8B8"/>
<path d="M141.063 86.5764C140.767 86.3887 140.512 86.1314 140.316 85.8228C140.119 85.5142 139.986 85.1617 139.926 84.7901C139.866 84.4186 139.881 84.037 139.969 83.6723C140.057 83.3076 140.216 82.9686 140.435 82.6792L137.63 53.478L142.7 53.7343L143.865 82.4575C144.28 82.8968 144.535 83.4892 144.582 84.1226C144.629 84.7559 144.463 85.3862 144.118 85.8939C143.773 86.4016 143.271 86.7515 142.708 86.8773C142.145 87.0031 141.56 86.896 141.063 86.5764Z" fill="#FFB8B8"/>
<path d="M132.974 44.8639C135.921 44.8639 138.31 42.2212 138.31 38.9614C138.31 35.7015 135.921 33.0588 132.974 33.0588C130.028 33.0588 127.639 35.7015 127.639 38.9614C127.639 42.2212 130.028 44.8639 132.974 44.8639Z" fill="#FFB8B8"/>
<path d="M141.028 79.9352H124.942L124.962 79.7968C124.991 79.5898 127.829 59.0237 125.736 52.2954C125.525 51.6342 125.544 50.9105 125.787 50.2634C126.031 49.6164 126.482 49.0918 127.054 48.7907H127.054C130.046 47.2321 135.789 45.313 140.636 49.9705C141.349 50.6671 141.906 51.5378 142.263 52.5136C142.62 53.4895 142.766 54.5437 142.691 55.593L141.028 79.9352Z" fill="#00A459"/>
<path d="M128.032 62.0629L120.79 60.4376L124.185 51.5386C124.388 50.6767 124.892 49.9391 125.586 49.4876C126.28 49.0361 127.108 48.9076 127.887 49.1302C128.667 49.3529 129.335 49.9085 129.745 50.6753C130.154 51.442 130.273 52.3572 130.073 53.2202L128.032 62.0629Z" fill="#00A459"/>
<path d="M137.308 65.0807L136.872 54.04C136.542 51.9645 137.616 50.0026 139.268 49.6819C140.92 49.3623 142.533 50.8018 142.865 52.8925L144.501 63.2089L137.308 65.0807Z" fill="#00A459"/>
<path d="M140.494 78.6133C143.082 89.5182 143.364 103.383 142.666 118.506L139.19 118.026L132.89 89.1874L129.414 118.506L125.504 118.266C124.336 102.398 123.198 88.7752 125.069 79.8149L140.494 78.6133Z" fill="#2F2E41"/>
<path d="M136.49 43.523C135.495 44.696 133.646 44.0663 133.516 42.4639C133.506 42.3395 133.507 42.2143 133.519 42.09C133.586 41.3802 133.956 40.7358 133.867 39.9864C133.847 39.7998 133.785 39.6221 133.685 39.4699C132.892 38.2949 131.03 39.9955 130.281 38.9318C129.822 38.2796 130.362 37.2526 130.009 36.5237C129.545 35.5615 128.168 36.0361 127.304 35.5092C126.343 34.923 126.401 33.2922 127.033 32.3003C127.804 31.0906 129.157 30.4451 130.492 30.3521C131.828 30.2591 133.154 30.6585 134.401 31.196C135.818 31.8067 137.222 32.6508 138.094 34.0288C139.154 35.7046 139.256 37.9575 138.726 39.9171C138.404 41.1091 137.303 42.5652 136.49 43.523Z" fill="#2F2E41"/>
<path d="M182.479 124.881H22.0909C22.0224 124.881 21.9569 124.85 21.9085 124.797C21.8602 124.743 21.833 124.67 21.833 124.595C21.833 124.519 21.8602 124.446 21.9085 124.393C21.9569 124.339 22.0224 124.309 22.0909 124.309H182.479C182.547 124.309 182.613 124.339 182.661 124.393C182.71 124.446 182.737 124.519 182.737 124.595C182.737 124.67 182.71 124.743 182.661 124.797C182.613 124.85 182.547 124.881 182.479 124.881Z" fill="#3F3D56"/>
<path d="M101.886 98.6516H73.6445C73.2726 98.6539 72.915 98.4928 72.6503 98.2038C72.3856 97.9147 72.2353 97.5214 72.2324 97.1099V27.3762C72.2353 26.9648 72.3856 26.5714 72.6503 26.2824C72.915 25.9933 73.2726 25.8323 73.6445 25.8345H101.886C102.258 25.8323 102.615 25.9933 102.88 26.2824C103.145 26.5714 103.295 26.9648 103.298 27.3762V97.1099C103.295 97.5214 103.145 97.9147 102.88 98.2038C102.615 98.4928 102.258 98.6539 101.886 98.6516Z" fill="white"/>
<path d="M103.298 48.3979H72.2324V48.8786H103.298V48.3979Z" fill="#CCCCCC"/>
<path d="M103.406 75.821H72.3408V76.3017H103.406V75.821Z" fill="#CCCCCC"/>
<path d="M82.4433 25.8345H82.0088V98.8919H82.4433V25.8345Z" fill="#CCCCCC"/>
<path d="M93.3046 25.8345H92.8701V98.8919H93.3046V25.8345Z" fill="#CCCCCC"/>
</g>
<defs>
<clipPath id="clip0">
<rect width="189" height="125" fill="white"/>
</clipPath>
</defs>
</svg>
