<svg width="249" height="187" viewBox="0 0 249 187" fill="none" xmlns="http://www.w3.org/2000/svg">
<path d="M54.5965 187C84.197 187 108.193 185.179 108.193 182.933C108.193 180.687 84.197 178.866 54.5965 178.866C24.996 178.866 1 180.687 1 182.933C1 185.179 24.996 187 54.5965 187Z" fill="#E6E6E6"/>
<path d="M20.9688 41.492C30.2962 37.5281 41.9136 40.0396 53.2592 41.7827C53.3648 39.6718 54.6446 37.1027 53.304 35.6301C51.6754 33.8409 51.8253 31.961 52.8053 30.0703C55.3114 25.2354 51.7209 20.0908 48.0955 15.8132C47.2784 14.8512 46.2457 14.0953 45.0813 13.607C43.9169 13.1187 42.6537 12.9117 41.3942 13.0028L34.6785 13.4821C33.0443 13.5987 31.4847 14.2112 30.2085 15.2377C28.9322 16.2641 28.0001 17.6555 27.5369 19.2257V19.2257C25.9334 21.4048 25.0751 23.5778 25.6155 25.7395C23.2136 27.3795 22.81 29.3592 23.8894 31.591C24.8046 32.9962 24.7948 34.364 23.8477 35.694C22.6039 37.3896 21.6512 39.2802 21.0288 41.2884L20.9688 41.492Z" fill="#2F2E41"/>
<path d="M242.626 161.658H52.5217C50.8312 161.658 49.2099 160.987 48.0144 159.793C46.819 158.599 46.1475 156.979 46.1475 155.29C115.06 147.287 182.678 147.287 249 155.29C249 156.979 248.328 158.599 247.133 159.793C245.938 160.987 244.316 161.658 242.626 161.658Z" fill="#2F2E41"/>
<path d="M249 155.664L46.1475 155.29L69.6574 115.765L69.7698 115.577V28.4692C69.7697 27.4119 69.9781 26.3649 70.383 25.388C70.7879 24.4112 71.3815 23.5236 72.1297 22.776C72.878 22.0284 73.7663 21.4353 74.744 21.0308C75.7216 20.6262 76.7695 20.418 77.8277 20.4181H216.195C217.253 20.418 218.301 20.6262 219.279 21.0308C220.256 21.4353 221.144 22.0284 221.893 22.776C222.641 23.5236 223.235 24.4112 223.639 25.388C224.044 26.3649 224.253 27.4119 224.253 28.4692V116.177L249 155.664Z" fill="#3F3D56"/>
<path d="M77.6433 26.0377C76.9474 26.0384 76.2802 26.315 75.7882 26.8066C75.2961 27.2983 75.0193 27.9649 75.0186 28.6602V108.084C75.0194 108.78 75.2962 109.446 75.7882 109.938C76.2803 110.43 76.9474 110.706 77.6433 110.707H217.503C218.199 110.706 218.866 110.43 219.358 109.938C219.85 109.446 220.127 108.78 220.127 108.084V28.6602C220.127 27.9649 219.85 27.2983 219.358 26.8067C218.866 26.315 218.199 26.0385 217.503 26.0377H77.6433Z" fill="white"/>
<path d="M78.2304 121.197C78.0154 121.197 77.805 121.259 77.6239 121.375C77.4428 121.491 77.2987 121.656 77.2085 121.851L69.9643 137.586C69.8855 137.757 69.851 137.946 69.864 138.134C69.8771 138.322 69.9373 138.504 70.039 138.662C70.1408 138.821 70.2808 138.952 70.4464 139.042C70.6119 139.132 70.7975 139.18 70.9861 139.18H223.326C223.518 139.18 223.707 139.131 223.874 139.038C224.042 138.944 224.182 138.81 224.283 138.647C224.384 138.484 224.441 138.298 224.45 138.106C224.458 137.915 224.418 137.725 224.332 137.553L216.458 121.818C216.365 121.631 216.222 121.474 216.044 121.364C215.866 121.254 215.661 121.196 215.452 121.197H78.2304Z" fill="#2F2E41"/>
<path d="M147.012 24.7265C147.943 24.7265 148.699 23.9717 148.699 23.0406C148.699 22.1095 147.943 21.3547 147.012 21.3547C146.08 21.3547 145.324 22.1095 145.324 23.0406C145.324 23.9717 146.08 24.7265 147.012 24.7265Z" fill="white"/>
<path d="M132.038 142.177C131.79 142.177 131.55 142.259 131.354 142.409C131.158 142.56 131.016 142.77 130.952 143.009L129.134 149.752C129.09 149.919 129.084 150.094 129.117 150.263C129.151 150.432 129.223 150.591 129.328 150.728C129.433 150.865 129.568 150.976 129.723 151.052C129.877 151.129 130.048 151.169 130.221 151.169H164.778C164.957 151.169 165.134 151.126 165.293 151.044C165.453 150.961 165.59 150.842 165.694 150.696C165.798 150.55 165.866 150.382 165.891 150.204C165.917 150.027 165.899 149.846 165.841 149.677L163.505 142.933C163.428 142.713 163.284 142.521 163.094 142.386C162.903 142.25 162.675 142.177 162.442 142.177H132.038Z" fill="#2F2E41"/>
<path d="M224.253 114.266V115.765H69.6572L69.7736 115.578V114.266H224.253Z" fill="#2F2E41"/>
<path d="M219.941 52.45C234.437 52.45 246.188 40.7087 246.188 26.225C246.188 11.7413 234.437 0 219.941 0C205.446 0 193.694 11.7413 193.694 26.225C193.694 40.7087 205.446 52.45 219.941 52.45Z" fill="#00A459"/>
<path d="M230.815 37.6517H209.067C208.67 37.6513 208.288 37.4932 208.007 37.2123C207.726 36.9313 207.568 36.5504 207.567 36.1531V23.0406C207.568 22.6432 207.726 22.2623 208.007 21.9814C208.288 21.7004 208.67 21.5424 209.067 21.542H230.815C231.212 21.5424 231.594 21.7004 231.875 21.9814C232.156 22.2623 232.314 22.6432 232.315 23.0406V36.1531C232.314 36.5504 232.156 36.9313 231.875 37.2123C231.594 37.4932 231.212 37.6513 230.815 37.6517ZM209.067 23.0406V36.1531H230.816L230.815 23.0406L209.067 23.0406Z" fill="white"/>
<path d="M226.69 23.0406H213.191V17.0463C213.191 12.7046 216.03 9.55341 219.941 9.55341C223.851 9.55341 226.69 12.7046 226.69 17.0463L226.69 23.0406ZM214.691 21.542H225.19V17.0463C225.19 13.517 223.032 11.052 219.941 11.052C216.85 11.052 214.691 13.517 214.691 17.0463L214.691 21.542Z" fill="white"/>
<path d="M219.94 30.7207C220.769 30.7207 221.44 30.0498 221.44 29.2221C221.44 28.3945 220.769 27.7236 219.94 27.7236C219.112 27.7236 218.44 28.3945 218.44 29.2221C218.44 30.0498 219.112 30.7207 219.94 30.7207Z" fill="white"/>
<path d="M201.618 83.7672H93.5299C92.9993 83.7665 92.4905 83.5556 92.1153 83.1807C91.74 82.8058 91.5289 82.2974 91.5283 81.7672V54.9776C91.5289 54.4474 91.74 53.9391 92.1153 53.5641C92.4905 53.1892 92.9993 52.9783 93.5299 52.9777H201.618C202.149 52.9783 202.658 53.1892 203.033 53.5641C203.408 53.9391 203.619 54.4474 203.62 54.9776V81.7672C203.619 82.2974 203.408 82.8058 203.033 83.1807C202.658 83.5556 202.149 83.7665 201.618 83.7672V83.7672ZM93.5299 53.7777C93.2115 53.778 92.9063 53.9045 92.6811 54.1295C92.456 54.3545 92.3293 54.6595 92.329 54.9776V81.7672C92.3293 82.0854 92.456 82.3904 92.6811 82.6153C92.9063 82.8403 93.2115 82.9668 93.5299 82.9672H201.618C201.937 82.9668 202.242 82.8403 202.467 82.6153C202.692 82.3904 202.819 82.0854 202.819 81.7672V54.9776C202.819 54.6595 202.692 54.3544 202.467 54.1295C202.242 53.9045 201.937 53.778 201.618 53.7776L93.5299 53.7777Z" fill="#E6E6E6"/>
<path d="M110.324 75.4912C114.827 75.4912 118.477 71.8438 118.477 67.3444C118.477 62.8451 114.827 59.1977 110.324 59.1977C105.82 59.1977 102.17 62.8451 102.17 67.3444C102.17 71.8438 105.82 75.4912 110.324 75.4912Z" fill="#E6E6E6"/>
<path d="M129.155 61.9133C128.976 61.913 128.799 61.948 128.634 62.0161C128.469 62.0842 128.319 62.1841 128.193 62.3103C128.066 62.4364 127.966 62.5861 127.898 62.751C127.829 62.9159 127.794 63.0926 127.794 63.2711C127.794 63.4496 127.829 63.6263 127.898 63.7912C127.966 63.9561 128.066 64.1059 128.193 64.232C128.319 64.3581 128.469 64.4581 128.634 64.5262C128.799 64.5943 128.976 64.6292 129.155 64.6289H193.219C193.579 64.6289 193.925 64.4858 194.18 64.2312C194.435 63.9766 194.578 63.6312 194.578 63.2711C194.578 62.911 194.435 62.5656 194.18 62.311C193.925 62.0564 193.579 61.9133 193.219 61.9133H129.155Z" fill="#E6E6E6"/>
<path d="M129.155 70.06C128.794 70.06 128.449 70.203 128.194 70.4577C127.939 70.7123 127.796 71.0577 127.796 71.4178C127.796 71.7779 127.939 72.1233 128.194 72.3779C128.449 72.6325 128.794 72.7756 129.155 72.7756H156.722C157.082 72.7756 157.428 72.6325 157.683 72.3779C157.937 72.1233 158.081 71.7779 158.081 71.4178C158.081 71.0577 157.937 70.7123 157.683 70.4577C157.428 70.203 157.082 70.06 156.722 70.06H129.155Z" fill="#E6E6E6"/>
<path d="M69.3911 70.6093L49.4101 81.2232L49.1572 72.3783C55.6789 71.2905 61.8836 69.3966 67.6207 66.3132L69.7104 61.1546C69.9381 60.5925 70.3082 60.0993 70.7844 59.7232C71.2605 59.3472 71.8264 59.1013 72.4263 59.0098C73.0263 58.9183 73.6398 58.9842 74.2065 59.2011C74.7733 59.418 75.2739 59.7784 75.6591 60.247V60.247C76.2227 60.9326 76.5045 61.8066 76.4473 62.692C76.39 63.5774 75.9981 64.408 75.3509 65.0154L69.3911 70.6093Z" fill="#FFB8B8"/>
<path d="M20.5689 131.89C20.4232 131.356 20.3922 130.797 20.4781 130.25C20.564 129.703 20.7648 129.18 21.0674 128.716L25.4566 121.986C26.4948 120.394 28.0877 119.244 29.9265 118.76C31.7652 118.275 33.7185 118.49 35.4076 119.363V119.363C33.5629 122.5 33.82 125.252 36.0446 127.644C32.5912 129.329 29.3994 131.503 26.5682 134.099C26.0514 134.451 25.4578 134.675 24.8369 134.751C24.2161 134.828 23.5859 134.755 22.999 134.539C22.412 134.323 21.8853 133.969 21.4626 133.509C21.0399 133.048 20.7335 132.493 20.5689 131.89V131.89Z" fill="#2F2E41"/>
<path d="M70.3008 123.09C69.6366 124.196 68.6991 125.113 67.5781 125.753C66.4571 126.392 65.1904 126.733 63.8995 126.743L34.7402 126.964L33.4756 119.635L46.3747 115.845L35.499 107.505L47.3864 93.606L68.9776 113.713C70.2396 114.888 71.0595 116.461 71.3004 118.167C71.5412 119.874 71.1884 121.612 70.3008 123.09V123.09Z" fill="#2F2E41"/>
<path d="M30.188 173.21H23.359C17.2276 131.217 10.9865 89.1066 29.4292 73.3891L51.1807 76.9271L48.3985 95.375L36.2582 109.274L30.188 173.21Z" fill="#2F2E41"/>
<path d="M36.1915 182.723C35.6569 182.868 35.0975 182.899 34.5501 182.814C34.0026 182.728 33.4796 182.527 33.0153 182.225L25.6005 181.229C24.0072 180.192 22.8563 178.6 22.3711 176.763C21.8859 174.926 22.101 172.974 22.9746 171.287C26.1147 173.13 28.8692 172.873 31.2629 170.65C32.9542 174.062 35.7409 173.854 38.4023 176.728C38.7547 177.245 38.9785 177.838 39.055 178.458C39.1316 179.078 39.0587 179.708 38.8424 180.295C38.6261 180.881 38.2726 181.407 37.8115 181.83C37.3504 182.252 36.795 182.558 36.1915 182.723V182.723Z" fill="#2F2E41"/>
<path d="M46.3757 45.3381L33.7295 42.3056C35.8298 38.01 36.0028 33.2303 34.9941 28.1538L43.5935 27.9011C43.863 34.2138 44.6781 40.1115 46.3757 45.3381Z" fill="#FFB8B8"/>
<path d="M49.8505 84.5361C40.6445 90.804 34.1398 84.7505 29.176 75.4108C29.8658 69.6958 28.749 62.8565 26.6805 55.4252C25.7606 52.1474 26.104 48.6442 27.643 45.6071C29.182 42.57 31.8047 40.2197 34.9933 39.0204V39.0204L45.869 43.5692C55.1037 51.0903 56.9214 59.2371 53.4567 67.8295L49.8505 84.5361Z" fill="#00A459"/>
<path d="M23.3595 51.656L13.2426 56.9629L31.2002 67.5768L33.6989 73.735C33.8656 74.146 33.9469 74.5867 33.9376 75.0301C33.9284 75.4735 33.8289 75.9104 33.6451 76.3142C33.4614 76.7179 33.1972 77.08 32.8688 77.3785C32.5405 77.6769 32.1547 77.9053 31.735 78.0499V78.0499C31.258 78.2143 30.7494 78.2661 30.249 78.2012C29.7486 78.1364 29.27 77.9567 28.8507 77.6762C28.4314 77.3957 28.0828 77.022 27.8322 76.5844C27.5815 76.1469 27.4357 75.6572 27.4061 75.1539L27.1534 70.862L4.3295 63.3365C3.56051 63.0829 2.85935 62.6578 2.27912 62.0934C1.69889 61.529 1.25481 60.8401 0.98052 60.0788V60.0788C0.580701 58.9691 0.560353 57.7583 0.922652 56.6359C1.28495 55.5134 2.00945 54.5427 2.9828 53.8755L21.3361 41.2948L23.3595 51.656Z" fill="#FFB8B8"/>
<path d="M33.4762 52.6668C29.2568 50.8192 25.42 52.8262 20.5771 54.4358L19.8184 41.0421C24.6272 38.4812 29.212 37.7907 33.4762 39.7785L33.4762 52.6668Z" fill="#00A459"/>
<path d="M38.5233 34.5355C42.9825 34.5355 46.5974 30.9236 46.5974 26.4681C46.5974 22.0127 42.9825 18.4008 38.5233 18.4008C34.0641 18.4008 30.4492 22.0127 30.4492 26.4681C30.4492 30.9236 34.0641 34.5355 38.5233 34.5355Z" fill="#FFB8B8"/>
<path d="M48.1827 25.4502C40.1886 26.2325 34.0972 24.9262 30.2041 21.2068V18.2114H47.5042L48.1827 25.4502Z" fill="#2F2E41"/>
</svg>
