<svg width="24" height="24" viewBox="0 0 24 24" fill="none" xmlns="http://www.w3.org/2000/svg">
<path d="M17.75 2C18.0455 2 18.3381 2.0582 18.611 2.17127C18.884 2.28434 19.1321 2.45008 19.341 2.65901C19.5499 2.86794 19.7157 3.11598 19.8287 3.38896C19.9418 3.66194 20 3.95453 20 4.25V19.755C20 20.0505 19.9418 20.3431 19.8287 20.616C19.7157 20.889 19.5499 21.1371 19.341 21.346C19.1321 21.5549 18.884 21.7207 18.611 21.8337C18.3381 21.9468 18.0455 22.005 17.75 22.005H6.25C5.95453 22.005 5.66194 21.9468 5.38896 21.8337C5.11598 21.7207 4.86794 21.5549 4.65901 21.346C4.45008 21.1371 4.28434 20.889 4.17127 20.616C4.0582 20.3431 4 20.0505 4 19.755V4.25C3.99993 3.67987 4.2163 3.13098 4.60537 2.71425C4.99444 2.29751 5.52721 2.04402 6.096 2.005L6.25 2H17.75ZM18.5 16H5.5V19.755C5.5 20.169 5.836 20.505 6.25 20.505H17.75C17.9489 20.505 18.1397 20.426 18.2803 20.2853C18.421 20.1447 18.5 19.9539 18.5 19.755V16ZM7.751 17.5H16.25C16.44 17.5001 16.6229 17.5722 16.7618 17.702C16.9006 17.8317 16.9851 18.0093 16.998 18.1989C17.011 18.3885 16.9515 18.5759 16.8316 18.7233C16.7117 18.8707 16.5402 18.9671 16.352 18.993L16.25 19H7.751C7.56106 18.9997 7.37832 18.9273 7.23966 18.7975C7.101 18.6677 7.01675 18.4901 7.00393 18.3006C6.99111 18.1111 7.05067 17.9238 7.17059 17.7765C7.2905 17.6292 7.46183 17.5329 7.65 17.507L7.751 17.5H16.25H7.751V17.5ZM17.75 3.5H6.25L6.148 3.507C5.96845 3.53165 5.80389 3.62048 5.68477 3.75707C5.56564 3.89366 5.50001 4.06876 5.5 4.25V14.5H8V12.245C8 11.598 8.492 11.066 9.122 11.002L9.25 10.995H14.75C15.397 10.995 15.93 11.487 15.993 12.118L16 12.245V14.5H18.5V4.25C18.5 4.05109 18.421 3.86032 18.2803 3.71967C18.1397 3.57902 17.9489 3.5 17.75 3.5ZM12 4.996C12.663 4.996 13.2989 5.25939 13.7678 5.72823C14.2366 6.19707 14.5 6.83296 14.5 7.496C14.5 8.15904 14.2366 8.79493 13.7678 9.26377C13.2989 9.73261 12.663 9.996 12 9.996C11.337 9.996 10.7011 9.73261 10.2322 9.26377C9.76339 8.79493 9.5 8.15904 9.5 7.496C9.5 6.83296 9.76339 6.19707 10.2322 5.72823C10.7011 5.25939 11.337 4.996 12 4.996Z" fill="#535353"/>
</svg>
