<svg width="60" height="60" viewBox="0 0 60 60" fill="none" xmlns="http://www.w3.org/2000/svg">
<path d="M47.5 7.5H12.5C9.75 7.5 7.5 9.75 7.5 12.5V47.5C7.5 50.25 9.75 52.5 12.5 52.5H47.5C50.25 52.5 52.5 50.25 52.5 47.5V12.5C52.5 9.75 50.25 7.5 47.5 7.5ZM30 30C25.85 30 22.5 26.65 22.5 22.5C22.5 18.35 25.85 15 30 15C34.15 15 37.5 18.35 37.5 22.5C37.5 26.65 34.15 30 30 30Z" fill="#82A3D0"/>
<path d="M26.25 23.75C26.9404 23.75 27.5 23.1904 27.5 22.5C27.5 21.8096 26.9404 21.25 26.25 21.25C25.5596 21.25 25 21.8096 25 22.5C25 23.1904 25.5596 23.75 26.25 23.75Z" fill="black"/>
<path d="M33.75 23.75C34.4404 23.75 35 23.1904 35 22.5C35 21.8096 34.4404 21.25 33.75 21.25C33.0596 21.25 32.5 21.8096 32.5 22.5C32.5 23.1904 33.0596 23.75 33.75 23.75Z" fill="black"/>
<path d="M30 23.75C30.6904 23.75 31.25 23.1904 31.25 22.5C31.25 21.8096 30.6904 21.25 30 21.25C29.3096 21.25 28.75 21.8096 28.75 22.5C28.75 23.1904 29.3096 23.75 30 23.75Z" fill="black"/>
</svg>
